<svg id="Capa_1" data-name="Capa 1" xmlns="http://www.w3.org/2000/svg" viewBox="0 0 1080 1080"><defs><style>.cls-1{fill:#141414;}.cls-2{fill:#e0e0e0;}</style></defs><rect class="cls-1" width="1080" height="1080"/><path class="cls-2" d="M44.91,595.46c2.33-3.08,1.79-6.86,2.45-10.33,9.22-48.45,32.8-89.7,64.37-126.69,23.16-27.14,49.27-51,80.94-68.19,16.82-9.11,34.3-16.3,53.8-16.73,19.68-.45,31.17,13.88,26.87,33.2-2.14,9.66-6.87,18-13.08,25.53-4.87,5.9-13.75,8.19-18.3,5.2-4.39-2.88-5.34-10.59-1.67-17.92,4-8,9.49-14.62,19.48-15,2.16-.09,2.79-1.29,3.2-3.07,1.71-7.39-2.92-12.88-11.1-12.83-7.17,0-13.6,2.89-20,5.82-16.75,7.71-30.62,19.36-43.44,32.34-35.3,35.74-64.74,75.6-84,122.28-9.39,22.68-16.66,46-15.49,71.11a75,75,0,0,0,3.46,19.6c6.43,20.19,22.38,28.88,41.25,33.64,17.64,4.46,35.2,1.48,52.43-2.46,34.85-8,69.47-16.91,104.33-24.83,25.4-5.78,51.14-9,77.33-6.77,20,1.67,39,6.55,56.35,16.93,17.62,10.57,34.06,22.74,48.42,37.56,1.37,1.41,3,2.68,3.6,4.69-2.2,1.33-3.86-.21-5.48-1.2-17.51-10.67-36.4-17.32-56.83-19.08-14.83-1.28-29.39-.57-41.88,9.21a45.84,45.84,0,0,0-7.48,7.32c-4.16,5.17-4.57,5.18-8.56-.38a61.89,61.89,0,0,0-12.19-13.15c-11.68-9-25.13-13.52-39.58-15.38-25.93-3.35-51.17,1.12-76.14,7.35-23.61,5.88-47.11,12.19-70.93,17.16-9.81,2-19.72,3.84-29.67,4.2-26.66.95-50-6.88-67.53-28.08-9-10.88-13.23-23.73-14.39-37.68-.07-.81.12-1.67-.53-2.35v-7a10.27,10.27,0,0,0,0-7v-11a1.29,1.29,0,0,0,0-2Z"/><path class="cls-2" d="M771.78,607.17c-5.26.55-9.87,1.23-14.49,1.42-3,.12-3.9,2.09-5.06,4.1-10,17.31-20.85,34.1-34.39,48.95-9.49,10.41-20.09,19.45-32.49,26.26a41.54,41.54,0,0,1-13.56,4.81c-12.45,2-21.85-4.86-23.91-17.44-1.93-11.86.2-23.32,4.1-34.36,13.52-38.25,35.83-70.43,67.91-95.48,8.15-6.36,17.28-11.31,27.64-13.34,14.87-2.92,24.74,5,25.33,20.15.55,14.43-4.69,27.38-10.2,40.27-.86,2-3.5,4.23-1.88,6.06,1.47,1.68,4.43,0,6.67-.3,5.85-.91,9.85-3.6,12.7-9.52C803,541.2,829.93,496.1,863.94,455.56c21.26-25.34,44.19-49,71.72-67.72,8.27-5.63,17-10.64,27.54-10.5,7.68.1,11.23,3.59,11.81,11.15.84,11-3.25,20.64-8.58,29.74-2.2,3.76-7.18,2.53-12,4.47,2.47-5,4.42-8.94,6.31-12.88,2.09-4.36,4.11-8.74,4.48-13.67.16-2.12,1-4.49-1.16-6s-4.15.18-6,1.08c-7.16,3.44-12.79,8.91-18.61,14.15-28.37,25.54-50.58,56.09-71.25,87.84-16.33,25.09-31.69,50.75-45.13,78.26,4.2-1.1,7-3.75,9.85-6,17.81-13.85,33.71-29.76,49.26-46s30.77-33.28,44.09-51.66c3.41-4.71,8.09-2.53,12.89-3.91-4.26,7.62-9.22,13.83-14.17,20-32.12,40.08-67.31,77-109.58,106.65a9.08,9.08,0,0,0-3.34,3.61c-8.07,17.75-15.33,35.77-18.78,55.09a19.57,19.57,0,0,0,.33,9.4c1.71,5.44,5.46,7.06,10.36,4.19,5.26-3.09,9.13-7.72,12.94-12.37,11.64-14.22,20.51-30.32,30.78-45.47,13.41-19.75,27.46-38.94,45.65-54.69A136.8,136.8,0,0,1,911.43,537a37.9,37.9,0,0,1,15-5.25c9.66-1.31,16.23,3.34,21.58,12.62,1.62-10.81,9-9,15.52-9s13.3,0,20,0c.24,2.24-1.2,3.59-2.07,5.1-17.74,31.06-34.66,62.58-53.15,93.21A133.19,133.19,0,0,0,917.48,655c-.87,2.28-2.37,4.82.31,6.79,2.32,1.71,4.4.11,6.38-1.15,12.06-7.65,20.9-18.48,29.26-29.75,3.17-4.28,6.61-8.48,9-13.19,3.27-6.48,7.88-8.9,14.94-7,.42.69-.27,1.36-.67,2-14.76,23.06-30.48,45.35-51.11,63.71a92.51,92.51,0,0,1-21.3,13.81c-15.29,7.44-25.83.58-25.43-16.39,0-1.64,0-3.28,0-5.42-4.35,3.86-8.44,7.62-12.68,11.21a68.4,68.4,0,0,1-18,11.5C834,697,822,689.63,820.83,674.42c-.31-4.09-.05-8.21-.05-13-4.8,5.11-9.08,9.86-13.57,14.4-5.64,5.71-11.83,10.77-19.13,14.27-15.73,7.55-29.82-.72-31.22-18.22-.9-11.17,1.54-21.86,4.64-32.44,1.59-5.42,3.33-10.8,5-16.18C768.21,618,769.94,612.82,771.78,607.17Z"/><path class="cls-2" d="M506,534.59c-18.28,26.31-36.64,51.64-62.28,70.53-5.66,4.17-11.66,7.67-18.82,8.74-9.75,1.46-16.72-4.11-17.15-13.92-.13-3,0-5.93,0-10.09-2.94,3-5.2,5.54-7.67,7.83-7.5,7-15.51,13.21-25.67,15.78-14.4,3.64-24.47-4.29-24.53-19.08,0-5.22,1.1-10.25,2.3-15.27.34-1.44,1.08-2.8.49-4.42-2.27.26-3.29,2.18-4.66,3.5-9.49,9.13-18.86,18.39-30,25.61-7.89,5.12-16.33,8.81-25.77,10.16-17.45,2.5-30.2-6.93-33.39-24.3-2.34-12.79-.24-24.79,4.5-36.61a297.42,297.42,0,0,1,15-31c-8.21,2.38-15.72,2.07-20.38,10.92-12.5,23.71-28.34,45.11-48.81,62.74-8.37,7.2-17.21,13.7-27.91,17.09-16.18,5.13-28.67-3.24-30.4-20.13-1.49-14.48,1.51-28.24,7-41.4,16.09-38.3,40.67-69.71,76.46-91.57,7.42-4.53,15.56-7.54,24.55-7.34,10,.23,16.92,5.91,19.1,15.73,2.15,9.64.09,18.88-2.79,28-1.78,5.66-4,11.19-6.09,17.13,5,.06,8.86-2.28,12.65-4.56,11.37-6.82,21.15-15.56,30.22-25.2s19-18.18,30.52-24.81c7-4.05,14.49-6.53,22.79-6.27,14.11.46,23.1,10.16,21.46,24.2a49.1,49.1,0,0,1-15.14,30.19,21,21,0,0,1-5.75,3.89c-6.23,2.87-11.9-.58-12.44-7.37-.75-9.36,8.59-21.53,18-22.9,3.66-.54,6-1.46,5.57-5.7s-2.7-6.39-6.81-6.52c-6.41-.19-11.46,3-16.15,6.91-17.15,14.24-30.41,31.67-41.09,51.09-7.3,13.26-14.32,26.73-17.28,41.77-1.5,7.58-1.39,15.44,5.55,20.48s14.09,1.75,20.61-1.84c12.5-6.89,21.63-17.62,31-28,14.09-15.63,25.38-33.4,38.07-50.1,11.93-15.69,24.89-30.46,40.47-42.69,7.11-5.57,14.61-10.47,23.58-12.61,8.15-1.95,15.33-.39,20.69,6.3,2.39,3,3.39,2.05,4.7-.6a3.56,3.56,0,0,1,3.43-2.38c9.59.08,19.19,0,29.44,0-1.17,2.16-2,3.74-2.88,5.27Q479.4,515.41,448.47,569c-1.33,2.31-2.77,4.57-3.34,7.22-.4,1.83-.49,3.75,1.15,5.07s3.36.7,4.74-.09a57.76,57.76,0,0,0,8.29-5.53c12.2-10,21.73-22.48,31.23-34.94C496.08,533.5,496,533.45,506,534.59Z"/><path class="cls-2" d="M738,389.29c-8.26-2.83-15.87-1-23.18,2.54a196.09,196.09,0,0,0-42.71,28.39c-27.78,23.83-50.53,52.15-71.42,81.92-18.09,25.78-33.85,53-44.33,82.94a198.46,198.46,0,0,0-10.15,44.66A44.38,44.38,0,0,0,549,650.85c5.62,14.28,19,20.62,33.65,15.84,10.85-3.55,19.79-10.24,27.8-18.1,21.8-21.39,38.26-46,44.84-76.36,1.24-5.7,2-11.49.63-17.33-1.27-5.38-4.27-7.46-9.81-6.81s-9.8,4-13.46,8c-10.64,11.54-17.18,25.22-20.55,40.45-.46,2.08-.94,3.6-3.05,4.63C595,608,583,617.7,572.21,629c-.55.58-.66,1.57-1.63,1.82,3.89-31.78,13.38-60.7,37.93-82.54,8.85-7.87,19-13.49,30.71-15.8,15.23-3,24.91,4.12,26.7,19.58,1.69,14.61-1.4,28.53-7,41.88-15.69,37.35-39.26,68.26-74.39,89.44-13.4,8.08-28.06,12.11-43.53,8.62-20.74-4.69-31.19-19.82-35.91-39.37-4.16-17.25-2.24-34.4,2.51-51.32,11-39.32,30.82-74.22,54.59-107,26.28-36.27,56.49-68.72,94.16-93.5,18.16-11.95,37.51-21.64,59.13-25.62,11.8-2.17,23.35-1.5,32.85,7.25,1.93,1.78,3.49.46,5-.12,10.17-3.8,20.49-7,31.39-7.7a84,84,0,0,1,40,6.76c23,10.18,44.2,23.64,65.94,36.48-7.72,8.35-15.2,16.38-22.57,24.51-1.91,2.11-3.42.55-4.79-.29-8.36-5.14-16.66-10.39-24.94-15.67-17.23-11-33.91-23-53.62-29.5-7.95-2.62-16-4.68-24.49-3.52-2.88.39-4.85,1.11-4.65,4.89,1.07,20.18-5.87,38.42-15.26,55.6-7.58,13.88-17,26.73-29.22,37.11a61.19,61.19,0,0,1-19.72,11.49c-14,4.81-23.86-2-24.46-16.85-.24-5.95,1.29-11.56,3.39-17,12.47-32.46,34.79-56.71,63.32-75.77C735.13,391.87,737,391.36,738,389.29Z"/><path class="cls-2" d="M900.24,457c6.85-9.41,14.11-17.86,21.43-26.25a3.76,3.76,0,0,1,3.58-1.19c32.68,2.87,60.53-9.69,86.7-27.38,10.64-7.19,20.24-15.69,29.8-25.08.13,3-1.45,4.82-2.53,6.58-21.79,35.37-51.66,60.58-92,72.32C931.56,460.59,913.59,460.82,900.24,457Z"/><path class="cls-2" d="M518.88,484.13c5.74-9.34,11-17.91,16.27-26.47a2.71,2.71,0,0,1,2.57-1.17c9.08,0,18.16,0,28.11,0-5.6,9.12-10.79,17.55-16,26a3.08,3.08,0,0,1-2.82,1.66C538,484.12,528.92,484.13,518.88,484.13Z"/><path class="cls-1" d="M860.13,655c.62-9.86,4.22-18.82,8.79-27.35,12.94-24.14,27.48-47.18,47-66.71a79.56,79.56,0,0,1,12.18-10.32,13.41,13.41,0,0,1,6.95-2.52c5.06-.16,7.74,3.52,5.13,7.81-19.19,31.53-35,65.11-57.92,94.38A37.25,37.25,0,0,1,869.81,661C864.18,663.8,860,661.05,860.13,655Z"/><path class="cls-1" d="M717.64,583c5.87,10.58,14.25,17.68,24.49,22.67,1.83.9,1.8,1.85.93,3.49-9.47,17.93-20.45,34.71-36.61,47.44-4.91,3.87-10.56,7.56-16.81,3.56-5.81-3.72-4.8-10-3.87-15.89a74.2,74.2,0,0,1,6.35-19.35A222.93,222.93,0,0,1,717.64,583Z"/><path class="cls-1" d="M728.9,574.8c-.06-13.08,10.07-25.77,21-28.54,6.93-1.75,11,.85,12.12,7.84a38.35,38.35,0,0,1-1.23,16.77,137.3,137.3,0,0,1-9.11,22.62c-1.59,3.26-3.26,3.87-6.5,2.26C735.54,591,729.51,583.73,728.9,574.8Z"/><path class="cls-1" d="M395.28,583.4c-4.3,0-6.92-3.48-6-8.36,1.46-8.09,4.59-15.63,8.12-23,13.26-27.58,32.17-51.24,51.86-74.33a34.18,34.18,0,0,1,10.29-7.81,13.56,13.56,0,0,1,5.69-1.72c2.27-.1,4.25.35,5.72,2.33,1.61,2.17.12,3.73-.83,5.42q-20.07,36-41.23,71.29c-5,8.28-10.19,16.4-16.52,23.75a53.91,53.91,0,0,1-12.9,10.94A6.93,6.93,0,0,1,395.28,583.4Z"/><path class="cls-1" d="M222.16,502.22c5.91,10.92,15,17,25.74,20.92,2.25.81,3.68,1.35,2.1,4-10.11,17-20.29,34-35.5,47.21a38.87,38.87,0,0,1-9.44,6.44c-8.37,3.71-14.61-.15-15.26-9.27-.33-4.74.76-9.24,2.14-13.7C198.23,537.39,209.81,519.88,222.16,502.22Z"/><path class="cls-1" d="M233.61,493.43c.18-10.18,10.16-22.92,20-25.58,7.63-2.06,12.17.91,13.39,8.85,1.28,8.36-1.21,16.12-4,23.8-1.07,2.95-2.82,5.7-3.64,8.71-1.21,4.47-3.89,5-7.82,4.08C241.24,510.82,233.46,502.32,233.61,493.43Z"/><path class="cls-1" d="M745.84,399.07c.19,11.08-2.2,21.7-5.85,32.06-8.32,23.58-22.44,42.92-42.84,57.5-3.5,2.5-7.12,5-11.76,4.94-5-.05-8.08-2.8-8.56-7.82-.53-5.49.95-10.64,3.18-15.49,13.38-29.2,33.16-52.85,60.88-69.51a35.89,35.89,0,0,1,3.57-1.77C744.72,398.87,745.09,399,745.84,399.07Z"/></svg>