<svg id="Capa_1" data-name="Capa 1" xmlns="http://www.w3.org/2000/svg" viewBox="0 0 1080 1080"><defs><style>.cls-1{fill:#141414;}.cls-2{fill:#e0e0e0;}</style></defs><rect class="cls-1" width="1080" height="1080"/><path class="cls-2" d="M586.69,438.93h69.15c6.67,0,9.58,2,11.73,8.31a35.07,35.07,0,0,1,1.69,11.63c0,11.5-.23,23-.08,34.5.05,3.26-1,3.8-4.15,3.66-9.37-.43-9.27-.29-11.7-8.92a122.75,122.75,0,0,0-4.66-13.87c-5.47-13.13-15.82-20.1-30.23-20.89-9.55-.52-19.15-.19-28.72-.23-5.06,0-7.51,3.2-9.12,7.23-2.38,6-2.73,12.3-2.86,18.58-.22,10.4,0,20.8-.12,31.2,0,2.52.5,3.65,3.43,3.58a56,56,0,0,0,12.07-1.17c11.7-2.84,15.85-11.5,17.56-21.92,1.45-8.83,1.43-8.61,10.46-8.93,4.22-.15,5.41.84,5.37,5.11-.25,23.63-.18,47.27,0,70.9,0,3.21-.72,4.3-4.23,4.26-10.26-.12-10.27,0-11.47-10.25-2.07-17.61-12.21-25.68-30.31-24.25-2,.16-2.87.62-2.81,2.72.47,16.21-.94,32.45.91,48.63,1.2,10.5,4.56,13.32,15.36,13.32,5.68,0,11.37.19,17-.1,17.76-.92,29.28-10.59,36.79-25.46,3.66-7.26,5.56-15.09,6.7-23.05.35-2.5,1-3.41,3.79-3.48,10.88-.25,10.87-.35,10.87,10.07,0,12.13,0,24.27,0,36.4a30.43,30.43,0,0,1-1.8,10.66c-1.73,4.68-5.12,7.66-10.26,8.28a110.43,110.43,0,0,1-12.59.83c-42.69.06-85.39,0-128.08.13-4,0-5.52-.94-5-4.9.34-2.8-.84-6.17.39-8.36,1.42-2.53,5.3-.86,8.07-1.44,12-2.48,17.94-8.14,18-18.84q.16-50.82-.19-101.62c-.1-12-6.5-17.77-18.78-18.13-7.4-.22-7.4-.22-7.4-7.25a17.8,17.8,0,0,0,0-2.83c-.54-3.28.73-4.22,4.19-4.2C539.29,439,563,438.93,586.69,438.93Z"/><path class="cls-2" d="M727.88,521c-.42-15,.93-32.28-.07-49.61-.69-11.89-6.4-17.87-18.72-18.31-7.84-.27-7.84-.27-7.84-7.74,0-6.45,0-6.6,6.66-6.42,10.69.29,21.43-1,32.06.9a53.22,53.22,0,0,1,33.56,19.91c16.56,20.81,33.46,41.37,50.28,62a81.81,81.81,0,0,0,12.46,12.57c1.6,1.26,3.32,3,5.62,2s1.91-3.14,2-5c1-19,1-38.12.37-57.16-.38-12.1-8.57-19.67-21-20.79-3.66-.33-4.92-1.19-4.82-4.93.25-9.56,0-9.56,10-9.56,17.53,0,35.07.13,52.59-.1,3.95-.06,4.81,1.11,4.71,4.71-.23,8.7,0,8.7-8.77,10.63-11.5,2.54-16.45,9.41-16.47,23.26q-.07,47.51,0,95c0,9.93-.15,19.86.08,29.78.07,3.36-1.09,3.9-4.35,4.24-8.6.89-14.17-2.62-19.3-9.11-25-31.6-50.29-62.94-75.52-94.36a62.9,62.9,0,0,0-9.49-10.09c-3.85-3.08-6.91-2-7.84,2.86a17.16,17.16,0,0,0-.17,3.29q0,33.57,0,67.12a36.1,36.1,0,0,0,1.13,9.35c2.69,10,9.77,15.93,20.38,16.51,2.88.16,3.87.7,3.9,3.69.11,10.6.25,10.6-10.86,10.6-17.7,0-35.39-.14-53.08.09-4,.06-5.26-1.22-4.68-4.79a3.68,3.68,0,0,0,0-.47c0-2.68-.83-5.83.34-7.91,1.4-2.52,5-.82,7.63-1.16,11-1.44,19.13-11.19,19.27-23.8C728,553.31,727.88,538.34,727.88,521Z"/><path class="cls-2" d="M46.82,522.32q0-30.27,0-60.52c0-7.07-2-9-9.23-9-4.54,0-9.1-.22-13.63.06-3.18.2-3.67-1-3.67-3.75,0-10.52-.11-10.52,10.84-10.51,30.69,0,61.38-.06,92.06,0,16.89,0,32.16,4.62,43.85,17,21.72,23,13.62,58-16.21,70.47a104.31,104.31,0,0,1-37.35,7.68c-.81,0-1.62,0-2.44,0-14.06.18-25.69,4-24.51,24.08.46,7.85-.06,15.75-.06,23.63,0,8.71,1.6,10.27,10.41,10.29,4.87,0,9.74,0,14.61,0,1.16,0,3.09-.61,3.21,1.13a68.26,68.26,0,0,1,0,11.79c-.23,2.16-2.67,1.19-4.1,1.2-18.67.07-37.34,0-56,0-10.23,0-20.46-.09-30.69,0-2.67,0-3.56-.57-3.6-3.34-.16-10.91-.28-10.91,10.86-10.91,15.69,0,15.69,0,15.69-15.12Z"/><path class="cls-2" d="M1019.53,606c-12.34,0-24.67-.12-37,.07-3.45,0-4.35-1-4.32-4.27.09-10-.05-10,10.46-10,12.7,0,14.28-2.26,9.53-13.43-3.39-8-6.84-16-10.16-24-.77-1.87-1.41-3.32-3.95-3.29-14.77.17-29.54,0-44.29.38-7.81.18-13.47,4-16.41,11.24-1.37,3.35-2.93,6.66-4,10.11-2.88,9.64,1.93,16.87,12.13,18.58a19.8,19.8,0,0,0,2.4.34c3.22.16,8-.92,9.29.68,2.21,2.75.47,7.22.8,10.95.19,2.11-.71,2.65-2.78,2.64q-30.42-.09-60.86,0c-2.25,0-3.38-.63-3.14-2.95.08-.78,0-1.57,0-2.36.07-2.67-.68-5.73.44-7.89,1.23-2.39,4.72-.7,7.18-1.24,4.37-1,7.6-3.45,10.38-6.6a42.88,42.88,0,0,0,7-11.78q28.38-66.37,56.92-132.69c.9-2.07.9-5.47,3.43-5.77,3.88-.47,8.06-1.18,11.82,1.18a18.79,18.79,0,0,1,7.32,9.12c19.11,44.85,38.43,89.63,57.31,134.57,3.56,8.48,8.23,13.72,18.31,12.18,2.61-.4,3.59.46,3.62,3.28.14,10.92.27,10.92-10.83,10.92Z"/><path class="cls-2" d="M301.38,606c-12.34,0-24.69-.08-37,.06-3,0-4.07-.47-4-3.83.4-10.32.19-10.33,11.08-10.42,11.7-.1,13.39-2.52,9-12.86-3.46-8.14-6.94-16.27-10.36-24.42-.75-1.78-1.23-3.44-3.88-3.41-14.93.18-29.87,0-44.79.41-7.64.19-13.09,4.19-16,11.12a104.52,104.52,0,0,0-4.09,10.58c-2.71,9,2.09,16.5,11.69,18.06,3.33.55,6.91-.14,10.15.63,6.26,1.49,1.41,6.46,2.59,9.68.54,1.49,1.53,4.48-2.64,4.46q-30.19-.19-60.4,0c-2.62,0-3.52-.89-3.24-3.3a30.44,30.44,0,0,0,0-3.31c0-6.74,0-6.76,6.9-7.78,5.41-.8,8.9-4.29,12.09-8.13a39.38,39.38,0,0,0,5.62-9.87Q212.65,507,241.28,440.47c.88-2.06.89-5.46,3.45-5.72,3.88-.4,8-1.18,11.82,1.19,3.61,2.26,5.69,5.4,7.29,9.14q28.68,67.31,57.48,134.58c.38.87.77,1.73,1.09,2.62,2.53,7,7.33,10.63,15.18,9.5,4.47-.64,5.71,1,5.54,5.32C342.77,606,343,606,334,606Z"/><path class="cls-2" d="M467.35,449.7c1.4-4,2.93-7.51,3.8-11.16.75-3.12,2.38-3.82,5.45-3.79,10,.1,10,0,10,9.56-.08,16.54-.16,33.08-.35,49.62-.09,7.21-3.39,10.21-10.11,10.5-3.59.16-4.32-1.29-4.54-4.25a78.6,78.6,0,0,0-7.11-27.79c-8.11-17.23-26.91-27-44.48-22.87-12.7,3-20.37,11.8-25.7,22.7-5.66,11.58-7.18,24.08-7.9,36.71-1,18-.19,35.85,5.06,53.3.28.9.6,1.79.9,2.68,5.23,15.08,14.36,26.21,31.74,28.15,18.69,2.09,33.23-5,43.66-20a55.3,55.3,0,0,0,8.58-20.9c.77-3.92,2.32-5.34,6.61-5.18,9.38.36,9.33.09,7.38,8.89-9.75,44.1-52.75,66.06-98.79,47.2-30.36-12.45-46.09-36.78-49.52-68.29-2.3-21.05.48-41.46,11.58-60.23,18.2-30.78,55.72-46.58,88.79-37.49C451.41,439.5,459.27,444.09,467.35,449.7Z"/><path class="cls-2" d="M807,421.25c-9.23-.18-16.26-3.14-23.41-5.62-3.51-1.22-7-2.5-10.59-3.46-7.45-2-11.84-.31-15.12,6.43-1.54,3.19-3.91,3.1-6.28,2.48-2.62-.69-.8-2.88-.67-4.35a36.42,36.42,0,0,1,4.06-13.5c5.72-11.16,17-16.3,29.53-13.7,8.27,1.72,16,5,24.07,7.29,10.26,2.88,12.8,2,17.95-6.83,1.36-2.34,3.36-1.27,5.13-1.46s2,.92,2.13,2.39c.83,12.32-9.34,26.38-21.53,29.52A39.68,39.68,0,0,1,807,421.25Z"/><path class="cls-2" d="M585.24,666.84c11.19.08,19.92,8.77,19.71,19.62-.19,10.44-9.33,19-20.16,18.85a19.59,19.59,0,0,1-19.62-19.79C565.36,674.77,574,666.76,585.24,666.84Z"/><path class="cls-2" d="M859.74,686c0-5.18.2-9.73-.06-14.25-.22-3.61.83-5,4.84-4.91,3.74.08,4.64,1.29,4.56,4.73-.22,9.76-.05,19.54-.11,29.31,0,1.3.77,3-.87,3.85-1.88.94-3-.65-4.05-1.76q-8.89-9-17.75-18l-1.49.79c0,5.1-.22,10.2.07,15.28.22,3.88-2,3.8-4.88,3.87s-4.42-.54-4.36-3.87c.19-10.24.05-20.48.11-30.73,0-1.12-.75-2.67,1-3.29s2.72.44,3.81,1.46q8.55,8.07,17.16,16.07A25.46,25.46,0,0,0,859.74,686Z"/><path class="cls-2" d="M540.33,685.36c4,2.8,6.93,5.94,5.83,10.79-.93,4.11-3.47,7.35-7.78,8.22-3.42.7-7.07.47-10.63.43-9.79-.09-8.45,1.44-8.52-8.13-.07-8.48.1-17-.08-25.45-.06-3.06.93-4.31,4.14-4.11a81,81,0,0,0,9.22,0c5.38-.27,9.64,1.47,11.9,6.36S545,682.35,540.33,685.36Z"/><path class="cls-2" d="M248.19,685.9c0-5.19.07-10.38,0-15.58-.05-2.37.75-3.43,3.35-3.36,5,.14,10.06-.14,15.07.12a11.18,11.18,0,0,1,10.55,7.73c1.77,4.73.66,9.71-3.71,12.65-3.2,2.16-2.75,3.9-1.1,6.46s3,5.2,4.49,7.81c1.1,2,.41,2.93-1.8,3.09-4.18.31-8,.31-9.48-4.81-.83-2.81-2.7-5.34-4.07-8a2.49,2.49,0,0,0-2.74-1.47c-1.7.2-1.4,1.44-1.42,2.49,0,3,0,6,0,9,0,3.66-2.75,2.73-4.85,2.82s-4.34.41-4.27-2.86C248.27,696.61,248.19,691.25,248.19,685.9Z"/><path class="cls-2" d="M201.73,685.79c0-5,.11-10.06,0-15.09-.08-2.59.74-3.67,3.57-3.6,6,.16,12,.22,18,0,3.69-.14,3.73,1.8,3.74,4.43s-.16,4.31-3.55,4c-3.06-.24-6.16.07-9.23-.09-2.37-.12-3.52.36-3.43,3s1,3.37,3.48,3.17c1.61-.13,3.24,0,4.86,0,5.21,0,5.63.63,5.1,5.77-.19,1.82-.86,2.5-2.67,2.45-2.26-.07-4.55.15-6.8-.06-2.87-.26-4,.54-4,3.58s1.66,3.18,4,3.1,4.86.09,7.28,0c3.07-.17,5,0,5.1,4.06.06,4.3-2,4.46-5.31,4.37-5.5-.15-11-.17-16.51,0-2.81.09-3.67-.89-3.58-3.52C201.85,696.17,201.73,691,201.73,685.79Z"/><path class="cls-2" d="M349.68,685.7c0-5,.07-10.09,0-15.13-.05-2.25.39-3.52,3.15-3.46,6.33.14,12.66.12,19,0,3.61-.06,2.71,2.43,2.7,4.27s.92,4.36-2.75,4.16c-3.23-.18-6.49,0-9.74-.07-2.26-.07-3.54.26-3.48,3,.06,2.54.94,3.38,3.42,3.2,1.77-.14,3.6.18,5.35-.07,4.37-.62,5.1,1.47,4.91,5.14-.14,2.6-1.13,3.27-3.51,3.13-2.11-.12-4.23.09-6.33,0-2.52-.17-3.85.33-3.84,3.26,0,2.76.95,3.61,3.65,3.42s5.22.19,7.79-.1c3.64-.41,4.74.83,4.72,4.41s-1.3,4.22-4.56,4.07a143.4,143.4,0,0,0-16.06,0c-3.88.25-4.64-1.2-4.44-4.57C349.89,695.48,349.68,690.58,349.68,685.7Z"/><path class="cls-2" d="M920.11,704.83c-1.85-.14-4.34.71-5-1.74-1.39-5.26-5.6-3.72-9-3.72s-7.66-1.58-9,3.8c-.4,1.65-7.46,2.45-8.87,1.3-1-.8-.53-1.65-.11-2.52q7.88-16.44,15.74-32.9c.5-1,1.11-2,2.4-2.07,1.69-.05,2,1.49,2.48,2.54,4.9,10.09,9.8,20.17,14.58,30.31C925.58,704.54,925.31,704.83,920.11,704.83Z"/><path class="cls-2" d="M812.57,704.72c-3.08.56-5.25-.11-6.09-3.24-.47-1.79-1.86-2.29-3.72-2.2a81.67,81.67,0,0,1-8.28,0c-2.38-.13-3.87.4-4.69,2.91-.77,2.32-7.25,3.76-9.21,2.39-1.33-.93-.6-2-.17-3q7.73-16.27,15.53-32.5a3.21,3.21,0,0,1,2.38-2.16c1.74-.19,2,1.39,2.48,2.45,5,10.23,9.82,20.52,14.86,30.72C817.49,703.84,817.1,705.61,812.57,704.72Z"/><path class="cls-2" d="M455.52,699.35c-4.59-.05-8.22-.86-10.17,4.16-1.12,2.85-5.55,1.76-8,1-2.57-.85-.23-3.25.44-4.69,4.51-9.73,9.2-19.39,13.87-29,.73-1.51,1.16-3.7,3.3-3.65s2.27,2.35,3,3.83c4.71,9.65,9.43,19.29,14,29,.64,1.36,2.69,3.67.48,4.43-2.61.89-7.18,2.09-8.31-1C462.18,698.08,458.3,699.56,455.52,699.35Z"/><path class="cls-2" d="M168.47,666.87a14.92,14.92,0,0,1,9.74,2.41c1.46,1,4.86,1.75,2.91,4.31-1.61,2.12-3,5.82-7.56,3.35-6.12-3.28-12-1.23-14.61,4.45A9.85,9.85,0,0,0,161,693.17c3.22,3.28,7.49,4.49,11.49,2,4.7-2.93,6.3.72,8.54,3,1.89,1.91-.48,2.72-1.57,3.56-7.77,6-20.44,4.28-27.05-3.63a19,19,0,0,1,2.62-26.75A18.27,18.27,0,0,1,168.47,666.87Z"/><path class="cls-2" d="M406.93,675.51a74.51,74.51,0,0,0-7.68,0c-3.64.39-4.69-.89-4.73-4.45s1.65-4.08,4.7-4c5.82.14,11.66.18,17.49,0,3.75-.11,4.21,1.31,2.73,4.2q-5.07,9.9-10.1,19.82c-.77,1.52-1.48,3.06-2.42,5a62.67,62.67,0,0,0,7.05,0c4.82-.57,5.81,1.78,5.44,5.82-.2,2.2-.94,3-3.24,2.94-6.31-.12-12.64-.21-18.95,0-4.28.15-4.83-1.54-3.15-4.76,3.6-6.85,7.27-13.66,10.89-20.5C405.6,678.42,406.15,677.16,406.93,675.51Z"/><path class="cls-2" d="M714.57,686.62c2.81-5.79,5.47-10.8,7.69-16,2-4.67,6-3.81,9.45-3.25,2.89.46,1.16,2.74.51,4.1-3.73,7.83-7.6,15.6-11.39,23.4-1.38,2.84-2.54,5.78-4,8.57-1.22,2.33-2.88,2.61-4.14,0q-8.05-16.61-16-33.29c-.92-1.93-.1-2.77,2.08-3.07,4.56-.63,7.7.58,9.41,5.1S712.22,681.37,714.57,686.62Z"/><path class="cls-2" d="M312.26,686.43c2.77-5.7,5.16-10.83,7.75-15.86,1.6-3.1,6.32-4.66,9.44-3.28,2.66,1.18,1,3,.32,4.31-4.36,9.1-8.73,18.2-13.34,27.19-1.14,2.24-1,6.29-4.21,6.17-2.84-.11-3.21-3.94-4.34-6.23q-6.3-12.74-12.16-25.65c-.78-1.71-3.64-4.38-.54-5.49,2.69-1,6.91-2.16,9,1.88,2.29,4.49,4.28,9.12,6.42,13.68C311,684,311.43,684.83,312.26,686.43Z"/><path class="cls-2" d="M625.57,686.11c0-5.19.15-10.39-.05-15.57-.14-3.62,2.07-3.59,4.71-3.58s4.88,0,4.81,3.55c-.13,7.24.19,14.49-.14,21.71-.16,3.69,1.14,4.76,4.65,4.28,1.43-.2,2.94.15,4.36-.07,4.24-.63,5.19,1.27,5,5-.14,2.76-1.15,3.48-3.78,3.41-5.19-.14-10.39-.22-15.56,0-3.36.16-4.16-1.2-4.05-4.15C625.71,695.87,625.57,691,625.57,686.11Z"/><path class="cls-2" d="M668.28,685.66c0-5,.19-10.07-.06-15.09-.18-3.59,1.88-3.68,4.57-3.61,2.47.07,4.87-.37,4.82,3.39q-.23,15.55,0,31.13c0,3.75-2.34,3.31-4.82,3.38-2.72.08-4.74-.07-4.57-3.63C668.47,696.05,668.28,690.85,668.28,685.66Z"/><path class="cls-2" d="M752.08,685.83c0-5,.2-10.08-.07-15.1-.18-3.39,1.43-3.93,4.35-3.78,2.52.13,4.79-.26,4.72,3.48q-.29,15.55,0,31.13c.06,3.9-2.51,3.15-4.88,3.29-2.63.16-4.31-.21-4.17-3.46C752.25,696.21,752.08,691,752.08,685.83Z"/><path class="cls-1" d="M86.6,488c0-9.45.14-18.9,0-28.34-.09-4.18,1.77-6,5.87-6.46a90.08,90.08,0,0,1,24.65.79c11.66,1.91,17.7,9.16,20,19.79a60.27,60.27,0,0,1-.1,24.41c-2,10.38-12.91,19.63-24.59,21.31-7.58,1.08-15.21.64-22.82.84-3,.08-3-1.45-3-3.52C86.63,507.18,86.6,497.58,86.6,488Z"/><path class="cls-1" d="M934.48,537.24l21.35-50.16c.31-.72.61-1.59,1.52-1.63,1.18-.06,1.63,1,2,1.82,5,11.77,10.1,23.49,14.8,35.38,1.82,4.62-.32,8.13-5.49,10.62-5.63,2.71-11.81,3.43-17.93,3.89C945.56,537.55,940.35,537.24,934.48,537.24Z"/><path class="cls-1" d="M216.49,537.31c6.1-14.33,11.95-28.06,17.81-41.79.92-2.17,1.72-4.4,2.8-6.5.66-1.29.55-3.61,2.56-3.49,1.81.12,2,2.31,2.54,3.68q6.47,14.94,12.77,30c3.49,8.29,1.52,12.49-7.45,15.34C237.68,537.64,227.49,537.67,216.49,537.31Z"/><path class="cls-1" d="M595.37,685.69a10.47,10.47,0,0,1-20.93.5,10.7,10.7,0,0,1,10.27-10.51A10.43,10.43,0,0,1,595.37,685.69Z"/><path class="cls-1" d="M532,696.47c-2.5.43-3.76-.35-3.64-3.2.09-2.31.16-3.85,3.3-3.68,2.81.15,4.91.84,4.86,3.84C536.47,696,534.5,696.73,532,696.47Z"/><path class="cls-1" d="M531.39,675.52c2.47-.24,4.33.32,4.37,3,0,2.91-2,3.41-4.49,3.63s-3-.93-2.89-3S528.13,674.89,531.39,675.52Z"/><path class="cls-1" d="M262.22,682.9c-2.79.24-5.09.45-5.13-3.81,0-4.48,2.6-3.75,5.29-3.76,2.92,0,6.39-.49,6.31,3.76C268.61,683.12,265.38,683.11,262.22,682.9Z"/><path class="cls-1" d="M906.16,684.62c1.13,2.22,3.65,4.18,2.1,6.59-.45.69-4.11.59-4.39,0C902.65,688.7,905.3,687,906.16,684.62Z"/><path class="cls-1" d="M794.92,691.33c1.14-2.53,2.09-4.64,3.25-7.19,1.93,2.25,2.41,4.59,3.24,6.91C799.38,691.84,797.51,691.46,794.92,691.33Z"/><path class="cls-1" d="M458,691.09c-2.27.47-5,1.22-5.7-.19-1-2.14,1.39-4.06,2.66-7.36C456.28,686.8,457.11,688.86,458,691.09Z"/></svg>