<svg id="Capa_1" data-name="Capa 1" xmlns="http://www.w3.org/2000/svg" viewBox="0 0 1080 1080"><defs><style>.cls-1{fill:#141414;}.cls-2{fill:#e0e0e0;}</style></defs><rect class="cls-1" width="1080" height="1080"/><path class="cls-2" d="M959.33,688.13h-.58c-.3.38-.84.22-1.15.58h-.55a.8.8,0,0,0-1.21,0h-.55c-.33.35-.74.29-1.14.3-.77.12-1.61-.28-2.33.31h-.52c-.31.35-.84.22-1.14.58l-.64,0a1.31,1.31,0,0,0-1.75,0l-.45,0c-.51.53-1.31.08-1.83.6l-.5,0a1.4,1.4,0,0,0-1.79,0l-.69,0c-.43.55-1.18,0-1.62.56l-1.12,0a1.4,1.4,0,0,0-1.8,0h-1.1c-.66.63-1.58,0-2.26.56l-.75,0a2.07,2.07,0,0,0-2.31,0l-1.64,0c-.87.73-2-.07-2.9.59l-1.71,0a1.68,1.68,0,0,0-1-.31.94.94,0,0,1,.87.42,4.39,4.39,0,0,1-3.54.32,11.33,11.33,0,0,0-2.76-.43c-1.36.65-2.8.16-4.2.31H903.44c-1.22-.13-2.47.28-3.65-.28a11.81,11.81,0,0,0-3.12.44c-1.12.19-2.29.41-3.31-.46a1,1,0,0,1,.72-.31,1.14,1.14,0,0,0-.74.28l-1.25,0c-.88-.65-2,.14-2.88-.59h-1.12a2.19,2.19,0,0,0-2.37,0l-1.11,0c-.48-.54-1.27,0-1.75-.6l-1,0a1.38,1.38,0,0,0-1.79,0l-.65,0c-.45-.53-1.21,0-1.65-.56l-.64,0c-.73-.59-1.57-.17-2.36-.3a1.5,1.5,0,0,1-1.15-.31l-.46,0-.31,0h-.6l-.3,0-.62-.09c-.32-.35-.86-.23-1.19-.58h-.48a.84.84,0,0,0-1.25,0l-.55,0c-.35-.36-.88-.26-1.23-.59l-.36,0a8.46,8.46,0,0,1-2.55-.64,2.34,2.34,0,0,1-.38,0,9.86,9.86,0,0,1-2.55-.65l-.36.07-.34-.1a3.48,3.48,0,0,0-.68-.25c-.47-.05-1,.07-1.36-.33l0,0c-.66-.7-1.67.05-2.35-.63l0,0c-.67-.71-1.69,0-2.37-.64h0c-.67-.69-1.69.06-2.36-.63l.05,0c-.47-.59-1.3-.06-1.78-.64l0,0c-1.33-.52-2.75-.73-4.08-1.25l0,0c-.47-.59-1.3-.06-1.77-.63l0,0c-1.49-.81-3.17-1.08-4.66-1.87l0,0c-.36-.39-.94-.3-1.32-.64l-.31,0c-.37-.36-1-.27-1.32-.66l0,0c-.36-.4-.93-.3-1.31-.64l-.32,0c-.37-.37-.95-.27-1.32-.66l0,0c-1.36-.62-2.71-1.27-4.08-1.86h0c-.32-.38-.87-.28-1.2-.64l0,0c-.32-.37-.87-.27-1.2-.64l0,0c-.33-.38-.88-.28-1.2-.64l0,0c-.32-.37-.87-.27-1.2-.64l0,0c-.32-.38-.87-.28-1.2-.65l0,0c-.32-.37-.87-.28-1.2-.64l0,0c-.88-.78-2-1.1-2.91-1.86l0,0c-.33-.38-.88-.28-1.21-.65l0,0c-.55-.47-1.2-.79-1.76-1.25l0,0a.37.37,0,0,0-.62,0l-.52-.47a15.6,15.6,0,0,0-1.78-1.37l0,0c-.55-.47-1.2-.79-1.76-1.25l0,0c-.81-.57-1.51-1.31-2.33-1.87l0,0c-.55-.47-1.2-.79-1.76-1.25l0,0-.61-.66,0,0c-.81-.57-1.51-1.3-2.33-1.86l0,0c-.2-.22-.4-.44-.61-.65l0,0c-.82-.57-1.51-1.31-2.34-1.87l0,0-.62-.66,0,0a2.86,2.86,0,0,0-.8-.67l-.94-.4,0-.34a3.33,3.33,0,0,0-.62-.83c-2.47-2.79-5.25-5.24-7.48-8.26l0,0-.61-.66,0,0-.62-.66,0,0c-.65-1.15-1.68-2-2.33-3.1l0,0c-.65-1.15-1.68-2-2.33-3.1h0c-1-1.39-1.86-2.93-2.9-4.32h0c-.44-.59-.74-1.28-1.18-1.87l0,0c-.43-.6-.73-1.29-1.17-1.88v0c-.34-.34-.23-.92-.59-1.25l0,0c-1.24-1.47-1.88-3.34-2.91-5l0,0a10.8,10.8,0,0,1-1.18-2.5l0,0-.61-.65,0,0c-2.14-4.51-3.72-9.31-6.33-13.57,0-.17,0-.34,0-.52.32-1.19-.38-1.88-1.11-2.56,0-.18,0-.36,0-.53-.7-4.26-2.48-8.16-3.62-12.27a28.28,28.28,0,0,0-1.21-4.53c-.12-.39-.08-.85-.39-1.17l-.55-1.85a.35.35,0,0,0,.12-.4c-.05-.13-.1-.19-.14-.19a4.19,4.19,0,0,1,0-.5c0-.51-.34-1-.28-1.49-.28-1.66-.39-3.38-1.4-4.8,0-.17,0-.33,0-.49.61-1,0-1.8-.52-2.57,0-.22,0-.44,0-.66a.77.77,0,0,0,0-1.06l-.59-2a.86.86,0,0,0,0-1.2,4.36,4.36,0,0,1,0-.51,1.82,1.82,0,0,0-.53-1.39c0-.19,0-.39,0-.58a.86.86,0,0,0,0-1.2c0-.17,0-.35,0-.53,0-.49,0-1,0-1.46a5,5,0,0,1,0-.55c-.51-.46,0-1.25-.52-1.72,0-.21,0-.41,0-.62a3.17,3.17,0,0,0-.5-1.88l0-.67a1.56,1.56,0,0,0,0-1.73l-.06-.64c0-.66,0-1.31,0-2v-.67c-.58-.66,0-1.63-.51-2.3l0-.62c0-.87,0-1.73,0-2.6-.17-.4-.34-.79-.52-1.19a2.61,2.61,0,0,0,0-2.4l0-1.28c0-1.25,0-2.5,0-3.76l-.52-1.77a7.39,7.39,0,0,0,0-4.32c0-1,0-2.07,0-3.11,0-6.39-.05-12.77,0-19.16v-3.2c.64-1.45-.15-3.06.47-4.51l0-1.45c0-1.24.21-2.48,0-3.72,0-.27,0-.54,0-.81.58-.87-.14-2,.52-2.86l-.53-1.24a6.08,6.08,0,0,0,.82-3.69,1.74,1.74,0,0,1,.27-1.22c0-.2,0-.4,0-.6a10.55,10.55,0,0,1,.3-2.91c0-.41,0-.82,0-1.23-.12-.95.32-1.83.29-2.77v-.52a1.64,1.64,0,0,0,0-1.87,5.61,5.61,0,0,0,0-.58,3.5,3.5,0,0,0,.81-1.66c0-.49.12-1-.23-1.43v-.6c.21-.24.59-.35.54-.79v-.4a28.23,28.23,0,0,0,.87-4.28,4.84,4.84,0,0,1,.1-1.32c.48-1.64,1.09-3.26.78-5,0-.17,0-.33,0-.5.6-.51,1.14-1,.54-1.92l0-.55c.62-.5,1.14-1,.55-1.92,0-.19,0-.39,0-.58.69-.49,1.06-1.07.53-1.93l0-.47a3.93,3.93,0,0,0,1.12-3.81,4.07,4.07,0,0,0,0-.5c1.89-2.85,2.12-6.39,3.45-9.47l0-.26a7.14,7.14,0,0,0,1.19-3.92l.41-.52a40.12,40.12,0,0,0,1.89-4.36v0c.83-2.32,2.08-4.45,2.9-6.79v0c.35-.34.25-.92.6-1.26h0a3.08,3.08,0,0,0,.59-.79l0-.33c.91-1.4,1.39-3,2.33-4.43v0c.35-.34.25-.92.6-1.27l0,0c.44-.59.75-1.28,1.17-1.88v0c.35-.33.25-.91.59-1.25v0c.44-.59.74-1.28,1.17-1.88l0,0c.44-.59.75-1.28,1.18-1.88h0c.44-.57.73-1.25,1.16-1.84v0c.44-.59.74-1.28,1.17-1.87l0,0,.62-.66,0,0c.44-.58.74-1.27,1.17-1.87l0,0c.21-.22.42-.44.62-.67l0,0c.45-.59.74-1.28,1.18-1.87l0,0c.21-.22.42-.44.62-.67l0,0c.21-.21.42-.43.61-.66l0,0c.54-.86,1.22-1.61,1.75-2.48l0,0,.63-.66,0,0,.62-.66,0,0,.61-.65,0,0c2.84-3.64,6.19-6.75,9.28-10.12a1.4,1.4,0,0,1,.31-.33,2.26,2.26,0,0,0,.86-.65l0,0c.21-.22.42-.44.62-.67l0,0c.21-.21.41-.42.61-.64l0,0c.55-.46,1.21-.78,1.76-1.26l0,0L806,382l0,0c.21-.21.41-.42.61-.64l0,0c.56-.47,1.21-.79,1.76-1.26l0,0c.21-.21.41-.43.62-.65l0,0c.56-.46,1.2-.77,1.75-1.24l0,0,.63-.67,0,0c.32-.37.86-.26,1.18-.64l0,0c.21-.21.41-.43.62-.65l0,0c.56-.46,1.21-.78,1.76-1.25h0c.56-.46,1.21-.78,1.77-1.25l0,0c.32-.37.87-.26,1.18-.64l0,0c.21-.21.4-.42.6-.64l0,0c.32-.37.87-.26,1.18-.63l0,0c.33-.37.87-.26,1.19-.64l0,0c.22-.21.43-.44.63-.66l0,0c.33-.36.87-.26,1.19-.63l0,0c.33-.36.88-.26,1.2-.64l0,0c.33-.37.88-.27,1.2-.65h0c.32-.36.86-.24,1.16-.62h0c.32-.36.86-.25,1.17-.63l0,0c.32-.36.87-.25,1.18-.63h0c.32-.36.87-.25,1.18-.63l0,0c.31-.36.85-.25,1.16-.63l0,0c.33-.36.88-.26,1.2-.64l0,0c.33-.36.88-.26,1.21-.64l0,0c.32-.36.87-.26,1.19-.64l0,0c.35-.38.92-.28,1.28-.65l.37,0c.37-.36.94-.25,1.29-.65l0,0c.33-.36.88-.26,1.2-.64l0,0c.47-.58,1.3,0,1.77-.64l0,0c.48-.57,1.3,0,1.77-.63h0c.45-.46,1.19-.18,1.61-.73.4-.28,1-.09,1.32-.51h0c.48-.57,1.3,0,1.77-.63l0,0c.47-.58,1.3,0,1.77-.63l0,0c.44-.45,1-.27,1.51-.34.76-.63,1.79-.4,2.58-.91h0c.48-.57,1.3,0,1.77-.63h0c.67-.68,1.68.08,2.34-.63h0c.68-.67,1.69.07,2.36-.62h0c.2-.21.42-.4.62-.6l1.63,0c.71-.67,1.74.08,2.44-.63l.42,0c.72-.68,1.75.06,2.46-.64l-.06,0c.88-.76,2.08.14,3-.64H869a5.26,5.26,0,0,0,.67-.58l.56,0a.79.79,0,0,0,1.19-.05l.49,0c.36-.34.9-.21,1.25-.58l.51,0a1.34,1.34,0,0,0,1.69,0l.57-.05a.92.92,0,0,1,1.23,0l.58,0c.44-.55,1.21,0,1.66-.57l.66-.06c.45-.53,1.21,0,1.66-.54h.71a1.33,1.33,0,0,0,1.69-.06l1.13,0c.51-.52,1.31,0,1.8-.58l1.64,0a2.18,2.18,0,0,0,2.23,0l1.31-.07c.86-.7,2,.12,2.84-.57.78,0,1.55.44,2.32,0,.76.53,1.61.17,2.42.28.93-.14,1.93.31,2.82-.3l5.3-.07.36,0c1.1,0,2.19,0,3.29,0h.36l4.62,0c1,.59,2,.15,3,.29s1.81-.24,2.66.27l1.84-.54a2.26,2.26,0,0,0,.53.44,7.57,7.57,0,0,0,2.07.13H927l1.1,0a2.25,2.25,0,0,0,2.36,0l1.2,0c.64.57,1.54-.07,2.17.53l.7.07a1.37,1.37,0,0,0,1.71,0h1.11c.33.37.87.24,1.21.58h1c1.11.82,2.51-.16,3.63.63h.45c.32.38.87.23,1.19.6l.56,0a.93.93,0,0,1,1.25,0,3.85,3.85,0,0,1,.48,0,.82.82,0,0,0,1.2,0l.53,0a6,6,0,0,0,.67.58h.49c.88.78,2.07-.12,3,.64l0,0a.81.81,0,0,0,1.21,0l.52,0a6.24,6.24,0,0,0,.68.59h.47c.67.71,1.7-.05,2.38.64l-.05,0c.67.7,1.69-.05,2.36.64l0,0c.67.71,1.69,0,2.36.64l0,0a.39.39,0,0,0,.62.05l.53,0a4.65,4.65,0,0,0,.72.61l.36,0c.51.57,1.34.08,1.86.64h0c.47.58,1.29.05,1.77.63l0,0c.47.59,1.3.06,1.78.64l-.05,0c.48.59,1.31.07,1.79.64l-.05,0c.48.59,1.31.06,1.79.64l0,0c.46.59,1.29.06,1.76.63l0,0c.47.59,1.3.06,1.78.64l0,0c.32.37.87.27,1.19.63h0c.47.59,1.29.05,1.77.63l0,0c.32.38.87.27,1.2.64l0,0c.36.39.93.29,1.31.64l.33,0c.37.37.94.27,1.3.65l0,0c.32.38.87.27,1.19.64l0,0c.33.38.88.28,1.21.64l0,0c.32.37.87.27,1.2.64l0,0c.32.37.87.27,1.19.63l0,0c.33.38.87.27,1.2.64l0,0c.32.37.87.27,1.2.64l0,0c.31.37.86.26,1.18.62h0c.32.38.86.27,1.18.64l0,0c.32.38.87.27,1.2.64l0,0,.64.66,0,0c.31.38.85.26,1.17.62h0c.32.38.87.28,1.2.64l0,0c.56.47,1.21.8,1.77,1.25l0,0c.55.47,1.2.79,1.76,1.25l0,0c.31.38.86.27,1.18.64l0,0,.63.66,0,0c.32.37.87.26,1.19.63l0,0,.63.67,0,0c.56.47,1.2.79,1.76,1.25l0,0,.62.66,0,0c.55.47,1.2.79,1.76,1.25l0,0,.63.67,0,0c.81.58,1.51,1.31,2.34,1.87l-.05,0,.63.66,0,0,.62.66,0,0c1.07.71,1.84,1.8,2.92,2.49l0,0,.6.63,0,0,.62.66,0,0,.62.66,0,0c.21.22.41.44.62.65l0,0,.61.66,0,0,.61.66,0-.05.61.66,0,0c.2.22.4.44.61.65l0,0,.62.66h0a10.08,10.08,0,0,0,1.87,2.28,11.78,11.78,0,0,1,1.61,2l0,0,.62.66,0,0,.59.63h0c.52.87,1.21,1.61,1.75,2.48l0,0,.6.63,0,0c.44.6.73,1.29,1.18,1.87l0,0c.2.23.41.45.61.67l0,0c1.62,1.6-.15,2.62-.59,3.86l-.94.44a3.13,3.13,0,0,0-.8.66l0,0-.62.66,0,0-.62.66,0,0-.62.66h0a33.59,33.59,0,0,0-4.08,4c-.19.24-.51.39-.54.78,0,.1,0,.2,0,.31l-.93.41a2.67,2.67,0,0,0-.8.66l0,0-.62.66,0,0c-.21.22-.42.43-.62.65l0,0-.62.66h0c-2,1.46-3.44,3.49-5.23,5.16a1.41,1.41,0,0,1-.35.34,3,3,0,0,0-.81.67l0,0-.62.66,0,0c-.21.21-.41.43-.61.65l0,0c-.82.57-1.52,1.3-2.34,1.88l0,0a27.68,27.68,0,0,1-3.52,4,1.37,1.37,0,0,1-.35.33,2.86,2.86,0,0,0-.8.67l0,0c-.21.21-.42.43-.62.65l0,0-.62.66,0,0a19.42,19.42,0,0,0-4.64,5.08L996,438a3.21,3.21,0,0,0-.81.66l0,0c-.21.21-.41.43-.62.65l0,0-.61.66,0,0c-.21.21-.42.43-.62.65h0a32.8,32.8,0,0,0-4.07,4c-.2.24-.52.39-.54.78,0,.1,0,.21,0,.31l-.93.41a2.59,2.59,0,0,0-.81.66l0,0-.62.66,0,0c-.21.22-.42.43-.62.66l0,0c-1.37.23-1.66-1.08-2.34-1.85l0,0-.61-.65,0,0c-.79-1.4-2.12-2.32-2.92-3.72l0,0-.62-.66,0,0-.62-.66,0,.05-.61-.66,0,0-.62-.66,0,0c-.2-.22-.41-.44-.62-.65l0,0-.61-.66,0,0-.61-.65,0,0-.62-.66,0,0-.61-.66,0,0c-.21-.22-.41-.44-.62-.65l0,0-.62-.66,0,0c-.2-.22-.4-.43-.61-.64l0,0c-.28-.27-.66-.39-.93-.68a10.4,10.4,0,0,0-2-1.81l0,0-.61-.65,0,0c-.81-.57-1.5-1.31-2.33-1.86h0c-.55-.47-1.2-.79-1.76-1.25l0,0c-.56-.47-1.2-.79-1.77-1.25l0,0c-.55-.47-1.2-.79-1.76-1.25h0c-.31-.38-.86-.27-1.17-.63l0,0c-.89-.78-2-1.1-2.93-1.87l0,0c-.32-.38-.87-.28-1.2-.65l0,0c-.31-.38-.86-.28-1.19-.64l0,0c-1.36-.62-2.72-1.26-4.09-1.86l0,0c-.36-.4-.93-.3-1.31-.65l-.28,0c-1-.51-2.11-.71-3.09-1.27l0,0c-1.34-.52-2.75-.73-4.09-1.24l0,0c-.39-.42-.9-.3-1.37-.33h-.66a2.17,2.17,0,0,1-.6-.22l-.32,0-.53-.05c-.32-.37-.87-.25-1.2-.62l0,0c-.64-.57-1.4-.22-2.1-.32l-.69,0a3.7,3.7,0,0,0-1-.24h-.33l-.56-.06c-.34-.39-.9-.26-1.25-.61l-.45.06-.3,0h-.61l-.3,0-1.13-.06c-.33-.38-.88-.23-1.21-.6l-1,0a1.37,1.37,0,0,0-1.79,0L925,414c-.82-.58-1.88.16-2.68-.52-1.74.36-3.48,1.14-5.24.1,0-.11.1-.22.14-.33.37-.07-.16,0,.22-.07,0,0,0,0-.06,0a1.15,1.15,0,0,0-.86.26H915.3a24.53,24.53,0,0,0-8,0l-1.2,0a5.91,5.91,0,0,0-4,0l-1.66,0c-.66.65-1.59,0-2.27.58l-1.18.06a1.37,1.37,0,0,0-1.75,0l-.72.05c-.45.56-1.24,0-1.7.59l-.46,0c-.41-.29-.83-.47-1.25,0l-.62,0c-.3.32-.69.27-1.07.28-.61.09-1.27-.22-1.81.32H887a1.2,1.2,0,0,1-1,.3c-.46,0-1-.09-1.34.32l0,0c-.88.76-2.07-.13-2.94.64l0,0c-1.33.51-2.75.72-4.08,1.25l0,0c-.55.45-1.28.33-1.87.64l-1.36.58c-.6.49-1.46.09-2,.65l0,0c-.22.24-.65.28-.62.76l-1.06.48a.85.85,0,0,0-1.26,0l0,0c-.33.36-.88.26-1.2.64h0c-.33.36-.86.25-1.18.62l0,0a15.11,15.11,0,0,0-3.5,1.87h0c-.32.37-.87.25-1.18.63h0c-.89.76-2,1.08-2.91,1.86l0,0c-.56.46-1.21.78-1.76,1.25h0c-.82.55-1.52,1.29-2.34,1.86l0,0c-.82.56-1.52,1.3-2.33,1.87l0,0-.61.65,0,0-.62.66,0-.05-.62.66,0,0c-.56.46-1.21.78-1.76,1.26l0,0c-.22.21-.42.43-.62.66l0,0c-.54.87-1.23,1.62-1.76,2.5l0,0-.61.65,0,0-.61.65,0,0c-.66,1.13-1.69,1.95-2.33,3.1v0a73.35,73.35,0,0,0-5.23,8.65l0,0c-1.67,3.19-3.47,6.31-4.08,10,0,.17,0,.34,0,.52-1.52,1.33-1.69,3.36-2.18,5.15-1.2,4.42-2.89,8.72-3,13.42,0,.17,0,.35,0,.52-1.39,2.7-1.15,5.76-1.69,8.65l0,.63c-.48.56-.13,1.29-.35,1.91a7.56,7.56,0,0,0-.2,2.42l-.05.65a1.54,1.54,0,0,0,0,1.75l-.52,1.15c0,.86,0,1.71,0,2.57,0,.41,0,.83,0,1.25a2.53,2.53,0,0,0,0,2.42c-.17.59-.34,1.18-.52,1.77,0,1.47,0,2.94,0,4.41l-.06,2c-.48,1.7-.1,3.44-.22,5.16.16,4.17-.34,8.35.28,12.5l0,3.75c.07,1.44-.32,2.95.56,4.28-.17.62-.35,1.25-.53,1.87.66.86-.05,2,.52,2.87,0,.27,0,.53,0,.8-.29,1,.17,2.07,0,3.11l0,.62c.52.47,0,1.3.55,1.77v1.23c0,.64,0,1.29,0,1.94,0,.2,0,.4,0,.61a1.63,1.63,0,0,1,.26,1.2c-.08.87.33,1.67.32,2.53a3.44,3.44,0,0,1,0,.46c.52,1,.14,2.32,1.1,3.13,0,.19,0,.37.05.56a1.84,1.84,0,0,0,.55,2.58c0,.16,0,.32,0,.48a1.85,1.85,0,0,0,.55,2.58l0,.57c-.71.91.29,1.58.3,2.39a66.55,66.55,0,0,0,2.05,8.15l0,0c.54.51,0,1.38.59,1.89v0c.78,2.06,1.41,4.19,2.33,6.2v0a51.65,51.65,0,0,0,3.48,7.41v0c.34.34.24.93.6,1.27l0,0c.42.6.73,1.28,1.17,1.87v0c.34.34.24.93.59,1.26l0,0c.2.23.41.45.62.67l0,0c.43.6.74,1.29,1.18,1.88l0,0c.43.59.73,1.28,1.18,1.87l0,0c.2.23.4.45.61.66l0,0c.21.22.42.44.62.67l0,0a30.1,30.1,0,0,0,2.5,3.11,1,1,0,0,1,.37.36,1.63,1.63,0,0,0,.87.88l.88,1a22.58,22.58,0,0,0,2.93,2.69h0q.28.32.6.63l0,0,.62.65,0,0c.55.48,1.2.8,1.76,1.26l0,0c.2.22.4.44.62.65l0,0c.31.38.86.27,1.18.64l0,0,.63.66,0,0c.32.38.87.27,1.19.64l0,0c.55.48,1.2.8,1.76,1.25l0,0c.31.38.86.27,1.18.63h0c.33.37.88.27,1.2.64l0,0c.32.38.87.28,1.2.64l0,0c.32.38.87.27,1.19.64l0,0c.31.38.86.27,1.18.64l0,0c.32.37.87.28,1.2.64l0,0c.47.59,1.29.06,1.76.63l0,0c.32.38.86.28,1.19.64l0,0c.47.6,1.31.07,1.79.65l0,0c.47.6,1.3.07,1.78.64l0,0c.47.59,1.3.06,1.77.64l0,0c.51.6,1.34.08,1.85.64l.38,0c.52.58,1.36.08,1.88.65l0,0c.72.69,1.76,0,2.49.64l.28,0c.27.24.54.31.82,0l.46,0c.33.35.88.23,1.21.6l0,0a.85.85,0,0,0,1.26,0l.52,0c.37.36.91.27,1.29.59h.45c.39.41.78.31,1.18,0l1.07,0c.32.36.86.21,1.18.57l.69.07a1.27,1.27,0,0,0,1.62,0l.78,0c.47.43,1.17,0,1.62.52l1.2.06a2.2,2.2,0,0,0,2.27,0h1.74a2.26,2.26,0,0,0,.57.46,12.36,12.36,0,0,0,2.58.11h.37l2.84,0a27.18,27.18,0,0,0,8.54,0l1.85,0h.36a10.49,10.49,0,0,0,2.5-.12,2.31,2.31,0,0,0,.54-.45H924a2.18,2.18,0,0,0,2.26,0l1.15-.05c.5-.48,1.25-.08,1.76-.55l1.22,0a.8.8,0,0,0,1.18,0l1.09,0c.35-.34.9-.2,1.23-.58H935c.38.28.75.4,1.13,0l.65-.07c.32-.36.87-.21,1.19-.58l1.07,0c.38.28.76.41,1.14,0,.18,0,.36,0,.55,0,.35-.35.89-.23,1.24-.58l.51-.05a.84.84,0,0,0,1.26,0l0,0c.87-.75,2.06.14,2.94-.63l0,0c.87-.76,2.06.14,2.93-.64l0,0c.67-.68,1.68.07,2.35-.63l-.05,0c.68-.69,1.7.06,2.37-.64l0,0c.67-.68,1.69.07,2.36-.64l-.05,0c.52-.57,1.36-.08,1.89-.65l.35,0c.51-.55,1.34,0,1.85-.63h0c.48-.57,1.3,0,1.77-.63h0c.36-.38.93-.28,1.3-.63l.35,0c1-.47,1-1.4,1-2.34q0-27.18,0-54.35c0-.6.09-1.27-.66-1.5-18.35-.09-36.69,0-55-.05a8.11,8.11,0,0,1-3.14-.21c-.68-.89-.48-2-.49-3q0-27.9,0-55.8a4.8,4.8,0,0,1,.45-3,5.66,5.66,0,0,1,2.85-.26h119.48c.94,0,1.93-.27,2.83.31q0,78,0,156c0,1.75,0,3.49,0,5.24a21.45,21.45,0,0,1-1.78,1.36l0,0a17.72,17.72,0,0,0-1.78,1.35l-.52.48a.38.38,0,0,0-.63,0l0,0c-.56.45-1.2.78-1.76,1.24l0,0c-.33.37-.88.27-1.21.65l0,0c-1.26,1-2.83,1.45-4.09,2.48l0,0c-.31.37-.86.25-1.17.63h0c-.32.37-.87.26-1.19.64l0,0c-.33.37-.87.27-1.2.64h0c-.33.36-.87.26-1.19.63l0,0-4.08,1.87,0,0c-.33.37-.88.27-1.2.64h0c-.93.54-2,.69-2.92,1.25l.05,0c-.23.23-.66.28-.63.75l-1.08.48a.83.83,0,0,0-1.24,0l0,0c-1,.55-2.07.74-3,1.26a2.07,2.07,0,0,1-.35,0c-.36.35-.93.24-1.28.64l0,0c-.48.57-1.3,0-1.77.63l0,0c-.48.58-1.31.05-1.78.64l0,0c-.48.57-1.3,0-1.77.63l0,0c-.47.58-1.3,0-1.77.64l0,0c-.48.57-1.3,0-1.77.63h0c-.47.57-1.3,0-1.77.63l0,0a39.88,39.88,0,0,0-4,1.33c-.75.49-1.71-.12-2.41.54l0,0c-1.34.51-2.76.72-4.1,1.25l0,0c-1.72.53-3.52.71-5.24,1.25l0,0a7.2,7.2,0,0,1-2.4.65l-.4,0c-.72.66-1.75-.06-2.46.64l0,0c-.33.37-.89.26-1.22.62l-.51.06h-.21l-.12-.17-.11.19h-.21a2.9,2.9,0,0,1-.41-.06c-.91.73-2.1-.12-3,.62h-.59a.93.93,0,0,1-.64.29C960.46,687.9,959.83,687.61,959.33,688.13Z"/><path class="cls-2" d="M746.88,623.45V688.1c-.79.57-1.69.32-2.54.32h-216a7.53,7.53,0,0,1-2-.12,2.39,2.39,0,0,1-1.16-2.3c0-.82,0-1.64,0-2.47q0-162.21,0-324.42c0-1.41-.33-2.88.43-4.21a3.19,3.19,0,0,1,2-.29h67.7a4,4,0,0,1,1.71.2c.92,1.5.51,3.19.51,4.79q0,128.79,0,257.6a30.74,30.74,0,0,0,.12,4.6,1.5,1.5,0,0,0,.72.86,18.23,18.23,0,0,0,4,.16q70.13,0,140.24,0C744.08,622.86,745.58,622.46,746.88,623.45Z"/><path class="cls-2" d="M525.84,355c0,1.33-.08,2.66-.08,4q0,162.15,0,324.3c0,1.63-.25,3.3.53,4.83a.76.76,0,0,1-1.1.11c-.93-1.27-.56-2.76-.56-4.16q0-40.77,0-81.55,0-122,0-244c0-1.39-.45-2.9.59-4.13C525.42,354.58,525.8,354.6,525.84,355Z"/><path class="cls-2" d="M597.59,622.82a2.21,2.21,0,0,1-.61-1.67c0-1,0-2,0-3.07V359.6c0-1.54-.05-3.08-.07-4.62,0-.38.4-.4.6-.61a2.14,2.14,0,0,1,.59,1.66c0,1,0,2.06,0,3.08V617.5c0,1.54,0,3.08,0,4.62A.64.64,0,0,1,597.59,622.82Z"/><path class="cls-2" d="M525.2,688.22l1.1-.11H746.88a2.13,2.13,0,0,1-1.58.63H528.86C527.63,688.73,526.34,689.05,525.2,688.22Z"/><path class="cls-2" d="M597.59,622.82l.55-.7c1.54,0,3.08.1,4.62.1q70.28,0,140.54,0c1.19,0,2.51-.48,3.58.58-1,.6-2.08.3-3.12.3q-71.55,0-143.1,0c-1,0-2.13.26-3.13-.28Z"/><path class="cls-2" d="M597.53,622.86l145.87,0h3.48v.62h-146C599.74,623.45,598.53,623.74,597.53,622.86Z"/><path class="cls-2" d="M1031.12,499.06H908.47c-.77,0-1.54,0-2.31.05-.53.16-.79,0-.6-.62.87,0,1.73-.05,2.6-.05q59.69,0,119.37,0C1028.74,498.45,1030.05,498,1031.12,499.06Z"/><path class="cls-2" d="M905.56,498.48l.6.62c0,8.3-.07,16.59-.07,24.89q0,18.28,0,36.56c0,.42-.37.43-.58.61-.81-.83-.59-1.9-.6-2.9q0-28.44,0-56.88C905,500.38,904.73,499.3,905.56,498.48Z"/><path class="cls-2" d="M597.49,354.37l-.6.61-56-.05c-5,0-10,0-15,.06l-.61-.63Z"/><path class="cls-2" d="M905.55,561.16l.58-.61,32.38.08,26,.07c.19.14.25.27.19.41s-.13.21-.19.21l-55.23-.07C908.05,561.25,906.8,561.19,905.55,561.16Z"/><path class="cls-2" d="M964.53,561.32v-.62c.88.8.58,1.89.59,2.88q0,26.31,0,52.62c0,1.12.49,2.61-1.24,3a5.61,5.61,0,0,0,.68-3.53Q964.54,588.47,964.53,561.32Z"/><path class="cls-2" d="M755.61,511.3a3.35,3.35,0,0,1,.55,2.29v14.59a3.27,3.27,0,0,1-.56,2.28,3.51,3.51,0,0,1-.59-2.58v-14A3.56,3.56,0,0,1,755.61,511.3Z"/><path class="cls-2" d="M829.67,479.44c-.72-.65-.54-1.47-.36-2.26a147.63,147.63,0,0,1,3.92-14.39c.28-.85.52-1.79,1.59-1.92C832.3,466.81,831.14,473.17,829.67,479.44Z"/><path class="cls-2" d="M768.94,608.68a1.69,1.69,0,0,1,1.43,1.32c1.34,3.7,3.19,7.15,4.71,10.76a5.9,5.9,0,0,1,.19,1.49c-2-2.77-3-6-4.5-9.12C770.09,611.69,769.55,610.17,768.94,608.68Z"/><path class="cls-2" d="M801.31,386.07c-.29,1.28-1.32,1.95-2.13,2.76-2.4,2.44-4.51,5.2-7.15,7.36,0-.2,0-.46.09-.59C794.9,392.11,797.71,388.66,801.31,386.07Z"/><path class="cls-2" d="M764.29,592.65c1.64,3.63,2.52,7.54,3.75,11.33a1,1,0,0,1-.29,1.09q-2.26-6.11-4-12.4C764,592.22,764.11,592.21,764.29,592.65Z"/><path class="cls-2" d="M791.45,646.85a63.1,63.1,0,0,1,8.12,8.61.34.34,0,0,1,.16.36c0,.13-.07.19-.11.19l0,.26-6.79-7.12A3.79,3.79,0,0,1,791.45,646.85Z"/><path class="cls-2" d="M834.87,460.35c-.11-.16-.33-.36-.3-.47.94-3.44,1.95-6.85,4.38-9.51C837.93,453.85,836,456.93,834.87,460.35Z"/><path class="cls-2" d="M838.92,450.41a19.32,19.32,0,0,1,5.23-8.65A42.13,42.13,0,0,1,838.92,450.41Z"/><path class="cls-2" d="M826.19,529.19c-.64-.63-.52-1.48-.53-2.27,0-3.54,0-7.07,0-10.61.15-.43.3-.43.46,0Z"/><path class="cls-2" d="M903.16,692.52H914.8c.22.1.29.2.22.29a.31.31,0,0,1-.23.14H903.17c-.23-.09-.31-.19-.23-.3A.28.28,0,0,1,903.16,692.52Z"/><path class="cls-2" d="M827.93,488.61c-.54-2.85.46-5.51,1-8.22,0-.19.47-.29.72-.43C828.85,482.8,829.06,485.85,827.93,488.61Z"/><path class="cls-2" d="M767.17,441c-.3,3.13-1.6,5.94-2.54,8.86-.08.28-.59.41-.91.61.71-2.18,1.43-4.35,2.11-6.54A7,7,0,0,1,767.17,441Z"/><path class="cls-2" d="M832.58,576.67a21.7,21.7,0,0,1-2.36-8.63c.15-.24.3-.26.47,0C831.13,570.94,832.48,573.65,832.58,576.67Z"/><path class="cls-2" d="M838.94,592.05a13.54,13.54,0,0,1-3.48-7.41A28.55,28.55,0,0,1,838.94,592.05Z"/><path class="cls-2" d="M1012,422.3c1.3-2.23,2.84-4.18,5.23-5.16C1015.67,419.07,1014.2,421.1,1012,422.3Z"/><path class="cls-2" d="M997,437.61c-.09-.17-.28-.43-.24-.49,1.35-1.86,2.65-3.8,4.88-4.59A40.72,40.72,0,0,1,997,437.61Z"/><path class="cls-2" d="M988.86,444.76c1.36-1.64,2.5-3.55,4.64-4.22a43.37,43.37,0,0,1-4.65,5.1l0-.27A.43.43,0,0,1,988.86,444.76Z"/><path class="cls-2" d="M917,627.8a13.05,13.05,0,0,1-8.55,0Z"/><path class="cls-2" d="M1020.7,413.34c1.36-1.63,2.5-3.54,4.64-4.21a42.6,42.6,0,0,1-4.66,5.1l0-.27A.44.44,0,0,1,1020.7,413.34Z"/><path class="cls-2" d="M773.52,425.13a15.24,15.24,0,0,1-2.9,6.79C770.88,429.32,772.17,427.21,773.52,425.13Z"/><path class="cls-2" d="M826.19,509.54a4.05,4.05,0,0,1,0-4.41A4.17,4.17,0,0,1,826.19,509.54Z"/><path class="cls-2" d="M907.28,413.39a12.25,12.25,0,0,1,8,0Z"/><path class="cls-2" d="M835.47,584.67a11.31,11.31,0,0,1-2.33-6.2A14.47,14.47,0,0,1,835.47,584.67Z"/><path class="cls-2" d="M826.73,537.22c-1.38-1.35-1.44-1.88-.56-4.28C827,534.27,826.73,535.76,826.73,537.22Z"/><path class="cls-2" d="M760.25,577.87c2,1.36,1.49,3.57,1.72,5.54-.16.27-.33.29-.5,0Z"/><path class="cls-2" d="M777,625.3a11.09,11.09,0,0,1,2.91,5C778.17,629.1,777.47,627.27,777,625.3Z"/><path class="cls-2" d="M756.12,539.66a3.14,3.14,0,0,1,0,3.76A3.26,3.26,0,0,1,756.12,539.66Z"/><path class="cls-2" d="M764.29,592.65l-.49,0a28.75,28.75,0,0,1-1.19-5l.21-.17.2.17A11.46,11.46,0,0,1,764.29,592.65Z"/><path class="cls-2" d="M756.17,498.42a3.09,3.09,0,0,1,0,3.72A3.36,3.36,0,0,1,756.17,498.42Z"/><path class="cls-2" d="M1003.89,430.32c.65-1.85,2.15-2.84,3.52-4A6.53,6.53,0,0,1,1003.89,430.32Z"/><path class="cls-2" d="M782.78,635.16a7.43,7.43,0,0,1,2.9,4.32A7.81,7.81,0,0,1,782.78,635.16Z"/><path class="cls-2" d="M760.8,462.6c1.15,1.87,0,3.43-.58,5.07-.19-.14-.25-.29-.19-.44s.11-.22.17-.22A13.67,13.67,0,0,1,760.8,462.6Z"/><path class="cls-2" d="M1019.52,667.82a6.31,6.31,0,0,1,4.09-2.48C1022.64,666.89,1021.07,667.34,1019.52,667.82Z"/><path class="cls-2" d="M973.22,685.06a9,9,0,0,1,5.24-1.25A8.46,8.46,0,0,1,973.22,685.06Z"/><path class="cls-2" d="M1028.79,406.19c-.48-.47-.23-.92.13-1.21.95-.76.64-1.7.46-2.65C1030.91,404,1030.91,404,1028.79,406.19Z"/><path class="cls-2" d="M838.92,680.73a7.37,7.37,0,0,1,4.66,1.87A7.07,7.07,0,0,1,838.92,680.73Z"/><path class="cls-2" d="M980.16,441.75a5.85,5.85,0,0,1,2.92,3.72C981.85,444.46,980.55,443.51,980.16,441.75Z"/><path class="cls-2" d="M777,418.35a7.39,7.39,0,0,1-2.33,4.43C775.09,421.1,775.53,419.42,777,418.35Z"/><path class="cls-2" d="M951.8,420.21a5.85,5.85,0,0,1,4.09,1.86A5.91,5.91,0,0,1,951.8,420.21Z"/><path class="cls-2" d="M757.8,484.81c0,1.1.33,2.25-.52,3.19-.91-1.1-.37-2.15.11-3.2C757.53,484.5,757.67,484.52,757.8,484.81Z"/><path class="cls-2" d="M829.08,676.43a5.93,5.93,0,0,1,4.08,1.86A6,6,0,0,1,829.08,676.43Z"/><path class="cls-2" d="M757.26,489.76c-.22,1.3.77,3-1.06,3.75-.15-1.31.58-2.47.57-3.76C756.94,489.44,757.1,489.45,757.26,489.76Z"/><path class="cls-2" d="M826.81,545.87a2.32,2.32,0,0,1,0-3.11C827.3,543.79,827.65,544.82,826.81,545.87Z"/><path class="cls-2" d="M770.63,431.89a5.94,5.94,0,0,1-1.89,4.36A8.08,8.08,0,0,1,770.63,431.89Z"/><path class="cls-2" d="M760.21,468.86a7.37,7.37,0,0,1-1.16,4.38,12.93,12.93,0,0,1,.58-4.37C759.82,468.46,760,468.46,760.21,468.86Z"/><path class="cls-2" d="M1010.85,672.12a5.9,5.9,0,0,1,4.08-1.87C1013.73,671.27,1012.5,672.21,1010.85,672.12Z"/><path class="cls-2" d="M852.84,609.91a4.13,4.13,0,0,1-2.93-2.69A5.65,5.65,0,0,1,852.84,609.91Z"/><path class="cls-2" d="M788,642.54a4.23,4.23,0,0,1,2.33,3.1A4.77,4.77,0,0,1,788,642.54Z"/><path class="cls-2" d="M978.42,683.83a6,6,0,0,1,4.1-1.25A5.57,5.57,0,0,1,978.42,683.83Z"/><path class="cls-2" d="M785.67,639.47a4.24,4.24,0,0,1,2.33,3.1A4.63,4.63,0,0,1,785.67,639.47Z"/><path class="cls-2" d="M943.11,417.13a5.82,5.82,0,0,1,4.09,1.24A5.56,5.56,0,0,1,943.11,417.13Z"/><path class="cls-2" d="M1015.51,385.73c-1.42-.24-2.2-1.33-2.92-2.49C1014.05,383.42,1014.79,384.56,1015.51,385.73Z"/><path class="cls-2" d="M826.77,499.69a1.78,1.78,0,0,1,0-2.57A1.83,1.83,0,0,1,826.77,499.69Z"/><path class="cls-2" d="M847.79,605a4.26,4.26,0,0,1-2.5-3.11A5.51,5.51,0,0,1,847.79,605Z"/><path class="cls-2" d="M768.33,436.77a3.36,3.36,0,0,1-1.19,3.92A16.61,16.61,0,0,1,768.33,436.77Z"/><path class="cls-2" d="M826.13,516.3h-.46c0-1.61-.45-3.27.46-4.78Z"/><path class="cls-2" d="M863.82,423.91a3.85,3.85,0,0,1,3.5-1.87A6.72,6.72,0,0,1,863.82,423.91Z"/><path class="cls-2" d="M763.69,450.92a2.57,2.57,0,0,1-1.12,3.81C762.94,453.46,763.32,452.19,763.69,450.92Z"/><path class="cls-2" d="M827.36,493.57a1.7,1.7,0,0,1,.09-2.55l.38-.06A3.17,3.17,0,0,1,827.36,493.57Z"/><path class="cls-2" d="M877.71,417.76a6.06,6.06,0,0,1,4.08-1.25A5.63,5.63,0,0,1,877.71,417.76Z"/><path class="cls-2" d="M984.81,682a5.75,5.75,0,0,1,4.08-1.25,6.5,6.5,0,0,1-3.55,1.36l-.31.18Z"/><path class="cls-2" d="M844.14,441.78a4.3,4.3,0,0,1,2.33-3.1A4.69,4.69,0,0,1,844.14,441.78Z"/><path class="cls-2" d="M756.09,503.59c0,1.52.41,3.09-.47,4.51C755.81,506.6,755,505,756.09,503.59Z"/><path class="cls-2" d="M845.28,683.19a5.73,5.73,0,0,1,4.08,1.25A5.41,5.41,0,0,1,845.28,683.19Z"/><path class="cls-2" d="M756.7,548.29a1.82,1.82,0,0,1,0,2.6A1.9,1.9,0,0,1,756.7,548.29Z"/><path class="cls-2" d="M902,413.44a3.27,3.27,0,0,1,4,0Z"/><path class="cls-2" d="M829,559.36c-1.59-.56-.95-2-1.1-3.13C828.76,557.09,828.77,558.28,829,559.36Z"/><path class="cls-2" d="M859.77,426.38a3.65,3.65,0,0,1,2.91-1.86A3.8,3.8,0,0,1,859.77,426.38Z"/><path class="cls-2" d="M970.33,431.91a2.82,2.82,0,0,1,2.33,1.84.35.35,0,0,1,.17.36c0,.13-.07.2-.12.2A5.8,5.8,0,0,1,970.33,431.91Z"/><path class="cls-2" d="M907.9,349.32a3.42,3.42,0,0,1,4,0l-.06,0a5.42,5.42,0,0,1-4-.06Z"/><path class="cls-2" d="M983.64,446.07l2.34,1.85C984.65,448.41,984.4,448.21,983.64,446.07Z"/><path class="cls-2" d="M914.79,693c0-.14,0-.29,0-.43l4.08-.09C917.63,693.61,916.16,692.85,914.79,693Z"/><path class="cls-2" d="M819.24,670.88a3.67,3.67,0,0,1,2.91,1.86A3.8,3.8,0,0,1,819.24,670.88Z"/><path class="cls-2" d="M755.59,533.57a3.88,3.88,0,0,1,0,4.32C755.6,536.45,755.59,535,755.59,533.57Z"/><path class="cls-2" d="M958.16,423.28a3.69,3.69,0,0,1,2.93,1.87A3.8,3.8,0,0,1,958.16,423.28Z"/><path class="cls-2" d="M759.69,574.81c1.39.57,1.3,1.49.52,2.57C760,576.52,759.86,575.67,759.69,574.81Z"/><path class="cls-2" d="M801.87,657.94a2.84,2.84,0,0,1,2.34,1.87A3.11,3.11,0,0,1,801.87,657.94Z"/><path class="cls-2" d="M757.89,481.09c.82.87,0,1.73,0,2.59-.18.32-.35.33-.52,0C757.36,482.77,757.2,481.83,757.89,481.09Z"/><path class="cls-2" d="M1024.19,395.58a4,4,0,0,1-1.74-1.88c-.2-.13-.27-.27-.21-.41s.13-.2.2-.2A3.17,3.17,0,0,1,1024.19,395.58Z"/><path class="cls-2" d="M922.24,627.19a3.11,3.11,0,0,1,0,.53,3.88,3.88,0,0,1-3.39,0l0,0C919.84,626.67,921.1,627.34,922.24,627.19Z"/><path class="cls-2" d="M902.08,627.71a4.56,4.56,0,0,1,0-.52c1.18.16,2.47-.52,3.52.56l-.11.08A4.29,4.29,0,0,1,902.08,627.71Z"/><path class="cls-2" d="M943.23,351.84c-1.22-.16-2.55.44-3.63-.63C940.82,351.35,942.13,350.91,943.23,351.84Z"/><path class="cls-2" d="M767.79,605.6c1.26.42,1.91,1.13,1.11,2.56Z"/><path class="cls-2" d="M1007.37,426.39a3,3,0,0,1,2.34-1.87A2.73,2.73,0,0,1,1007.37,426.39Z"/><path class="cls-2" d="M828,555.77c-.72-.73-.57-1.67-.54-2.58.15-.32.3-.3.46,0C827.93,554,828.74,554.88,828,555.77Z"/><path class="cls-2" d="M827.39,551.43a1.22,1.22,0,0,1,0-1.94A1.26,1.26,0,0,1,827.39,551.43Z"/><path class="cls-2" d="M1022.44,393.09c0,.2,0,.41,0,.61a3.12,3.12,0,0,1-1.74-2.43A3.83,3.83,0,0,1,1022.44,393.09Z"/><path class="cls-2" d="M790.31,398a3.23,3.23,0,0,1-1.75,2.48A3,3,0,0,1,790.31,398Z"/><path class="cls-2" d="M1011.46,382a3.07,3.07,0,0,1-2.34-1.87C1010.3,380.22,1010.92,381.07,1011.46,382Z"/><path class="cls-2" d="M903.16,692.52c0,.15,0,.3,0,.45-1.15,0-2.37.55-3.39-.5Z"/><path class="cls-2" d="M855.71,429.46a2.8,2.8,0,0,1,2.34-1.86A3.06,3.06,0,0,1,855.71,429.46Z"/><path class="cls-2" d="M1000.89,676.45a3.93,3.93,0,0,1,3-1.26A3.6,3.6,0,0,1,1000.89,676.45Z"/><path class="cls-2" d="M757.29,554.48a1.24,1.24,0,0,1,0,2A1.28,1.28,0,0,1,757.29,554.48Z"/><path class="cls-2" d="M804.77,660.41a2.83,2.83,0,0,1,2.33,1.86A3,3,0,0,1,804.77,660.41Z"/><path class="cls-2" d="M809.4,664.1a2.83,2.83,0,0,1,2.33,1.87A3.06,3.06,0,0,1,809.4,664.1Z"/><path class="cls-2" d="M847.61,437.47a3.11,3.11,0,0,1,1.76-2.5A2.8,2.8,0,0,1,847.61,437.47Z"/><path class="cls-2" d="M967.43,429.45a2.82,2.82,0,0,1,2.33,1.86A3,3,0,0,1,967.43,429.45Z"/><path class="cls-2" d="M853.4,431.31a2.81,2.81,0,0,1,2.33-1.87A3,3,0,0,1,853.4,431.31Z"/><path class="cls-2" d="M1027.08,399.28a3.13,3.13,0,0,1-1.75-2.48A3.13,3.13,0,0,1,1027.08,399.28Z"/><path class="cls-2" d="M947.16,418.35a4.17,4.17,0,0,1,3.09,1.27A3.63,3.63,0,0,1,947.16,418.35Z"/><path class="cls-2" d="M1006.79,674a3.53,3.53,0,0,1,2.92-1.25A3.46,3.46,0,0,1,1006.79,674Z"/><path class="cls-2" d="M935.59,415.27c1,.09,2.08-.25,2.93.64l-2.84-.12c-.17-.08-.24-.19-.21-.32S935.54,415.27,935.59,415.27Z"/><path class="cls-2" d="M758.93,476.18c.09.89.07,1.72-1,1.94a4.58,4.58,0,0,1,.63-1.95Z"/><path class="cls-2" d="M919.44,350c-1,0-2.06.3-2.91-.55l2.89,0c.23.1.3.21.23.33S919.51,350,919.44,350Z"/><path class="cls-2" d="M946.63,624.06c-.84.94-1.94.54-2.94.63C944.54,623.81,945.62,624.13,946.63,624.06Z"/><path class="cls-2" d="M922.32,413.45c.92,0,1.9-.28,2.68.52C924.08,413.93,923.07,414.47,922.32,413.45Z"/><path class="cls-2" d="M919.44,350a2.18,2.18,0,0,1,0-.51c1,.06,2-.46,2.81.52Z"/><path class="cls-2" d="M949.51,623.44c-.85.89-1.93.55-2.93.64C947.42,623.18,948.51,623.55,949.51,623.44Z"/><path class="cls-2" d="M927,692.4c.85-.83,1.91-.54,2.9-.59C929.1,692.88,928,692.25,927,692.4Z"/><path class="cls-2" d="M924.07,350a4.68,4.68,0,0,1,0-.53c1,.1,2.1-.4,2.95.56l-.11.07A3.07,3.07,0,0,1,924.07,350Z"/><path class="cls-2" d="M889.21,691.81c1,.07,2-.26,2.88.59C891.12,692.26,890,692.87,889.21,691.81Z"/><path class="cls-2" d="M868.48,353.06c-.83,1-2,.5-3,.64C866.39,352.82,867.47,353.14,868.48,353.06Z"/><path class="cls-2" d="M953,353.7c-1-.14-2.11.35-3-.64C951.06,353.14,952.15,352.82,953,353.7Z"/><path class="cls-2" d="M775.82,622.82a3.4,3.4,0,0,1,1.18,2.5A2.39,2.39,0,0,1,775.82,622.82Z"/><path class="cls-2" d="M826.72,542c-.77-.83-.49-1.88-.52-2.87C827.2,539.88,826.63,541,826.72,542Z"/><path class="cls-2" d="M829.63,562.5c-1.41-.56-1.31-1.49-.55-2.58C829.26,560.78,829.44,561.64,829.63,562.5Z"/><path class="cls-2" d="M851.68,357.38c-.62.77-1.59.73-2.36,1.16-.37-.22-.36-.43,0-.63C850,357.24,850.87,357.4,851.68,357.38Z"/><path class="cls-2" d="M830.2,565.56c-1.41-.56-1.31-1.49-.55-2.58Z"/><path class="cls-2" d="M895,349.41c-.83.85-1.86.56-2.84.57C893,349,894.08,349.51,895,349.41Z"/><path class="cls-2" d="M756.73,494.75c0,1,.25,2-.52,2.87C756.3,496.64,755.73,495.53,756.73,494.75Z"/><path class="cls-2" d="M757.38,559.48c.76.45,1.29,1,.5,1.88A2.27,2.27,0,0,1,757.38,559.48Z"/><path class="cls-2" d="M881.75,416.53c.85-.88,1.92-.61,2.94-.64C883.84,416.82,882.76,416.47,881.75,416.53Z"/><path class="cls-2" d="M962.26,687.51c.87-.9,2-.54,3-.62C964.39,687.82,963.28,687.45,962.26,687.51Z"/><path class="cls-2" d="M902.6,349.39c-.86.89-1.91.58-2.92.55-.22-.12-.29-.23-.21-.34a.31.31,0,0,1,.22-.16Z"/><path class="cls-2" d="M931.55,691.83c.76-.74,1.53-.9,2.31,0Z"/><path class="cls-2" d="M885.72,691.83a1.46,1.46,0,0,1,2.37,0Z"/><path class="cls-2" d="M874.8,690.16c.81-.13,1.64-.4,2.29.42l-2.29-.16Z"/><path class="cls-2" d="M951.82,689.36c.66-.79,1.49-.59,2.31-.46v.32Z"/><path class="cls-2" d="M863.68,688.12c.89,0,1.83-.14,2.55.64l-.09.06a.87.87,0,0,1-1.11,0C864.54,688.68,864,688.68,863.68,688.12Z"/><path class="cls-2" d="M860.75,687.5c.89,0,1.83-.14,2.55.65l0,0a.84.84,0,0,1-1.1.05C861.63,688.08,861.07,688.06,860.75,687.5Z"/><path class="cls-2" d="M855.7,686.28c.84,0,1.72-.18,2.35.63C857.22,686.9,856.33,687.16,855.7,686.28Z"/><path class="cls-2" d="M968,686.3c.69-.77,1.59-.63,2.46-.64C969.79,686.53,968.86,686.25,968,686.3Z"/><path class="cls-2" d="M970.86,685.69c.66-.79,1.56-.61,2.4-.65-.25.56-.78.59-1.25.73a.88.88,0,0,1-1.1-.06Z"/><path class="cls-2" d="M851.06,685c.83,0,1.7-.12,2.36.63C852.59,685.63,851.71,685.8,851.06,685Z"/><path class="cls-2" d="M982.48,682.6c.64-.77,1.51-.61,2.33-.62v0c.17.14.22.26.15.38s-.13.16-.2.16Z"/><path class="cls-2" d="M899.69,349.44a2.08,2.08,0,0,1,0,.5c-.8-.07-1.7.38-2.32-.53Z"/><path class="cls-2" d="M890.89,350.05c-.75.7-1.5.83-2.23,0Z"/><path class="cls-2" d="M930.48,350c-.79.89-1.58.74-2.36,0Z"/><path class="cls-2" d="M933.85,350.58c-.77,0-1.56.18-2.17-.53C932.43,350.08,933.26,349.77,933.85,350.58Z"/><path class="cls-2" d="M865.59,353.68c-.68.83-1.6.58-2.45.64C863.83,353.56,864.73,353.7,865.59,353.68Z"/><path class="cls-2" d="M853.38,685.66c.84,0,1.71-.13,2.37.64C854.92,686.23,854,686.56,853.38,685.66Z"/><path class="cls-2" d="M862.71,354.29c-.67.85-1.59.57-2.44.63A3.08,3.08,0,0,1,862.71,354.29Z"/><path class="cls-2" d="M958.21,354.93c-.83-.06-1.74.21-2.38-.64C956.66,354.33,957.55,354.15,958.21,354.93Z"/><path class="cls-2" d="M816.34,669a1.85,1.85,0,0,1,1.76,1.25A1.94,1.94,0,0,1,816.34,669Z"/><path class="cls-2" d="M960.52,355.55c-.82-.08-1.72.19-2.36-.64C959,355,959.87,354.78,960.52,355.55Z"/><path class="cls-2" d="M813.45,667.18a1.8,1.8,0,0,1,1.78,1.37A2.45,2.45,0,0,1,813.45,667.18Z"/><path class="cls-2" d="M858.06,355.53c-.65.77-1.53.6-2.36.62A2.72,2.72,0,0,1,858.06,355.53Z"/><path class="cls-2" d="M962.83,356.16c-.82,0-1.71.18-2.36-.64C961.3,355.57,962.18,355.37,962.83,356.16Z"/><path class="cls-2" d="M811.71,666a1.8,1.8,0,0,1,1.76,1.25A2,2,0,0,1,811.71,666Z"/><path class="cls-2" d="M855.73,356.14a2.79,2.79,0,0,1-2.34.63C854,356,854.92,356.22,855.73,356.14Z"/><path class="cls-2" d="M1024.74,664.73a1.88,1.88,0,0,1,1.76-1.24A1.93,1.93,0,0,1,1024.74,664.73Z"/><path class="cls-2" d="M807.66,662.87a1.79,1.79,0,0,1,1.76,1.25A2,2,0,0,1,807.66,662.87Z"/><path class="cls-2" d="M1027.62,663a1.78,1.78,0,0,1,1.78-1.35A2.4,2.4,0,0,1,1027.62,663Z"/><path class="cls-2" d="M1029.37,661.66a2.14,2.14,0,0,1,1.78-1.36A2,2,0,0,1,1029.37,661.66Z"/><path class="cls-2" d="M756.19,544.7a1.55,1.55,0,0,1,0,2.4C756.19,546.3,756.19,545.5,756.19,544.7Z"/><path class="cls-2" d="M962.22,425.75A1.86,1.86,0,0,1,964,427,1.94,1.94,0,0,1,962.22,425.75Z"/><path class="cls-2" d="M858,427.61a1.84,1.84,0,0,1,1.76-1.25A1.93,1.93,0,0,1,858,427.61Z"/><path class="cls-2" d="M964,427a1.82,1.82,0,0,1,1.77,1.25A2,2,0,0,1,964,427Z"/><path class="cls-2" d="M965.69,428.21a1.82,1.82,0,0,1,1.76,1.25A2,2,0,0,1,965.69,428.21Z"/><path class="cls-2" d="M781.61,633.3a2,2,0,0,1,1.18,1.87A2.09,2.09,0,0,1,781.61,633.3Z"/><path class="cls-2" d="M780.46,631.45a2,2,0,0,1,1.17,1.88A2.09,2.09,0,0,1,780.46,631.45Z"/><path class="cls-2" d="M999.3,372.79a2,2,0,0,1-1.77-1.25A1.93,1.93,0,0,1,999.3,372.79Z"/><path class="cls-2" d="M1001,374a2,2,0,0,1-1.76-1.25A1.9,1.9,0,0,1,1001,374Z"/><path class="cls-2" d="M816.38,374a2,2,0,0,1-1.77,1.25A1.89,1.89,0,0,1,816.38,374Z"/><path class="cls-2" d="M926.23,627.19c-.76.72-1.51.87-2.26,0Z"/><path class="cls-2" d="M814.63,375.24a2,2,0,0,1-1.76,1.25A1.84,1.84,0,0,1,814.63,375.24Z"/><path class="cls-2" d="M849.92,434.4c.4-.71.88-1.3,1.76-1.26A1.7,1.7,0,0,1,849.92,434.4Z"/><path class="cls-2" d="M900.35,627.18a1.37,1.37,0,0,1-2.27,0Z"/><path class="cls-2" d="M1006.24,377.72a2,2,0,0,1-1.76-1.25A1.86,1.86,0,0,1,1006.24,377.72Z"/><path class="cls-2" d="M810.57,378.32a2,2,0,0,1-1.75,1.24A1.91,1.91,0,0,1,810.57,378.32Z"/><path class="cls-2" d="M1008.56,379.57a2,2,0,0,1-1.76-1.25A1.86,1.86,0,0,1,1008.56,379.57Z"/><path class="cls-2" d="M882.5,624.7c-.87-.05-1.78.12-2.49-.64C880.89,624.08,881.79,624,882.5,624.7Z"/><path class="cls-2" d="M808.26,380.16a2,2,0,0,1-1.76,1.26A1.87,1.87,0,0,1,808.26,380.16Z"/><path class="cls-2" d="M954.15,622.21c-.63.86-1.54.57-2.37.64C952.44,622.07,953.32,622.24,954.15,622.21Z"/><path class="cls-2" d="M956.47,621.59c-.64.82-1.53.6-2.36.64C954.76,621.44,955.64,621.64,956.47,621.59Z"/><path class="cls-2" d="M805.37,382.62a2,2,0,0,1-1.76,1.26A1.84,1.84,0,0,1,805.37,382.62Z"/><path class="cls-2" d="M861,616.07a2,2,0,0,1-1.76-1.25A1.91,1.91,0,0,1,861,616.07Z"/><path class="cls-2" d="M855.73,612.38a2.06,2.06,0,0,1-1.76-1.26A1.84,1.84,0,0,1,855.73,612.38Z"/><path class="cls-2" d="M826.74,503.36a1.56,1.56,0,0,1,0-2.42C826.75,501.75,826.75,502.55,826.74,503.36Z"/><path class="cls-2" d="M844.16,600.68a2.18,2.18,0,0,1-1.18-1.87A2,2,0,0,1,844.16,600.68Z"/><path class="cls-2" d="M761.38,460.18c.74.93.57,1.58-.54,1.92Z"/><path class="cls-2" d="M843,598.83a2,2,0,0,1-1.18-1.88A2.16,2.16,0,0,1,843,598.83Z"/><path class="cls-2" d="M783.94,406.65a2,2,0,0,1-1.17,1.87A2.13,2.13,0,0,1,783.94,406.65Z"/><path class="cls-2" d="M758.51,568c.81.19,1.17.57.53,1.38A2,2,0,0,1,758.51,568Z"/><path class="cls-2" d="M840.68,595.13a2,2,0,0,1-1.17-1.87A2.11,2.11,0,0,1,840.68,595.13Z"/><path class="cls-2" d="M830.69,568l-.47,0a1.21,1.21,0,0,1,0-1.91C830.39,566.75,830.54,567.38,830.69,568Z"/><path class="cls-2" d="M758.45,564.25a.91.91,0,0,1,0,1.46A1,1,0,0,1,758.45,564.25Z"/><path class="cls-2" d="M762.54,455.2c.79.94.6,1.58-.53,1.93C762.19,456.49,762.36,455.84,762.54,455.2Z"/><path class="cls-2" d="M1028.82,401.74a2.15,2.15,0,0,1-1.18-1.87A2,2,0,0,1,1028.82,401.74Z"/><path class="cls-2" d="M782.78,408.5a2,2,0,0,1-1.16,1.84A2.14,2.14,0,0,1,782.78,408.5Z"/><path class="cls-2" d="M951.83,622.83c-.63.83-1.53.57-2.35.63C950.14,622.72,951,622.84,951.83,622.83Z"/><path class="cls-2" d="M787.42,401.72a2.19,2.19,0,0,1-1.18,1.87A2,2,0,0,1,787.42,401.72Z"/><path class="cls-2" d="M781.63,410.34a2.08,2.08,0,0,1-1.18,1.88A2.08,2.08,0,0,1,781.63,410.34Z"/><path class="cls-2" d="M780.47,412.18a2,2,0,0,1-1.17,1.88A2.12,2.12,0,0,1,780.47,412.18Z"/><path class="cls-2" d="M785.68,404.18a2.18,2.18,0,0,1-1.17,1.87A2,2,0,0,1,785.68,404.18Z"/><path class="cls-2" d="M898.11,414c.63-.75,1.48-.55,2.27-.58C899.79,414.36,898.9,413.94,898.11,414Z"/><path class="cls-2" d="M778.73,415.26a2,2,0,0,1-1.17,1.88A2.12,2.12,0,0,1,778.73,415.26Z"/><path class="cls-2" d="M940.81,416.51c.84,0,1.7-.15,2.34.64l-2.33-.08c-.18-.12-.23-.25-.18-.37S940.76,416.51,940.81,416.51Z"/><path class="cls-2" d="M756.78,551.51c.69.64.54,1.48.51,2.3C756.48,553.2,756.8,552.32,756.78,551.51Z"/><path class="cls-2" d="M762,457.71c.78,1,.59,1.59-.55,1.92C761.59,459,761.77,458.35,762,457.71Z"/><path class="cls-2" d="M934.61,691.75c.64-.69,1.46-.56,2.26-.56C936.27,692.11,935.39,691.72,934.61,691.75Z"/><path class="cls-2" d="M980.2,362.32a1.85,1.85,0,0,1-1.77-.63A1.9,1.9,0,0,1,980.2,362.32Z"/><path class="cls-2" d="M895.18,414c.59-.67,1.18-.72,1.75,0Z"/><path class="cls-2" d="M997.53,677.67a2,2,0,0,1,1.77-.63C998.87,677.76,998.16,677.6,997.53,677.67Z"/><path class="cls-2" d="M880.06,624.08c-.67-.07-1.4,0-1.87-.65C878.85,623.5,879.58,623.39,880.06,624.08Z"/><path class="cls-2" d="M884.09,350.61c-.54.74-1.1.78-1.69.06Z"/><path class="cls-2" d="M877.8,623.46a1.91,1.91,0,0,1-1.85-.64A2.11,2.11,0,0,1,877.8,623.46Z"/><path class="cls-2" d="M875.33,351.88c-.57.68-1.13.74-1.69,0Z"/><path class="cls-2" d="M876,622.85c-.65,0-1.31,0-1.77-.64A2,2,0,0,1,876,622.85Z"/><path class="cls-2" d="M881.69,350.66a1.61,1.61,0,0,1-1.66.54C880.45,350.56,881.08,350.63,881.69,350.66Z"/><path class="cls-2" d="M874.27,622.23c-.66,0-1.32,0-1.78-.64A2.11,2.11,0,0,1,874.27,622.23Z"/><path class="cls-2" d="M995.79,678.29a2,2,0,0,1,1.78-.64C997.12,678.33,996.44,678.25,995.79,678.29Z"/><path class="cls-2" d="M958.31,621c-.48.72-1.22.58-1.89.65A2.2,2.2,0,0,1,958.31,621Z"/><path class="cls-2" d="M872.54,621.62a1.85,1.85,0,0,1-1.79-.65A1.88,1.88,0,0,1,872.54,621.62Z"/><path class="cls-2" d="M960.51,620.37a2,2,0,0,1-1.85.63A2,2,0,0,1,960.51,620.37Z"/><path class="cls-2" d="M962.25,619.75a1.72,1.72,0,0,1-1.77.63C960.92,619.69,961.58,619.71,962.25,619.75Z"/><path class="cls-2" d="M869.63,620.38a1.94,1.94,0,0,1-1.76-.63A1.94,1.94,0,0,1,869.63,620.38Z"/><path class="cls-2" d="M994.06,678.9a2,2,0,0,1,1.77-.63C995.39,679,994.7,678.86,994.06,678.9Z"/><path class="cls-2" d="M968.63,358c-.65,0-1.33,0-1.77-.63A2.05,2.05,0,0,1,968.63,358Z"/><path class="cls-2" d="M757.93,562c.6.43.55,1.08.52,1.72C757.82,563.28,757.89,562.63,757.93,562Z"/><path class="cls-2" d="M833.15,578.51a2.19,2.19,0,0,1-.59-1.88A2.19,2.19,0,0,1,833.15,578.51Z"/><path class="cls-2" d="M992.32,679.52a2,2,0,0,1,1.77-.64C993.65,679.56,993,679.48,992.32,679.52Z"/><path class="cls-2" d="M990.59,680.13c.46-.63,1.12-.6,1.77-.63C991.91,680.17,991.24,680.1,990.59,680.13Z"/><path class="cls-2" d="M988.84,680.75c.44-.69,1.11-.66,1.77-.63C990.19,680.87,989.5,680.77,988.84,680.75Z"/><path class="cls-2" d="M879.37,351.26c-.41.67-1,.57-1.66.57C878.11,351.13,878.76,351.26,879.37,351.26Z"/><path class="cls-2" d="M843.55,682.58c.65,0,1.32,0,1.77.63A1.9,1.9,0,0,1,843.55,682.58Z"/><path class="cls-2" d="M849.33,357.91c0,.21,0,.42,0,.63l-1.73.09C848,358,848.7,358,849.33,357.91Z"/><path class="cls-2" d="M970.36,358.63a1.85,1.85,0,0,1-1.78-.64C969.23,358,969.92,357.92,970.36,358.63Z"/><path class="cls-2" d="M847.63,358.61c-.45.66-1.13.59-1.77.63A2,2,0,0,1,847.63,358.61Z"/><path class="cls-2" d="M972.1,359.24a2.07,2.07,0,0,1-1.79-.64C971,358.64,971.66,358.55,972.1,359.24Z"/><path class="cls-2" d="M849.33,684.42a2,2,0,0,1,1.78.64C850.47,685,849.76,685.16,849.33,684.42Z"/><path class="cls-2" d="M760.21,468.86h-.58a2.45,2.45,0,0,1,.57-1.86c0,.22,0,.44,0,.66C760.22,468.07,760.22,468.47,760.21,468.86Z"/><path class="cls-2" d="M858,686.89l1.8.11c.08.1.15.21.22.31l-.18.34A2.69,2.69,0,0,1,858,686.89Z"/><path class="cls-2" d="M959.33,688.13c.46-.69,1.12-.54,1.76-.46V688Z"/><path class="cls-2" d="M845.9,359.22a1.94,1.94,0,0,1-1.77.63C844.58,359.22,845.26,359.27,845.9,359.22Z"/><path class="cls-2" d="M947.77,690c.58-.65,1.16-.81,1.75,0Z"/><path class="cls-2" d="M973.84,359.86a2.1,2.1,0,0,1-1.79-.64C972.7,359.25,973.39,359.17,973.84,359.86Z"/><path class="cls-2" d="M943.2,690.57c.61-.69,1.21-.72,1.79,0Z"/><path class="cls-2" d="M945.49,690.56a1.94,1.94,0,0,1,1.83-.6C946.88,690.73,946.16,690.55,945.49,690.56Z"/><path class="cls-2" d="M877.73,690.61c.61,0,1.24-.1,1.65.56C878.77,691.17,878.12,691.33,877.73,690.61Z"/><path class="cls-2" d="M880,691.19c.61-.78,1.2-.65,1.79,0Z"/><path class="cls-2" d="M938,691.2c.6-.67,1.2-.76,1.8,0Z"/><path class="cls-2" d="M940.89,691.17c.4-.65,1-.57,1.62-.56C942.14,691.34,941.49,691.17,940.89,691.17Z"/><path class="cls-2" d="M827.32,496c-.74-.58-.63-1.17,0-1.75C827.32,494.8,827.32,495.39,827.32,496Z"/><path class="cls-2" d="M882.86,691.2c.65,0,1.31-.06,1.75.6C884,691.74,883.27,692,882.86,691.2Z"/><path class="cls-2" d="M827.34,548.26c-.64-.43-.56-1.12-.55-1.77C827.51,546.89,827.29,547.62,827.34,548.26Z"/><path class="cls-2" d="M872.49,419.61c.53-.72,1.29-.63,2-.65A2.45,2.45,0,0,1,872.49,419.61Z"/><path class="cls-2" d="M936.26,350.63c-.56.75-1.14.7-1.72,0Z"/><path class="cls-2" d="M875.88,418.38c.48-.68,1.19-.62,1.87-.64-.25.56-.77.61-1.24.76l-.28.09-.26-.14Z"/><path class="cls-2" d="M844.16,359.84c-.24.53-.71.58-1.18.63-.19.25-.39.26-.57,0A1.94,1.94,0,0,1,844.16,359.84Z"/><path class="cls-2" d="M975.57,360.47c-.65,0-1.31,0-1.76-.63A2,2,0,0,1,975.57,360.47Z"/><path class="cls-2" d="M757.93,478.7a1.1,1.1,0,0,1,0,1.87C757.9,480,757.92,479.32,757.93,478.7Z"/><path class="cls-2" d="M757.37,557.08c.6.59.71,1.16,0,1.73Z"/><path class="cls-2" d="M842.41,360.46a3.62,3.62,0,0,1,.57,0,2,2,0,0,1-1.75.61A1.42,1.42,0,0,1,842.41,360.46Z"/><path class="cls-2" d="M887.55,415.29c.46-.69,1.11-.54,1.75-.48v.34Z"/><path class="cls-2" d="M977.31,361.09a1.82,1.82,0,0,1-1.78-.64C976.17,360.5,976.86,360.42,977.31,361.09Z"/><path class="cls-2" d="M853.42,356.76c-.45.66-1.12.62-1.77.63C852.1,356.72,852.78,356.8,853.42,356.76Z"/><path class="cls-2" d="M841.26,361.07a1.85,1.85,0,0,1-1.77.63A1.81,1.81,0,0,1,841.26,361.07Z"/><path class="cls-2" d="M827.83,491l-.38.06c-.09-.66-.19-1.33.46-1.78C827.88,489.81,827.85,490.39,827.83,491Z"/><path class="cls-2" d="M892.76,414.66c.43-.65,1.07-.61,1.7-.59C894.07,414.82,893.38,414.61,892.76,414.66Z"/><path class="cls-2" d="M966.88,357.39a2.17,2.17,0,0,1-1.86-.64C965.68,356.82,966.4,356.72,966.88,357.39Z"/><path class="cls-2" d="M929.14,626.59a1.76,1.76,0,0,1-1.76.55C927.83,626.48,928.49,626.57,929.14,626.59Z"/><path class="cls-2" d="M896.88,627.13a1.66,1.66,0,0,1-1.62-.52C895.85,626.61,896.48,626.47,896.88,627.13Z"/><path class="cls-2" d="M894.48,626.58c-.54.72-1.09.71-1.62,0Z"/><path class="cls-2" d="M887,350c-.47.65-1.13.61-1.8.58C885.69,349.94,886.37,350,887,350Z"/><path class="cls-2" d="M925.78,414c.61-.77,1.21-.64,1.79,0Z"/><path class="cls-2" d="M839.53,361.68a1.86,1.86,0,0,1-1.77.64C838.2,361.65,838.89,361.73,839.53,361.68Z"/><path class="cls-2" d="M938.58,351.22a1.23,1.23,0,0,1-1.21-.58A1.28,1.28,0,0,1,938.58,351.22Z"/><path class="cls-2" d="M877.13,351.79l-1.23,0C876.29,351.24,876.7,351.26,877.13,351.79Z"/><path class="cls-2" d="M873.13,351.85a1.28,1.28,0,0,1-1.25.58A1.47,1.47,0,0,1,873.13,351.85Z"/><path class="cls-2" d="M944.87,352.44a1.21,1.21,0,0,1-1.19-.6C944.15,351.88,944.62,351.93,944.87,352.44Z"/><path class="cls-2" d="M946.68,352.44l-1.25,0C945.86,351.86,946.27,351.94,946.68,352.44Z"/><path class="cls-2" d="M871.39,352.45c-.38.64-.78.62-1.19.05Z"/><path class="cls-2" d="M948.36,352.5c-.42.58-.82.55-1.2,0Z"/><path class="cls-2" d="M954.16,353.72c-.42.58-.82.48-1.21,0Z"/><path class="cls-2" d="M978.46,361.7a1.33,1.33,0,0,1-1.19-.63A1.39,1.39,0,0,1,978.46,361.7Z"/><path class="cls-2" d="M837.79,362.3a1.34,1.34,0,0,1-1.2.64A1.55,1.55,0,0,1,837.79,362.3Z"/><path class="cls-2" d="M981.36,362.94a1.37,1.37,0,0,1-1.2-.64A1.39,1.39,0,0,1,981.36,362.94Z"/><path class="cls-2" d="M836.64,362.91a1.45,1.45,0,0,1-1.29.65A1.64,1.64,0,0,1,836.64,362.91Z"/><path class="cls-2" d="M982.63,363.56a1.45,1.45,0,0,1-1.31-.64A1.64,1.64,0,0,1,982.63,363.56Z"/><path class="cls-2" d="M835,363.52a1.37,1.37,0,0,1-1.28.65A1.51,1.51,0,0,1,835,363.52Z"/><path class="cls-2" d="M984.26,364.17a1.37,1.37,0,0,1-1.3-.65A1.5,1.5,0,0,1,984.26,364.17Z"/><path class="cls-2" d="M833.74,364.14a1.4,1.4,0,0,1-1.19.64A1.4,1.4,0,0,1,833.74,364.14Z"/><path class="cls-2" d="M985.41,364.79a1.4,1.4,0,0,1-1.19-.64A1.5,1.5,0,0,1,985.41,364.79Z"/><path class="cls-2" d="M986.57,365.4a1.32,1.32,0,0,1-1.21-.64C985.84,364.82,986.32,364.87,986.57,365.4Z"/><path class="cls-2" d="M831.42,365.38a1.39,1.39,0,0,1-1.2.64A1.37,1.37,0,0,1,831.42,365.38Z"/><path class="cls-2" d="M987.73,366a1.34,1.34,0,0,1-1.2-.64A1.22,1.22,0,0,1,987.73,366Z"/><path class="cls-2" d="M830.24,366a1.42,1.42,0,0,1-1.16.63A1.32,1.32,0,0,1,830.24,366Z"/><path class="cls-2" d="M988.88,366.63a1.41,1.41,0,0,1-1.19-.63A1.28,1.28,0,0,1,988.88,366.63Z"/><path class="cls-2" d="M829.1,366.61a1.57,1.57,0,0,1-1.18.63A1.47,1.47,0,0,1,829.1,366.61Z"/><path class="cls-2" d="M990,367.25a1.4,1.4,0,0,1-1.2-.64A1.28,1.28,0,0,1,990,367.25Z"/><path class="cls-2" d="M827.94,367.23a1.56,1.56,0,0,1-1.18.63A1.44,1.44,0,0,1,827.94,367.23Z"/><path class="cls-2" d="M991.2,367.87a1.36,1.36,0,0,1-1.2-.64A1.29,1.29,0,0,1,991.2,367.87Z"/><path class="cls-2" d="M826.78,367.84a1.55,1.55,0,0,1-1.17.63A1.41,1.41,0,0,1,826.78,367.84Z"/><path class="cls-2" d="M992.35,368.47a1.22,1.22,0,0,1-1.18-.62A1.11,1.11,0,0,1,992.35,368.47Z"/><path class="cls-2" d="M825.62,368.46a1.35,1.35,0,0,1-1.16.62A1.24,1.24,0,0,1,825.62,368.46Z"/><path class="cls-2" d="M993.51,369.1a1.51,1.51,0,0,1-1.18-.64A1.51,1.51,0,0,1,993.51,369.1Z"/><path class="cls-2" d="M824.48,369.07a1.37,1.37,0,0,1-1.2.65A1.24,1.24,0,0,1,824.48,369.07Z"/><path class="cls-2" d="M994.67,369.71a1.29,1.29,0,0,1-1.2-.64A1.49,1.49,0,0,1,994.67,369.71Z"/><path class="cls-2" d="M823.32,369.69a1.34,1.34,0,0,1-1.2.64A1.34,1.34,0,0,1,823.32,369.69Z"/><path class="cls-2" d="M822.16,370.31a1.25,1.25,0,0,1-1.19.63A1.45,1.45,0,0,1,822.16,370.31Z"/><path class="cls-2" d="M996.4,370.93a1.47,1.47,0,0,1-1.17-.62A1.38,1.38,0,0,1,996.4,370.93Z"/><path class="cls-2" d="M997.57,371.56a1.31,1.31,0,0,1-1.2-.64A1.34,1.34,0,0,1,997.57,371.56Z"/><path class="cls-2" d="M820.42,371.54a1.46,1.46,0,0,1-1.19.64A1.27,1.27,0,0,1,820.42,371.54Z"/><path class="cls-2" d="M819.26,372.16a1.34,1.34,0,0,1-1.18.63A1.44,1.44,0,0,1,819.26,372.16Z"/><path class="cls-2" d="M817.52,373.39a1.44,1.44,0,0,1-1.18.64A1.37,1.37,0,0,1,817.52,373.39Z"/><path class="cls-2" d="M1002.19,374.64A1.27,1.27,0,0,1,1001,374,1.29,1.29,0,0,1,1002.19,374.64Z"/><path class="cls-2" d="M1003.93,375.87a1.29,1.29,0,0,1-1.19-.63A1.29,1.29,0,0,1,1003.93,375.87Z"/><path class="cls-2" d="M812.32,377.08a1.42,1.42,0,0,1-1.18.64A1.35,1.35,0,0,1,812.32,377.08Z"/><path class="cls-2" d="M779.31,414a1.51,1.51,0,0,1-.59,1.25A1.45,1.45,0,0,1,779.31,414Z"/><path class="cls-2" d="M891.05,414.66c.42-.58.84-.59,1.25,0Z"/><path class="cls-2" d="M928.61,414.05a1.24,1.24,0,0,1,1.21.6C929.35,414.61,928.84,414.63,928.61,414.05Z"/><path class="cls-2" d="M889.3,415.15a1.93,1.93,0,0,0,0-.34l1.13-.12A.9.9,0,0,1,889.3,415.15Z"/><path class="cls-2" d="M932.16,414.72a.72.72,0,0,1-1.21,0l0,0a.76.76,0,0,1,1.17,0Z"/><path class="cls-2" d="M932.61,414.66a1.28,1.28,0,0,1,1.25.61C933.38,415.22,932.86,415.25,932.61,414.66Z"/><path class="cls-2" d="M884.65,415.91a1.22,1.22,0,0,1,1.21-.52v.41Z"/><path class="cls-2" d="M885.86,415.8v-.41l1.12-.1A1,1,0,0,1,885.86,415.8Z"/><path class="cls-2" d="M935.59,415.27l.09.53a1.51,1.51,0,0,1-1.26-.47l0,0a.76.76,0,0,1,1.17,0Z"/><path class="cls-2" d="M938.47,415.89a1.3,1.3,0,0,1,1.2.62C939.2,416.46,938.72,416.44,938.47,415.89Z"/><path class="cls-2" d="M777.58,417.11a1.43,1.43,0,0,1-.6,1.27A1.4,1.4,0,0,1,777.58,417.11Z"/><path class="cls-2" d="M871.91,420.34c-.49-.91.3-.62.62-.76Z"/><path class="cls-2" d="M950.53,419.58a1.41,1.41,0,0,1,1.31.65A1.36,1.36,0,0,1,950.53,419.58Z"/><path class="cls-2" d="M869.59,420.84c.41-.56.83-.67,1.26,0Z"/><path class="cls-2" d="M868.44,421.46c.25-.53.72-.59,1.2-.64A1.29,1.29,0,0,1,868.44,421.46Z"/><path class="cls-2" d="M867.28,422.07a1.27,1.27,0,0,1,1.18-.62C868.22,422,867.74,422,867.28,422.07Z"/><path class="cls-2" d="M955.84,422.05a1.45,1.45,0,0,1,1.19.64A1.45,1.45,0,0,1,955.84,422.05Z"/><path class="cls-2" d="M957,422.66a1.47,1.47,0,0,1,1.2.65A1.36,1.36,0,0,1,957,422.66Z"/><path class="cls-2" d="M774.11,423.89a1.39,1.39,0,0,1-.6,1.26A1.35,1.35,0,0,1,774.11,423.89Z"/><path class="cls-2" d="M862.66,424.53a1.12,1.12,0,0,1,1.18-.63A1.12,1.12,0,0,1,862.66,424.53Z"/><path class="cls-2" d="M961.06,425.13c.46.05.94.09,1.17.63A1.41,1.41,0,0,1,961.06,425.13Z"/><path class="cls-2" d="M832.59,364.76a1.35,1.35,0,0,1-1.21.64A1.27,1.27,0,0,1,832.59,364.76Z"/><path class="cls-2" d="M759.05,473.64c.34.67-.1.73-.54.79Z"/><path class="cls-2" d="M758.93,476.18h-.37c0-.38,0-.76,0-1.14C759,475.27,759,475.71,758.93,476.18Z"/><path class="cls-2" d="M757.35,483.68a2.26,2.26,0,0,1,.52,0c0,.38,0,.75-.07,1.13h-.21l-.2,0C757.37,484.42,757.36,484.05,757.35,483.68Z"/><path class="cls-2" d="M757.26,489.76l-.24,0-.25,0c0-.47,0-.94.52-1.15Z"/><path class="cls-2" d="M827.88,553.18l-.23,0h-.23c0-.39,0-.77,0-1.15C827.88,552.25,827.89,552.71,827.88,553.18Z"/><path class="cls-2" d="M758.49,566.24c.52.4.63.8,0,1.2C758.5,567,758.49,566.64,758.49,566.24Z"/><path class="cls-2" d="M759.07,569.92c.55.4.63.79,0,1.2C759.07,570.72,759.07,570.32,759.07,569.92Z"/><path class="cls-2" d="M759.67,573.09c.36.35.63.71,0,1.06Z"/><path class="cls-2" d="M761.47,583.43l.5,0a2.47,2.47,0,0,1,.13.52c0,.07-.11.15-.17.23Z"/><path class="cls-2" d="M839.53,593.3a1.44,1.44,0,0,1-.6-1.27A1.44,1.44,0,0,1,839.53,593.3Z"/><path class="cls-2" d="M841.26,596.37a1.54,1.54,0,0,1-.59-1.26A1.48,1.48,0,0,1,841.26,596.37Z"/><path class="cls-2" d="M857.47,613.61a1.43,1.43,0,0,1-1.18-.64A1.36,1.36,0,0,1,857.47,613.61Z"/><path class="cls-2" d="M859.21,614.84a1.43,1.43,0,0,1-1.19-.64A1.26,1.26,0,0,1,859.21,614.84Z"/><path class="cls-2" d="M862.1,616.68a1.27,1.27,0,0,1-1.18-.63A1.18,1.18,0,0,1,862.1,616.68Z"/><path class="cls-2" d="M863.27,617.31a1.37,1.37,0,0,1-1.2-.64A1.33,1.33,0,0,1,863.27,617.31Z"/><path class="cls-2" d="M864.43,617.92a1.45,1.45,0,0,1-1.2-.64A1.58,1.58,0,0,1,864.43,617.92Z"/><path class="cls-2" d="M865.58,618.54a1.53,1.53,0,0,1-1.19-.64A1.57,1.57,0,0,1,865.58,618.54Z"/><path class="cls-2" d="M866.73,619.15a1.44,1.44,0,0,1-1.18-.64A1.38,1.38,0,0,1,866.73,619.15Z"/><path class="cls-2" d="M867.9,619.77a1.35,1.35,0,0,1-1.2-.64A1.24,1.24,0,0,1,867.9,619.77Z"/><path class="cls-2" d="M963.52,619.13a1.38,1.38,0,0,1-1.3.63A1.34,1.34,0,0,1,963.52,619.13Z"/><path class="cls-2" d="M870.79,621a1.4,1.4,0,0,1-1.19-.64A1.47,1.47,0,0,1,870.79,621Z"/><path class="cls-2" d="M885.27,625.31a1.39,1.39,0,0,1-1.21-.6A1.35,1.35,0,0,1,885.27,625.31Z"/><path class="cls-2" d="M942,624.73a1.44,1.44,0,0,1-1.24.58A1.37,1.37,0,0,1,942,624.73Z"/><path class="cls-2" d="M943.73,624.67c-.42.45-.84.67-1.26,0Z"/><path class="cls-2" d="M886.48,625.3c-.42.66-.84.43-1.25,0Z"/><path class="cls-2" d="M888.29,625.93a1.43,1.43,0,0,1-1.29-.59A1.45,1.45,0,0,1,888.29,625.93Z"/><path class="cls-2" d="M938,625.31a1.2,1.2,0,0,1-1.19.58A1.33,1.33,0,0,1,938,625.31Z"/><path class="cls-2" d="M940.17,625.34c-.38.51-.76.6-1.13,0Z"/><path class="cls-2" d="M889.92,626c-.4.64-.79.5-1.18,0Z"/><path class="cls-2" d="M892.17,626.5a1.18,1.18,0,0,1-1.18-.57A1.26,1.26,0,0,1,892.17,626.5Z"/><path class="cls-2" d="M933.86,625.94a1.26,1.26,0,0,1-1.23.58C932.91,626,933.38,626,933.86,625.94Z"/><path class="cls-2" d="M936.12,626c-.38.58-.75.62-1.13,0Z"/><path class="cls-2" d="M931.54,626.55c-.38.58-.78.66-1.18,0Z"/><path class="cls-2" d="M779.87,630.22a1.35,1.35,0,0,1,.59,1.25A1.26,1.26,0,0,1,779.87,630.22Z"/><path class="cls-2" d="M1023.57,665.36a1.25,1.25,0,0,1,1.21-.65A1.25,1.25,0,0,1,1023.57,665.36Z"/><path class="cls-2" d="M1018.39,668.42c.22-.56.71-.57,1.17-.63A1.38,1.38,0,0,1,1018.39,668.42Z"/><path class="cls-2" d="M1017.21,669.05a1.2,1.2,0,0,1,1.19-.64A1.2,1.2,0,0,1,1017.21,669.05Z"/><path class="cls-2" d="M1016.05,669.66c.25-.54.72-.6,1.2-.64A1.2,1.2,0,0,1,1016.05,669.66Z"/><path class="cls-2" d="M1014.89,670.28a1.3,1.3,0,0,1,1.19-.63C1015.84,670.21,1015.36,670.22,1014.89,670.28Z"/><path class="cls-2" d="M818.07,670.25a1.31,1.31,0,0,1,1.21.65A1.24,1.24,0,0,1,818.07,670.25Z"/><path class="cls-2" d="M822.12,672.72a1.19,1.19,0,0,1,1.2.64A1.2,1.2,0,0,1,822.12,672.72Z"/><path class="cls-2" d="M823.28,673.33a1.26,1.26,0,0,1,1.2.65A1.22,1.22,0,0,1,823.28,673.33Z"/><path class="cls-2" d="M824.44,674a1.29,1.29,0,0,1,1.2.64A1.26,1.26,0,0,1,824.44,674Z"/><path class="cls-2" d="M1006.21,674.7c-.49-.91.3-.61.63-.75Z"/><path class="cls-2" d="M825.6,674.57a1.3,1.3,0,0,1,1.2.64A1.28,1.28,0,0,1,825.6,674.57Z"/><path class="cls-2" d="M1003.89,675.21c.4-.57.82-.66,1.24,0Z"/><path class="cls-2" d="M826.75,675.18a1.3,1.3,0,0,1,1.2.64A1.27,1.27,0,0,1,826.75,675.18Z"/><path class="cls-2" d="M827.91,675.8a1.23,1.23,0,0,1,1.2.64A1.22,1.22,0,0,1,827.91,675.8Z"/><path class="cls-2" d="M999.26,677.06a1.36,1.36,0,0,1,1.28-.64A1.34,1.34,0,0,1,999.26,677.06Z"/><path class="cls-2" d="M833.11,678.26a1.57,1.57,0,0,1,1.32.66A1.4,1.4,0,0,1,833.11,678.26Z"/><path class="cls-2" d="M834.75,678.88a1.53,1.53,0,0,1,1.31.64A1.51,1.51,0,0,1,834.75,678.88Z"/><path class="cls-2" d="M836,679.49a1.66,1.66,0,0,1,1.32.66A1.44,1.44,0,0,1,836,679.49Z"/><path class="cls-2" d="M837.64,680.11a1.54,1.54,0,0,1,1.32.64A1.42,1.42,0,0,1,837.64,680.11Z"/><path class="cls-2" d="M970.91,685.71l1.1,0C971.63,686.19,971.26,686.12,970.91,685.71Z"/><path class="cls-2" d="M966.83,686.89a1.38,1.38,0,0,1,1.22-.62C967.79,686.8,967.31,686.85,966.83,686.89Z"/><path class="cls-2" d="M862.15,688.22l1.1-.05C862.9,688.58,862.53,688.66,862.15,688.22Z"/><path class="cls-2" d="M955.84,688.75c.39-.56.79-.57,1.21,0Z"/><path class="cls-2" d="M957.6,688.72c.25-.49.7-.54,1.15-.58A1.15,1.15,0,0,1,957.6,688.72Z"/><path class="cls-2" d="M865,688.82h1.11C865.77,689.21,865.4,689.26,865,688.82Z"/><path class="cls-2" d="M866.59,688.73a1.36,1.36,0,0,1,1.23.59C867.33,689.3,866.85,689.27,866.59,688.73Z"/><path class="cls-2" d="M868.37,689.36c.42-.6.84-.49,1.25,0Z"/><path class="cls-2" d="M954.13,689.22a1.82,1.82,0,0,0,0-.33l1.16-.14A.92.92,0,0,1,954.13,689.22Z"/><path class="cls-2" d="M870.1,689.35a1.33,1.33,0,0,1,1.19.58C870.82,689.91,870.34,689.9,870.1,689.35Z"/><path class="cls-2" d="M950.16,689.93a1.17,1.17,0,0,1,1.14-.58C951.08,689.92,950.62,689.92,950.16,689.93Z"/><path class="cls-2" d="M873.12,690a.72.72,0,0,1-1.21,0v0a.76.76,0,0,1,1.17,0Z"/><path class="cls-2" d="M874.8,690.16v.26c-.5.12-.95.12-1.22-.45Z"/><path class="cls-2" d="M1009.69,672.74c.25-.52.72-.58,1.2-.64A1.25,1.25,0,0,1,1009.69,672.74Z"/><path class="cls-2" d="M940.81,416.51c0,.19,0,.38,0,.56l-.62-.51,0,0a.37.37,0,0,1,.6,0Z"/><path class="cls-2" d="M1017.79,416.53l.62-.65Z"/><path class="cls-2" d="M1018.37,415.92l.62-.66Z"/><path class="cls-2" d="M1019,415.3l.8-.66Z"/><path class="cls-2" d="M790.29,645.61l.62.66Z"/><path class="cls-2" d="M790.87,646.23l.61.66Z"/><path class="cls-2" d="M916.52,413.39l.57-.55c.37.19.38.39,0,.6l0,.11C916.89,413.49,916.71,413.43,916.52,413.39Z"/><path class="cls-2" d="M1025.32,409.14l.62-.66Z"/><path class="cls-2" d="M983.06,445.45l.61.65Z"/><path class="cls-2" d="M1025.89,408.53l.62-.66Z"/><path class="cls-2" d="M800.52,656.68l.8.67Z"/><path class="cls-2" d="M1026.47,407.91l.62-.66Z"/><path class="cls-2" d="M801.28,657.31l.62.66Z"/><path class="cls-2" d="M804.18,659.78l.61.65Z"/><path class="cls-2" d="M807.08,662.24l.61.66Z"/><path class="cls-2" d="M1026.47,663.51c.19-.38.4-.41.63,0Z"/><path class="cls-2" d="M964.66,356.77l-.72-.61Z"/><path class="cls-2" d="M963.41,356.19c-.23.3-.43.28-.62-.05Z"/><path class="cls-2" d="M1027.05,407.29l.8-.66Z"/><path class="cls-2" d="M815.75,669c.22-.37.43-.37.62,0Z"/><path class="cls-2" d="M784.54,406l-.62.66Z"/><path class="cls-2" d="M858.64,354.94l-.62.6Z"/><path class="cls-2" d="M955.36,354.29l-.68-.59Z"/><path class="cls-2" d="M786.27,403.55l-.62.67Z"/><path class="cls-2" d="M949.56,353.05l-.67-.58Z"/><path class="cls-2" d="M869.64,352.47l-.67.58Z"/><path class="cls-2" d="M979.58,441.13l.62.66Z"/><path class="cls-2" d="M979,440.51l.62.66Z"/><path class="cls-2" d="M762,584.66c.07.14.16.27.22.42s-.13.11-.2.17A3.84,3.84,0,0,1,762,584.66Z"/><path class="cls-2" d="M1029.4,402.37l-.61-.66Z"/><path class="cls-2" d="M788,401.09l-.62.67Z"/><path class="cls-2" d="M763,587.66h-.41a2.1,2.1,0,0,1-.08-.56A.55.55,0,0,1,763,587.66Z"/><path class="cls-2" d="M788.58,400.47l-.61.66Z"/><path class="cls-2" d="M1027.66,399.89l-.6-.63Z"/><path class="cls-2" d="M790.91,397.4l-.63.66Z"/><path class="cls-2" d="M791.49,396.78l-.62.66Z"/><path class="cls-2" d="M1025.34,396.81l-.59-.63A.8.8,0,0,1,1025.34,396.81Z"/><path class="cls-2" d="M986,448l.62-.66Z"/><path class="cls-2" d="M993.48,440.55l.62-.65C993.89,440.12,993.68,440.33,993.48,440.55Z"/><path class="cls-2" d="M792.06,396.17c-.21.21-.41.43-.61.65Z"/><path class="cls-2" d="M841.85,597l-.62-.67Z"/><path class="cls-2" d="M984.75,682.5c0-.18,0-.36,0-.54l.54.13Z"/><path class="cls-2" d="M1024.77,396.21l-.62-.66Z"/><path class="cls-2" d="M966.32,687a.41.41,0,0,1-.65,0l0-.05a.36.36,0,0,1,.59,0Z"/><path class="cls-2" d="M860.39,687.57c-.16.18-.34.25-.54.08l-.06-.23a.41.41,0,0,1,.58.1Z"/><path class="cls-2" d="M961.09,688a1.71,1.71,0,0,0,0-.32l.58-.15C961.59,687.84,961.41,688,961.09,688Z"/><path class="cls-2" d="M1020.72,391.28a.9.9,0,0,1-.62-.66A.83.83,0,0,1,1020.72,391.28Z"/><path class="cls-2" d="M844.74,601.3l-.61-.66Z"/><path class="cls-2" d="M845.32,601.93c-.2-.23-.41-.45-.62-.67Z"/><path class="cls-2" d="M1020.14,390.66l-.61-.65A.85.85,0,0,1,1020.14,390.66Z"/><path class="cls-2" d="M1019.56,390.05l-.61-.66A.89.89,0,0,1,1019.56,390.05Z"/><path class="cls-2" d="M849,606.24a1.34,1.34,0,0,1-.87-.88Z"/><path class="cls-2" d="M978.43,439.9l.61.66Z"/><path class="cls-2" d="M1019,389.44l-.61-.66A.84.84,0,0,1,1019,389.44Z"/><path class="cls-2" d="M1018.4,388.82l-.61-.66A.87.87,0,0,1,1018.4,388.82Z"/><path class="cls-2" d="M1017.83,388.2l-.62-.65A.89.89,0,0,1,1017.83,388.2Z"/><path class="cls-2" d="M853.42,610.53a.76.76,0,0,1-.6-.63A.74.74,0,0,1,853.42,610.53Z"/><path class="cls-2" d="M854,611.16l-.62-.65Z"/><path class="cls-2" d="M856.33,613c-.21-.21-.42-.43-.62-.65Z"/><path class="cls-2" d="M986.53,447.33l.62-.66Z"/><path class="cls-2" d="M858.06,614.24l-.63-.66Z"/><path class="cls-2" d="M1017.25,387.59a.8.8,0,0,1-.62-.66A.74.74,0,0,1,1017.25,387.59Z"/><path class="cls-2" d="M1016.67,387a.84.84,0,0,1-.62-.66A.84.84,0,0,1,1016.67,387Z"/><path class="cls-2" d="M994.06,439.94l.61-.66Z"/><path class="cls-2" d="M1016.08,386.34l-.6-.63Z"/><path class="cls-2" d="M977.84,439.28a.9.9,0,0,1,.62.66Z"/><path class="cls-2" d="M994.63,439.32l.62-.65Z"/><path class="cls-2" d="M977.26,438.67a.89.89,0,0,1,.62.65Z"/><path class="cls-2" d="M995.21,438.7l.8-.66Z"/><path class="cls-2" d="M976.69,438.05a.89.89,0,0,1,.61.66Z"/><path class="cls-2" d="M802.48,385.09l-.86.66Z"/><path class="cls-2" d="M803.06,384.46l-.62.67A.83.83,0,0,1,803.06,384.46Z"/><path class="cls-2" d="M803.64,383.85l-.61.64Z"/><path class="cls-2" d="M846.45,438.7l.61-.65Z"/><path class="cls-2" d="M1012.62,383.28l-.62-.66Z"/><path class="cls-2" d="M1012,382.66l-.63-.66Z"/><path class="cls-2" d="M775.24,622.21l.61.65Z"/><path class="cls-2" d="M806,382l-.61.65Z"/><path class="cls-2" d="M806.53,381.39a.75.75,0,0,1-.61.64A.77.77,0,0,1,806.53,381.39Z"/><path class="cls-2" d="M976.11,437.44a.89.89,0,0,1,.61.65Z"/><path class="cls-2" d="M1009.15,380.2l-.63-.67Z"/><path class="cls-2" d="M808.85,379.54c-.21.22-.41.44-.62.65C808.44,380,808.64,379.76,808.85,379.54Z"/><path class="cls-2" d="M1006.83,378.35l-.62-.66Z"/><path class="cls-2" d="M883.6,624.68c-.28.47-.55.36-.82,0Z"/><path class="cls-2" d="M847,438.09l.61-.65Z"/><path class="cls-2" d="M975.53,436.82a.92.92,0,0,1,.62.66Z"/><path class="cls-2" d="M975,436.2l.61.66Z"/><path class="cls-2" d="M811.17,377.68l-.63.67Z"/><path class="cls-2" d="M974.37,435.59l.62.65Z"/><path class="cls-2" d="M973.79,435l.62.66Z"/><path class="cls-2" d="M973.22,434.37c.2.21.4.43.61.64C973.62,434.8,973.42,434.58,973.22,434.37Z"/><path class="cls-2" d="M849.34,435l.62-.66Z"/><path class="cls-2" d="M972.71,434.31c0-.19,0-.37-.05-.56a.81.81,0,0,1,.6.65A1.48,1.48,0,0,1,972.71,434.31Z"/><path class="cls-2" d="M851.65,433.16l.62-.66Z"/><path class="cls-2" d="M1001.58,432.55l.62-.66Z"/><path class="cls-2" d="M852.23,432.55l.62-.66Z"/><path class="cls-2" d="M812.9,376.46c-.21.22-.41.44-.62.65Z"/><path class="cls-2" d="M1002.16,431.93l.62-.65Z"/><path class="cls-2" d="M1004.52,376.51l-.63-.67Z"/><path class="cls-2" d="M1002.78,375.27l-.63-.66Z"/><path class="cls-2" d="M969.74,431.28l.61.65Z"/><path class="cls-2" d="M818.1,372.77a.78.78,0,0,1-.6.64A.79.79,0,0,1,818.1,372.77Z"/><path class="cls-2" d="M852.81,431.93l.61-.65Z"/><path class="cls-2" d="M1002.74,431.32c.26-.23.53-.45.8-.67C1003.27,430.87,1003,431.09,1002.74,431.32Z"/><path class="cls-2" d="M821,370.91l-.63.66Z"/><path class="cls-2" d="M1009.69,424.54l.61-.65Z"/><path class="cls-2" d="M995.26,370.34l-.64-.66Z"/><path class="cls-2" d="M1010.26,423.93l.62-.66Z"/><path class="cls-2" d="M774.69,423.11l-.59.79Z"/><path class="cls-2" d="M1010.84,423.31l.8-.67Z"/><path class="cls-2" d="M876,418.45a1.4,1.4,0,0,1,.54.05A.35.35,0,0,1,876,418.45Z"/><path class="cls-2" d="M987.11,446.71l.8-.66Z"/><path class="cls-2" d="M1017.21,417.15l.62-.66Z"/><path class="cls-2" d="M391.64,511.14h68.88c3.5,0,3.06-.42,3.12,3.25a245.22,245.22,0,0,1-2.5,40.17A214.91,214.91,0,0,1,446,608.3q-31.21,71.93-98.4,106.21a179,179,0,0,1-56.78,18c-50.67,7.23-97.66-3.66-140.26-33.74-42.36-29.92-70-71.47-83.14-123.76a212.56,212.56,0,0,1-6.55-57.22q2.34-98.46,72.94-162.39a190.74,190.74,0,0,1,83.28-44.06,182.07,182.07,0,0,1,44.43-5.41c2.79,0,5.59.27,8.38.33,1.26,0,1.67.59,1.66,1.87q0,8.16,0,16.32c0,1.34-.51,1.79-1.72,1.79-4.05,0-8.11,0-12.15.17-43.42,1.29-81.76,16.78-114.68,47a192.27,192.27,0,0,0-52.49,80.52,200.24,200.24,0,0,0-10.38,50.29,205.47,205.47,0,0,0,9,78.82,193.07,193.07,0,0,0,39.88,69.94c19.56,22,42.49,38.75,69.21,49.46a167.17,167.17,0,0,0,59.85,12.28c50,.85,93.28-17.08,129.66-53.44,21.75-21.74,37.3-47.9,46.94-78a198.89,198.89,0,0,0,9.2-48.68c.25-4.14.18-4.14-3.68-4.14H323.35c-3.47,0-3.47,0-3.47-3.78,0-4.52,0-9,0-13.55,0-1.39.26-2.16,1.74-2a15.13,15.13,0,0,0,2,0Z"/><path class="cls-2" d="M252.43,520.63q0-54.33,0-108.64c0-4.07-.51-3.72,3.61-3.72,4.72,0,9.45,0,14.18,0,1.37,0,2,.39,1.81,1.9-.08.81,0,1.64,0,2.46q0,97.9,0,195.82c0,4.45-.66,4,3.62,4q20.4,0,40.8,0c.68,0,1.35,0,2,0,1,0,1.39.38,1.39,1.44q0,8.77,0,17.55c0,1.09-.52,1.43-1.43,1.41h-62.8c-3.65,0-3.22.23-3.22-3.52Q252.41,574.94,252.43,520.63Z"/><path class="cls-2" d="M185.37,408.28c15.82-.14,28.68,13.36,28.86,30.28.18,16.73-12.69,30.68-28.41,30.81-16.19.14-29.29-13.48-29.35-30.49S169.19,408.42,185.37,408.28Z"/><path class="cls-2" d="M902.08,627.71l3.42.12C904.34,628.42,903.18,628.93,902.08,627.71Z"/><path class="cls-2" d="M918.86,627.77l3.39,0C921.14,628.91,920,628.47,918.86,627.77Z"/><path class="cls-2" d="M907.89,349.34l4,.06A3.19,3.19,0,0,1,907.89,349.34Z"/><path class="cls-2" d="M925.18,692.55c-.88-.16-1.82.15-3-.57,1.31-.16,2.27-.44,3.12.46Z"/><path class="cls-2" d="M893.34,692.42c.77-.88,1.68-.63,3-.33a6,6,0,0,1-3,.36Z"/><path class="cls-2" d="M917.1,413.44a2.41,2.41,0,0,1,0-.6h2.54C918.85,413.63,918,413.44,917.1,413.44Z"/><path class="cls-2" d="M924.07,350l2.84.1C926,350.56,925,351.28,924.07,350Z"/><path class="cls-2" d="M932.14,414.67H931C931.36,414,931.75,414.2,932.14,414.67Z"/><path class="cls-2" d="M935.61,415.28h-1.17C934.82,414.57,935.21,414.82,935.61,415.28Z"/><path class="cls-2" d="M873.09,690h-1.17C872.31,689.32,872.7,689.51,873.09,690Z"/><path class="cls-2" d="M940.83,416.52h-.6C940.43,416.08,940.63,416.15,940.83,416.52Z"/><path class="cls-2" d="M1020.7,413.34c0,.21,0,.41,0,.62C1020,413.7,1020.49,413.53,1020.7,413.34Z"/><path class="cls-2" d="M799.62,656c0-.18,0-.37,0-.55C799.83,655.62,800.23,655.77,799.62,656Z"/><path class="cls-2" d="M988.86,444.76a6,6,0,0,0,0,.61C988.16,445.11,988.65,444.94,988.86,444.76Z"/><path class="cls-2" d="M966.29,686.9h-.59C965.9,686.49,966.1,686.46,966.29,686.9Z"/><path class="cls-2" d="M860.37,687.52l-.58-.1c0-.14,0-.28,0-.42Z"/></svg>