<svg id="Capa_1" data-name="Capa 1" xmlns="http://www.w3.org/2000/svg" viewBox="0 0 1080 1080"><defs><style>.cls-1{fill:#141414;}.cls-2{fill:#e0e0e0;}</style></defs><rect class="cls-1" width="1080" height="1080"/><path class="cls-2" d="M203.64,681.77l-8.8,67.28s43-.57,78-16.23,77.67-72.48,70.89-115.62-39.43-58.66-57-70.81-19.33-26.76-5-40.17,41.41-19.32,66.19,5l6.37-52.76s-57-9.1-103.67,30.87-33.08,89.11-17.78,106,46.38,16.13,53.75,39.28-3.34,46.25-31.27,53.66-33.65,4.27-51.77-6.46ZM390.5,720s5.11-40.13,9-86.31c8.69-98,14.06-106.58,25.84-110.32s13.16,9.11,15.87,20.64c8.74,37.72-28.34,106.53-35.78,116.37-8.48,9.78-5.32,8.74-2.81,7.63,82.5-36.35,87.81-112.74,86.51-125.6-6.68-58-40.21-52.15-57-46.56s-68.28,27.07-68.28,27.07L340.66,741.15ZM538.23,609.08S549,513.87,549.66,505.82C560.25,473,590,472,590,472l5.6-49.71s-9.17.65-26.29,11-28.18,38-28.18,38l1.13-23.92-35.79,14L487.51,629.71Zm70-191.22-18.54,168.5,51.78-20.3L659.82,397Zm86.18-63.81-2.28,30.22L670,391.65,666.29,432l21.76-7.59L672.72,552.06l50.34-20.85L737.3,402l24.28-10.18,3.69-39.11-24.43,9.59,5.9-49.79Zm184.23,59.86c-1.42,3.65-22.85,45.66-48.67,45.57s-24-28.62-20.53-46.27,13.84-67.73,29.62-68.94c7,.89,10.45,11-4.67,47.25-2.71,7.67-6.56,14.72-20.73,30-.82,4,.61,8,32.12-13.29s38.64-50.35,34.12-70.19-34.16-18.57-50.48-10S767,363.56,756.23,438.94c-2.68,13.64-.65,68.8,53.07,59C828,494.33,867.54,473,885,419.39c.31-3.55-4.85-9.36-6.35-5.48ZM657.87,331.33c-11.11-6.12-28.43,3.18-38.69,20.79s-9.57,36.83,1.54,42.95,28.43-3.18,38.69-20.79S669,337.45,657.87,331.33Zm359.41,256.4C486.15,472.07,329.5,969,329.5,969,196.33,697.32,35,785.39,35,785.39c259.24-174.94,70.13-435.54,70.13-435.54C562.3,569.05,780.26,53.6,780.26,53.6s-8,186.69,67.07,200.55,172.27-53.31,172.27-53.31C814.52,424.7,1017.28,587.73,1017.28,587.73ZM953,262.07s-182.39,91.35-191.38-111.4c0,0-188.32,390-613.34,230.67,0,0,145.55,220.87-86.69,388.49,0,0,178.11-57.27,261.8,108.93,0,0,187-386.64,658.69-315.61,0,0-146-131.51-29.08-301.08ZM888.45,486.66a12.79,12.79,0,1,0-9,15.44A12.65,12.65,0,0,0,888.45,486.66Zm-1.74.48a11,11,0,1,1-13.44-7.41A10.86,10.86,0,0,1,886.71,487.14Zm-4.49-2.45a4.7,4.7,0,0,1-3.44,5.09l4.21,5.73-3.75,1-.62-.81L875.27,491l-1.5.41.41,6.59-3.19.88-.46-6.77-.45-8.94,5.62-1.55c3.94-1.09,6.31-.57,6.52,3.12Zm-6.56-.36-2.24.62.25,3.88,2.82-.78c1.5-.42,2.34-1,2.25-2.79C878.53,483.74,877,484,875.66,484.33Z"/></svg>