<svg id="Capa_1" data-name="Capa 1" xmlns="http://www.w3.org/2000/svg" viewBox="0 0 1080 1080"><defs><style>.cls-1{fill:#141414;}.cls-2{fill:#e0e0e0;}</style></defs><rect class="cls-1" width="1080" height="1080"/><path class="cls-2" d="M726.73,866.84H703.9a.72.72,0,0,1,.36-1,81.52,81.52,0,0,1,22.12,0A.73.73,0,0,1,726.73,866.84Z"/><path class="cls-2" d="M696.77,866.84c0-.2,0-.39,0-.59,1.23-1.13,2.62-1,4-.39a.66.66,0,0,1,.25,1Z"/><path class="cls-2" d="M701.05,866.84c0-.18,0-.36-.08-.54a2,2,0,0,1,2.89-.06c0,.2,0,.4,0,.6Z"/><path class="cls-2" d="M733.17,866.26c0,.19,0,.38,0,.58H730.3a.61.61,0,0,1,.18-.93A2.18,2.18,0,0,1,733.17,866.26Z"/><path class="cls-2" d="M726.73,866.84q0-.3,0-.6a1.63,1.63,0,0,1,2-.28.56.56,0,0,1,.11.88Z"/><path class="cls-2" d="M728.87,866.84a2.78,2.78,0,0,1,0-.58,1,1,0,0,1,1.42,0,4.89,4.89,0,0,0,0,.54Z"/><path class="cls-2" d="M738,536c0-25.29,5.25-49.54,18-72.12,18.57-32.81,47.91-52.74,87.61-60.07a160.34,160.34,0,0,1,42.56-2.32c47.24,3.94,81.7,25.34,103.15,63.91a122.47,122.47,0,0,1,15.09,52.38c1.35,20.85-.62,41.32-7.42,61.31-6.57,19.33-17,36.67-32.72,51.13-18,16.57-39.71,26.84-64.86,31.17a174.78,174.78,0,0,1-39.36,2.5c-32.6-1.79-61-12.37-83.88-34-17.22-16.31-27.91-35.93-33.8-57.8C739.19,560,738.05,550,738,536Z"/><path class="cls-2" d="M636.44,536.49h6c10.22,0,20.44-.08,30.66.15a37.59,37.59,0,0,1,27.17,11.8,25.22,25.22,0,0,1,7.44,19.73,202.56,202.56,0,0,0,.07,20.47c.47,11.39.23,22.73-2.36,34-3.87,16.78-14.37,28.93-30.76,37.06-11.1,5.5-23.07,8.45-35.49,10.19a224.86,224.86,0,0,1-29.44,2.27c-38,.33-73.26-8.05-103.81-29.43-27.43-19.2-44.27-44.49-50.39-75.64-5-25.36-3.33-50.29,6.27-74.57,13.19-33.35,38.06-57.2,72.63-72.91,16.3-7.41,33.66-11.73,51.55-14.45a190.62,190.62,0,0,1,34.42-2.32c13.81.42,27.49,1.79,40.55,6.33,12.56,4.36,23.61,10.66,31.75,20.67a42.14,42.14,0,0,1,9.83,25.31c.31,7.26-.17,14.52,0,21.78,0,1.68-.78,1.9-2.34,2A16.55,16.55,0,0,1,690,476.33c-13.23-8.28-28.1-13-43.75-15.76a177.33,177.33,0,0,0-41.85-2.67c-21.17,1.3-40.07,7.91-55.72,21.28-13.21,11.29-21.14,25.19-23.83,41.5a97.79,97.79,0,0,0,4.47,49.09c8.16,23.18,25.59,37.71,51.27,44.11,12.74,3.17,25.76,3.84,38.87,3.17a38,38,0,0,0,12.44-2.63c6-2.41,9.21-6.41,9.33-12.6.19-9.75.66-19.48.13-29.24a189.38,189.38,0,0,0-4.39-33.16C636.75,538.58,636.65,537.72,636.44,536.49Z"/><path class="cls-2" d="M259.65,597.07c-.26,10.39,1.3,20.65-.68,30.9-2.22,11.45-9,19.86-20,25.5a71.42,71.42,0,0,1-26.1,7.13A153.26,153.26,0,0,1,163,657.4c-17.31-4-32.53-11.34-44.38-23.9-9.68-10.27-15.54-22.2-18.87-35.25a118.51,118.51,0,0,1-3.65-29.31q0-76.22,0-152.44A83.35,83.35,0,0,1,99,393.33a44.15,44.15,0,0,1,7.33-14.71c6.12-8,12.8-15.59,21.44-21.57a41.42,41.42,0,0,1,24.13-7.59c3.21,0,6.42,0,9.63.06,3,.05,3,.08,3,2.67,0,1.84,0,3.68,0,5.53v44.85c0,.76.05,1.52,0,2.28-.08,1.23.51,1.79,1.88,1.71.83,0,1.66,0,2.49,0h87c4,0,3.93,0,3.84,3.7,0,2.49,0,5,.12,7.47a108.69,108.69,0,0,1-.53,17.86c-.87,8.05-5.57,14.18-12.53,18.88a43.89,43.89,0,0,1-24.62,7.42c-17.7.2-35.41.18-53.12,0-.47,0-1,0-1.43,0-3.07,0-3.12,0-3.12,2.86q0,50.38,0,100.77A49,49,0,0,0,168.12,584c4.68,11.56,13.78,18.41,27,20.77a80.94,80.94,0,0,0,20.22,1c5.91-.43,11.86-.45,17.74-1.35a110.6,110.6,0,0,0,22.78-6.31c.87-.34,1.74-.69,2.62-1A5.81,5.81,0,0,1,259.65,597.07Z"/><path class="cls-2" d="M730.33,866.3l-1.42,0-2.15,0h-22.9l-2.89.06-4.22,0a248,248,0,0,1-69.16-15.83c-29.85-11.71-55.63-28.5-76.69-51.17a89.41,89.41,0,0,1-24-51.84c-1.43-12.33-.6-24.67-.31-37a2.25,2.25,0,0,1,.6-1.83c1.19.42,1.67,1.49,2.39,2.31a342.57,342.57,0,0,0,33.51,33.69c28,24.1,60.32,40.83,98.09,48.44a233.47,233.47,0,0,0,44.18,4.5c29.75.27,58.69-3.74,86.69-13.08a228.17,228.17,0,0,0,69.09-36.94c12.37-9.69,22.62-21,32.44-32.73,1.63-2,3.28-3.9,4.84-5.75,1,.28.87.75.87,1.16.08,9.1.31,18.2.2,27.3-.34,27.17-11.25,50.44-31.77,70-17.29,16.46-37.68,29.07-60,39.18a231.29,231.29,0,0,1-66.4,18.76c-2.71.35-5.43.6-8.14.89Z"/><path class="cls-2" d="M309.63,503.69V416.26c0-.65.05-1.31,0-1.95-.14-1.49.44-2.17,2.21-2.11,9.26.28,18.53-.36,27.77.71,21,2.45,34,14.5,37.61,33.31a50.92,50.92,0,0,1,.77,9.7q0,56.07,0,112.14a111.91,111.91,0,0,0,1.36,19.43c1.64,9.47,7.06,16.12,17.26,19.25a54.91,54.91,0,0,0,14.62,2.61c6.18.16,12.36.12,18.54.17,3.19,0,3.26,0,3.24,2.79-.07,7.25.46,14.52-.84,21.73-.3,1.7-.65,3.41-1.11,5.09-3.4,12.42-12.54,19.1-26.05,20.83a108.14,108.14,0,0,1-49.13-4.55c-21.48-7.31-34.76-21.6-41.43-41.32-3.63-10.77-4.79-21.85-4.81-33C309.59,555.26,309.63,529.48,309.63,503.69Z"/><path class="cls-2" d="M998.52,374.6c-1.51-1.35-2.62-2.28-3.65-3.28-8.8-8.52-17.7-16.95-28-24a149.43,149.43,0,0,0-65.38-24.83,189.73,189.73,0,0,0-40.85-.69,175,175,0,0,0-56.09,13.67c-19.94,8.7-36.95,20.76-50.68,36.59-.5.58-.84,1.3-1.72,1.6-.88-.54-.43-1.36-.46-2-.18-4.44-.3-8.88-.45-13.32a79,79,0,0,1,1.48-20.05c2.58-11.38,9.09-20.83,17.85-29.07,8-7.53,17.42-13.36,27.36-18.55a160.06,160.06,0,0,1,53.76-17.25,172.16,172.16,0,0,1,46.85.32,163.76,163.76,0,0,1,60.18,20.73,109.81,109.81,0,0,1,28.85,23.93,46.47,46.47,0,0,1,10.25,22.55c1.52,8.71,1.52,17.47,1.1,26.24C998.79,369.42,998.67,371.69,998.52,374.6Z"/><path class="cls-2" d="M303.63,352c-.68-17.28,15.6-36.3,39.48-36.45,18.9-.12,40.58,12.65,40.87,36.37.22,18.76-17.43,37.25-41.19,37C320.3,388.62,303,370,303.63,352Z"/><path class="cls-1" d="M809.23,529.84c-.18-12.75,1.19-25.3,6-37.39a61.34,61.34,0,0,1,8.23-14.72c9.42-12.25,22.19-19.32,38.69-20.42,9.05-.61,18-.28,26.84,2.08a53.38,53.38,0,0,1,33.69,25.78c5.16,8.92,7.85,18.54,9.5,28.44a142,142,0,0,1,1.32,33.71c-.81,11.54-3.51,22.73-9.29,33.12-7,12.64-17.48,22-32.76,25.69-16.38,4-32.55,2.75-47.9-4.14-12.32-5.53-20.17-14.85-25.6-26.08-4.3-8.91-6.5-18.29-7.74-27.9A159.93,159.93,0,0,1,809.23,529.84Z"/></svg>