<svg id="Capa_1" data-name="Capa 1" xmlns="http://www.w3.org/2000/svg" viewBox="0 0 1080 1080"><defs><style>.cls-1{fill:#141414;}.cls-2{fill:#e0e0e0;}.cls-3{fill:#fff;}</style></defs><rect class="cls-1" width="1080" height="1080"/><path class="cls-2" d="M375,531.06c33.69,5.46,50.93,32.43,40.83,62.73-7.29,21.84-24.77,34.94-47.45,43.23-25.4,9.27-52,10.38-79,9.67a252.72,252.72,0,0,1-31.31-3c-26-3.92-35.47-21.17-31.72-41.33,4.1-22,10.34-43.74,15.79-65.57,8.21-32.9,16.62-65.76,24.71-98.68.86-3.53,2.35-4.5,6.26-5A490.37,490.37,0,0,1,355,429.14c18.52.72,36.54,4.14,52.65,12.76,31.83,17,33.41,53.34,3.59,74.34-9.05,6.37-19.25,10.49-30.24,13.2C379.38,529.84,377.76,530.31,375,531.06Z"/><path class="cls-2" d="M751.17,429.75c21.48,0,40.62.33,59.13,5.58,25.09,7.11,42.54,20.68,46.21,45.45,2.53,17.15-1.49,33.2-11,48.15-15.31,24.11-39.27,37.38-68.42,44a167.32,167.32,0,0,1-55.78,3c-5.86-.63-7.35,1.22-8.35,5.89-2.8,13-6.11,25.89-9.37,38.8a57.24,57.24,0,0,1-3.31,9.33c-5,11.24-14.19,17.19-27.76,17.29-9.39.06-18.78-.1-28.17.07-3.41.06-4.32-.81-3.56-3.87q14.57-58.7,29-117.41,10.8-43.87,21.51-87.77c.67-2.74,1.85-3.92,5.07-4.4C715.28,431,734.28,429.24,751.17,429.75Z"/><path class="cls-2" d="M622.67,592.25c-3.3,12.88-5.84,24.86-9.51,36.55-3.52,11.26-14.22,15.19-25.62,17.38-31.73,6.11-62.76,4.85-92.12-8.82-23-10.7-37.28-28.16-42.72-50.51C441.3,540,452,497.33,487.82,461.29c21.94-22,50.58-33.05,83.45-35.54a152.69,152.69,0,0,1,67.22,9.46c15.47,5.94,20,15,15.65,29.44-1.81,6-3.75,11.91-5.75,18.21-17-11.25-36.29-15.32-56.72-15.58-25.15-.32-45.47,8.89-60.32,26.89-18.77,22.76-26.58,48.24-19.5,76.43,5.65,22.49,25.48,36.91,50.84,37.64C587.24,608.94,595.76,606.72,622.67,592.25Z"/><path class="cls-2" d="M126.75,448.36A202.12,202.12,0,0,1,183.22,488c8.21,8.06,16.77,16,21.28,26.51,6.5,15.21,4.72,29.69-4.94,43.26-10.42,14.63-24.47,26.26-39.36,37.1-15.58,11.34-31.6,22.13-49.55,30.3C83.52,637.49,61.11,632.56,43,610.47c-6.81-8.33-6.64-8,3.37-12.61,30.68-14,58.05-31.67,76.85-58.42,3.25-4.63,6.27-9.39,8-14.72a12.16,12.16,0,0,1,.95-5.05C138,505,140.51,490,137.72,474.46a49.17,49.17,0,0,0-8.89-21.11C127.71,451.86,125.71,450.61,126.75,448.36Z"/><path class="cls-2" d="M947.72,449.21c7.46,2,13.25,6.56,19.45,10.39a211.65,211.65,0,0,1,51.27,44.6c12.6,15,13,36.89,1.12,53.3-11.51,15.92-27,28.43-43.19,40.24a326.27,326.27,0,0,1-41.44,25.62c-29.49,15.38-57.69,8.95-75.82-18.55-2.4-3.63.6-4,2.89-5A221.81,221.81,0,0,0,909.89,573c17.57-13.21,32.62-28.37,41.64-47.71a7.15,7.15,0,0,1,.48-4.55c4.16-9,5.62-18.58,7.16-28.12a11.09,11.09,0,0,0,.06-7.7c-1.24-10.48-2.57-20.92-9.07-30.11C949,453.05,947.1,451.57,947.72,449.21Z"/><path class="cls-2" d="M126.75,448.36c19.44,24.6,16.19,50.28,4.46,76.36a204.52,204.52,0,0,0-62.58-40.11c-4.42-1.81-4.64-3.76-2.43-7.39,8.15-13.43,18.28-25.08,34.23-31.47C109.6,442.07,118.63,442.18,126.75,448.36Z"/><path class="cls-2" d="M947.72,449.21C956.94,459.7,959.84,472,960.48,485a15.24,15.24,0,0,1,0,7.23,91.19,91.19,0,0,1-9,33c-17.75-17.55-39-30.79-62.8-40.66-4.21-1.74-4.41-3.27-2.32-6.69,8.16-13.32,17.73-25.35,33.7-31.91C930,441.91,939.37,442.24,947.72,449.21Z"/><path class="cls-1" d="M312.75,549.07a95.25,95.25,0,0,1,28.45,3.34c24.35,7,23.36,32.83,10.56,44.11-10.45,9.21-23.62,12.27-37.46,13.64-7.2.71-14.51.74-21.77.79-8.24.06-11.29-3.16-9.54-10.37,3.91-16.12,8.15-32.17,12.17-48.27.59-2.35,1.64-3.48,4.55-3.3C303.72,549.25,307.75,549.07,312.75,549.07Z"/><path class="cls-1" d="M323.77,515.13c-3.45,0-6.9.08-10.34,0-5.61-.15-8.3-2.66-7.15-7.58,3.14-13.29,6.7-26.51,10-39.77.38-1.53.91-2.46,2.85-2.6,12.39-.86,24.73-1.93,37.07.74,10.59,2.3,18.14,7.12,19.83,17.46,1.48,9-4.43,19.15-14.17,24.21C350.06,513.72,337.18,515.53,323.77,515.13Z"/><path class="cls-1" d="M760.22,466.39c7.28-1.17,14.44-.42,21.64.66,18.9,2.83,25.36,15.59,23.64,30.55-2.44,21.19-19.32,36.49-43.23,40.18a102.78,102.78,0,0,1-22.3.91c-8.8-.55-11.9-4.78-9.93-12.61,4.58-18.28,9.23-36.55,13.51-54.88.84-3.61,2.49-5,6.36-4.83C753.34,466.5,756.78,466.39,760.22,466.39Z"/><path class="cls-3" d="M960.48,492.22V485A6.34,6.34,0,0,1,960.48,492.22Z"/></svg>