<svg id="Capa_1" data-name="Capa 1" xmlns="http://www.w3.org/2000/svg" viewBox="0 0 1080 1080"><defs><style>.cls-1{fill:#141414;}.cls-2{fill:#e0e0e0;}</style></defs><rect class="cls-1" width="1080" height="1080"/><path class="cls-2" d="M211.89,417.25c38.79,2.59,71,39.56,74.29,85.24,3.18,44.5-24.41,88-62.51,97-25.62,6.05-51.77,2.82-77.6,2.15-13.48-.35-19.42,4.21-21.33,18.91-1.21,9.23-3.88,18.28-6.38,27.23-4,14.3-11.84,20.82-25.08,21.08-10.15.21-20.31-.06-30.46.09-6.54.09-9.66-1.37-7.56-10.49,9-38.86,17.44-77.87,25.74-116.93,1.61-7.57,5.2-8.9,11.25-8.86,36.1.25,72.2.15,108.31.11,15.14,0,24.76-9,24.75-22.9s-9.73-23.26-24.73-23.32c-33.47-.16-66.94-.09-100.4-.21-39.51-.15-54.81-22.32-46.39-67.06,3.9-2.28,8.1-1.14,12.15-1.14,44.56-.1,89.13,0,133.7-.1C203.72,418.09,207.88,418.91,211.89,417.25Z"/><path class="cls-2" d="M707.06,529c2.1-11.7,4.28-22.87,6.08-34.13,2.28-14.29,12-7.19,18.12-7.45,8.24-.36,3.76,7.15,3,11.3-5.13,30.21-10.47,60.38-15.83,90.54-2.11,11.84-13.65,18.27-22.55,11.76-2.17-1.59-2.54-3.82-5.52-1.72-12.58,8.86-25.31,8.46-36.5-2.39-11.56-11.2-12.35-26.93-10-42.65C648.5,524.09,678.76,502.4,707.06,529Z"/><path class="cls-2" d="M377.54,486.47c7.48.5,15.06.32,22.43,1.63,17.56,3.12,26.06,13.17,27.56,31.38,1.55,18.74-7.42,34.75-22.9,41.08-9.82,4-20.08,4.05-30.08,2.86-9.37-1.12-12.68,3.27-13.35,12.85a94.86,94.86,0,0,1-1.86,11.33c-2.49,12.89-12.4,18.89-23.18,14.45-3.67-1.51-3-4.28-2.5-7.16,5.93-34,12-67.89,17.79-101.88.83-4.91,2.95-6.26,6.9-6.14,6.39.2,12.78.06,19.17.06Z"/><path class="cls-2" d="M577.32,529.34c2.21-11.84,4.39-23.48,6.57-35.11,2.6-13.89,12.17-6.44,18.33-6.82,7.59-.47,3.2,6.81,2.61,10.42-5.26,31.88-10.78,63.72-16.37,95.53-1.61,9.18-15.9,13.82-22.45,6.26-2.49-2.86-2.71-2-4.49-.77-12.91,9.15-25.87,9.32-37.32-2.3C511.32,583.49,512,566,515.69,548.89,521.45,522,552.4,503.17,577.32,529.34Z"/><path class="cls-2" d="M1008.55,602.3c-8.09-6.78-17.7-.32-27.62.9-16.81,2.08-29.72-11.43-31.07-30.78-2-28.51,20.15-56,44.91-53.55,9.91,1,19.2,4.06,29.4.56,7.69-2.64,12.27-.33,9.43,11.8-4.53,19.36-6.89,39.36-10.34,59C1021.15,602.34,1021,602.3,1008.55,602.3Z"/><path class="cls-2" d="M776.24,517.05c22.74.05,36.5,15,36.52,39.67,0,28.57-18,48.46-43.71,48.26-22.44-.17-36.06-15.5-35.91-40.4C733.3,536.48,751,517,776.24,517.05Z"/><path class="cls-2" d="M916.68,533.93c8.93-14.62,16.59-27.31,24.39-39.88,2.83-4.56,27.06-8.55,30.46-5,3.12,3.23-.27,5.4-1.6,7.41-9.52,14.36-18.54,29.24-29,42.64-11.72,15-18.32,31.7-20.13,51.54-1.1,12-15,19.12-24.5,13.49-3.37-2-2.33-5-1.42-7.71,8.71-25.9,3.54-50-6.84-73.62-3.35-7.61-5.15-16.09-8.3-23.82-3-7.39-2.71-10.5,5.6-10.52,17.64-.06,17.65-.5,23.34,18.42C911.2,515.28,913.67,523.75,916.68,533.93Z"/><path class="cls-2" d="M477,568c-6.39,0-12.78-.13-19.17.08-2.35.07-5.69-1.31-6.45,3-.58,3.28,1.25,5.74,3.41,7.59,6,5.15,13.48,5.72,19.34,2.66,9-4.71,12.9,1.28,17.92,7.07,3.47,4,3.73,6.13-1,9.46-14.24,10-37.49,9.65-50.1-1.53-11-9.76-14.87-28.31-9.78-47,5.12-18.88,20.11-31.54,38.05-32.14,24.51-.81,38.82,15.11,36.08,39.71-.9,8.09-3.5,12.4-11.41,11.33C488.29,567.35,482.59,568,477,568Z"/><path class="cls-2" d="M853.46,517.06a71.78,71.78,0,0,1,9.31,1.82c13,3.85,13.3,5.25,7.34,18.82-2.26,5.14-4.28,6-8.56,3.44a25,25,0,0,0-8.66-2.68c-3.28-.55-7.59-1.59-8.82,3-1.08,4,3,5.23,5.53,6.84,4.58,2.92,9.39,5.44,13.74,8.74,7.66,5.79,10.28,14.59,9.31,24.59-1,9.74-5.8,16.74-13.9,20.1-14.25,5.9-28,3.89-41.28-4.15-4.39-2.65-5.7-5.79-2.28-9.69s2.18-15.77,11.72-10.48c5.83,3.23,11.67,6,18.22,5.46,2.08-.15,5-.68,5-3.9,0-1.61-1.81-3.57-3.21-4.67a77.43,77.43,0,0,0-7.87-4.94c-14.75-9-20.16-19.52-17.21-33.44C824.43,523.64,834.84,516.78,853.46,517.06Z"/><path class="cls-2" d="M611.29,602.37c-9.12,2.47-10.21-3.23-8.37-12.62,3.57-18.27,7.16-36.56,9.94-55,2.35-15.6,12.66-9,19.28-8.71,8.54.42,3.19,8.21,2.47,12.69-2.76,17.16-5.88,34.24-9,51.33C623.41,602.43,623.33,602.42,611.29,602.37Z"/><path class="cls-2" d="M643.5,497.4c-.23,9.68-7,17.44-15.07,16.79-6.91-.55-11-4.8-11.11-13.1-.1-9.55,6.53-17.37,14.73-17.23C639.73,484,643.86,488.29,643.5,497.4Z"/><path class="cls-2" d="M211.89,417.25c-3.17,3.39-7.12,2.08-10.74,2.08q-73.68.1-147.36,0c.67-2.66,2.59-2.67,4.45-2.66Z"/><path class="cls-1" d="M700.81,557c-.09,13-9.75,25-20.08,24.51-9.15-.45-13.26-6.64-13.28-16.72,0-13.44,9.15-24.62,19.87-24.36C696.84,540.67,700.19,547.39,700.81,557Z"/><path class="cls-1" d="M378.91,539.64c-2.42-2.6-9.73,5.78-10.38-4.1-.93-14.12,4.76-24,12.77-24.11,2.25-.05,4.49,0,6.74,0,7.66-.12,15,1.26,15.29,12.12.24,10.35-6.12,14.89-14.43,16C386,540,382.93,539.64,378.91,539.64Z"/><path class="cls-1" d="M570.9,554.1c.33,15.35-9,27.55-19.51,27.44-9.07-.09-13.76-6-14.16-16-.52-13,9-24.94,19.58-25C566.17,540.37,570.16,546.53,570.9,554.1Z"/><path class="cls-1" d="M991.52,542.81c6.92.93,9.79,7.62,9.28,16.88-.7,12.73-9.86,22.77-19.65,21.92-8.07-.7-13.29-8.38-12.24-18C970.28,551,979.49,541.57,991.52,542.81Z"/><path class="cls-1" d="M771.41,579.74c-9.37.16-15.06-5.73-15.26-15.82-.26-12.46,7.92-21.92,18.83-21.8,9.11.1,15,6.63,14.87,16.52C789.7,570.54,781.81,579.56,771.41,579.74Z"/><path class="cls-1" d="M452.76,549.6c9.18-15.05,22.8-18.31,29.67-9.21,1.45,1.93,3.1,4.1,2.43,6.86-.84,3.42-3.54,2.32-5.66,2.33C471,549.62,462.73,549.6,452.76,549.6Z"/></svg>