<svg id="Capa_1" data-name="Capa 1" xmlns="http://www.w3.org/2000/svg" viewBox="0 0 1080 1080"><defs><style>.cls-1{fill:#141414;}.cls-2{fill:#e0e0e0;}</style></defs><rect class="cls-1" width="1080" height="1080"/><path class="cls-2" d="M384.53,697.46c3.11-10,5.4-17.9,8-25.7q41.91-126.06,83.74-252.14c2.29-6.93,5.52-9.84,12.89-9.71,19.74.36,39.49.13,60.94.13-3.3,55.55-6.52,109.62-9.94,167,11.8-35.78,22.62-68.55,33.41-101.33,6.19-18.78,12.07-37.66,18.69-56.28,1.28-3.59,5.26-8.67,8.2-8.82,17.4-.83,34.86-.41,54.42-.41-6,18.18-11.43,34.59-16.88,51-25,75-50.15,150-74.66,225.13-3,9.14-7.22,11.76-16.22,11.34a396.08,396.08,0,0,0-43.45.05c-11.19.71-13.48-3.69-12.77-13.87,3.4-48.61,6.22-97.26,9.23-145.9a8.68,8.68,0,0,0-1.56-6c-6.89,20.71-13.85,41.4-20.67,62.13-10.1,30.7-20.37,61.34-30,92.18-2.73,8.77-7.1,11.93-16.31,11.44C416.55,696.89,401.43,697.46,384.53,697.46Z"/><path class="cls-2" d="M997.45,485c-4.8,65.28-23,126.15-63.93,178.42-18.58,23.71-42.83,38.85-74.13,39.13-39,.35-63.51-22.52-66.85-61.57-3.39-39.64,6.66-77,19.56-113.75,11.66-33.24,26.34-65,51.21-90.75,22.24-23,48.47-36.28,81.85-30.33,30.67,5.46,49.2,24.82,52.18,56.05C998.06,469.7,997.45,477.36,997.45,485ZM850.88,628.37c4.09,7.42,6.14,16.69,11.68,19.88,8.62,5,15.58-2.83,20.48-9.86,4.32-6.2,8.86-12.66,11.31-19.7,13.08-37.59,26.21-75.19,37.81-113.25,3.53-11.57,3.91-24.77,2.72-36.93s-11.81-15.22-20.78-6.69A68.88,68.88,0,0,0,899,482.91c-8.66,19.37-17.12,39-23.61,59.15C866.32,570.14,859.16,598.82,850.88,628.37Z"/><path class="cls-2" d="M421.23,410c-2.86,20.54-5.4,39.26-8.1,58C402.71,539.82,392.06,611.63,382,683.53c-1.5,10.66-5.05,15-16.49,14.21-15.45-1.11-31-.28-48.11-.28,2.89-18,5.5-34.34,8.32-52-15.67,0-30.47-.35-45.23.32-2.66.12-6,4-7.53,6.89-5.88,11.51-11.47,23.19-16.5,35.09-2.89,6.82-6.7,10-14.53,9.81-17.81-.52-35.65-.16-55.36-.16,2.07-5.12,3.17-8.62,4.83-11.83q69.06-133.24,138.06-266.51c3.48-6.76,7.5-9.34,15-9.24C369.46,410.24,394.51,410,421.23,410ZM355,481.32l-1.16-.43c-16.74,35.8-33.49,71.59-51,109,10.32,0,18.34.63,26.18-.32,3-.36,7.4-4,7.92-6.75C343.31,549.07,349.08,515.18,355,481.32Z"/><path class="cls-2" d="M759.09,499.19c-1.72-9.57-2.27-18.44-5.13-26.5-1.94-5.48-6.59-13.17-11-13.84-5.5-.84-14.43,2.81-17.5,7.43a250.16,250.16,0,0,0-23.2,42.93C688.09,543.7,676.19,579,671.57,616.32a67.45,67.45,0,0,0,.71,21.41c2.3,11.21,10.25,14.51,19.26,7.55a63.6,63.6,0,0,0,16.19-18.82c6-10.79,10.27-22.6,16.12-35.93l-30.69-1.64c5.9-18,11.16-34.44,16.88-50.75.64-1.81,3.93-3.81,6-3.83,27-.25,54-.17,82.73-.17-2.15,7.54-3.65,13.62-5.62,19.55-14.8,44.35-29.95,88.58-44.33,133.06-2.75,8.51-6.72,11.43-15.39,10.88-11-.7-22-.17-34.53-.17.85-6.76,1.53-12.14,2.41-19.17-2.88,2.34-4.61,3.62-6.21,5.05-17,15.28-36.4,20.82-58.05,12.25-21.22-8.39-27.64-27.37-29.77-47.73-4.79-45.91,7.56-89,23.52-131.28,10.81-28.64,24.54-55.73,45.41-78.63,17.32-19,38.4-31.25,64.25-33.66,39.17-3.65,66.25,18.61,74.06,60.08,3,15.71,3,15.68-12.48,20.71C788,489.65,774,494.28,759.09,499.19Z"/><path class="cls-2" d="M317.81,410c-17.35,26.68-32.63,50.25-48,73.77-23.54,36-48.84,71-70.07,108.36-12.21,21.47-17.93,46.63-26.44,70.17-3,8.22-5.88,16.5-8.18,24.92-2,7.26-5.47,10.67-13.59,10.4-17.45-.57-34.93-.17-53.84-.17,1.06-4.74,1.52-8,2.53-11.11,6.18-18.78,11.88-37.75,18.89-56.22a190.23,190.23,0,0,0,12.22-73.53c-1.08-44.17-.14-88.38-.05-132.57,0-4.11,0-8.21,0-13.82,20.31,0,39.28-.31,58.22.43,2.08.08,5.69,6.18,5.59,9.41-.72,24.35-2.21,48.68-3.4,73a24.34,24.34,0,0,0,1.77,11.46c12.85-23.54,25.52-47.18,38.59-70.6,16.49-29.54,6.15-23.14,40.39-23.87C286.41,409.76,300.4,410,317.81,410Z"/></svg>