<svg id="Capa_1" data-name="Capa 1" xmlns="http://www.w3.org/2000/svg" viewBox="0 0 1080 1080"><defs><style>.cls-1{fill:#141414;}.cls-2{fill:#e0e0e0;}</style></defs><rect class="cls-1" width="1080" height="1080"/><path class="cls-2" d="M567.5,546.75c3.16,1.46,5.32,2.44,7.46,3.44,20.57,9.7,29.55,26.16,27.87,48.67-1.53,20.52-12.76,33.84-31.24,41.49-13.61,5.64-28.06,6.75-42.53,6.87-27.08.23-54.17-.11-81.25.21-5.88.06-7.29-1.77-7.27-7.45.21-50,.13-100.07.11-150.1,0-3.4-.12-6.8-.2-10.2-.2-8.89-3.16-16.11-12.05-19.55-1.75-.68-3.15-1.26-2.57-3.47.54-2,2.26-1.44,3.55-1.41,38.65.77,77.36-2,115.94,1.48,25.27,2.3,43.1,18.19,46.55,42C594.87,519.43,586.55,535.54,567.5,546.75Z"/><path class="cls-2" d="M181.47,546.79c6.72,3.52,13,6,18.27,10.28,27.47,22.41,21.33,66.82-11.33,81.92-14.36,6.64-29.7,8.1-45.17,8.23-27.34.24-54.68-.11-82,.21-5.86.07-7.18-1.71-7.15-7.34.2-51.76.06-103.53.17-155.29,0-10.77-1.31-20.51-13-25a2.32,2.32,0,0,1-1.72-2.7c.24-2.79,2.44-1.84,3.89-1.85,11.61-.08,23.22,0,34.83,0,22.5,0,45-.34,67.5.12,16.37.34,32.08,3.69,45,15,21.82,19.19,20.2,55-3.28,72.14C185.74,543.8,184,545,181.47,546.79Z"/><path class="cls-2" d="M372,587.64c0-21.45,0-40.81,0-60.17,0-22.1.16-44.2-.06-66.3-.05-4.71,1.13-6.41,6-6.06,5.77.43,11.61-.07,17.4.18,10.12.43,15.93,5.75,17.44,15.84a72.93,72.93,0,0,1,.89,10.84c.06,52.46-.08,104.93.19,157.39,0,6.52-1.89,7.67-8.1,8.16-25.09,2-43.1-8.06-57.78-28.41-22.05-30.6-45.74-60-68.74-89.93-.58-.75-1.29-1.4-2.28-2.46-1.7,2.62-1,5.29-1,7.74-.07,29.63,0,59.26-.06,88.89a49.23,49.23,0,0,1-.44,8c-2.11,13-5.59,15.94-18.64,16-5.32,0-10.67-.38-16,.11-5.6.51-6.79-1.63-6.76-7q.32-63.75,0-127.51c0-10.38,1.15-20.83-1.22-31.16-2-8.64-6.14-15.69-13.82-20.35-1.9-1.15-4.18-2.16-3.15-4.88.92-2.42,3.39-1.36,5.11-1.28,12.27.54,24.6-1.33,36.84,1.13,13.45,2.69,24,9.83,32.05,20.69Q328.89,529.47,367.64,582C368.63,583.35,369.69,584.65,372,587.64Z"/><path class="cls-2" d="M662.31,551.5V421.89c0-1.94,0-3.89,0-5.83,0-2.45,1.77-2.5,3.54-2.49s3.55-.17,3.68,2.3c.09,1.7.06,3.4.06,5.1v260c0,1,0,1.94,0,2.91.07,2.53.2,4.68-3.57,4.7-3.59,0-3.8-1.79-3.78-4.51.07-9.22,0-18.45,0-27.67Z"/><path class="cls-2" d="M858.6,622.2c7.28,2,9.27,7,8.51,13.47-.73,6.18-5,9-10.4,10.56a34.54,34.54,0,0,1-5,.77c-12.17,1.55-13.54.35-13.53-11.86,0-9.69.26-19.38-.12-29-.18-4.58,1.83-6.06,5.72-6.26a78.46,78.46,0,0,1,8.67-.18c5.45.33,10.71,1.51,13,7.31C867.46,612.13,865.22,617,858.6,622.2Z"/><path class="cls-2" d="M759.77,477.05c8,3.09,10.53,8.38,8.57,15.38s-7.78,9.29-14.48,9.57c-14,.57-14,.54-14-13.44,0-9,.17-18-.07-26.95-.12-4.53,1.12-6.91,6.06-6.48,2.88.26,5.8-.06,8.7,0,5.54.16,10.66,1.08,12.48,7.53S766,473.33,759.77,477.05Z"/><path class="cls-2" d="M745.05,540.08c0,10,0,20,0,30,0,1.61.47,3.68-2,4-2,.24-3.17-.87-3.15-3q.21-21.43.47-42.88c0-.32.63-.63,1.76-1.68,8.52,11.87,17,23.63,26.05,36.29,0-10.58-.07-20.18.07-29.78,0-1.81-1.37-4.91,2.37-4.85,3.13.05,2.1,2.74,2.11,4.41q.13,18.56,0,37.13c0,1.69,1.26,4.33-1.43,4.92-1.8.39-2.63-1.78-3.58-3.13Q757.37,556.62,747,541.74C746.52,541,746.27,539.9,745.05,540.08Z"/><path class="cls-2" d="M761.16,613.4V604c0-2,.06-4.06,2.92-3.86,2.22.15,2.61,1.67,2.62,3.56q0,20,.15,40c0,1.66-1.4,3.61-2.11,2.43-3.3-5.48-5.77-.51-8.25.42-7.17,2.66-13.58-.35-15.9-7.76a26.44,26.44,0,0,1-1.06-12.18C741.23,615.68,747.87,611.59,761.16,613.4Z"/><path class="cls-2" d="M778.41,630.22c0-12.46,6.87-19.39,17.39-17.4a12.06,12.06,0,0,1,8.94,15.65c-.86,2.4-2.55,1.77-4.07,1.81a120.14,120.14,0,0,1-12.3,0c-4.36-.34-4.82,1.77-4.08,5.22,1.26,5.84,6.57,8.3,13.59,6.77,1.5-.33,4.13-3.67,5.15.34.75,3-2.13,3.17-4.15,3.78C786.36,650.18,778.46,644,778.41,630.22Z"/><path class="cls-2" d="M875.65,557.21c.05-10.92,5.29-17.26,14.15-17.11,9.17.16,14.76,7,14.51,17.82-.24,11-5.38,17-14.46,16.94Q875.6,574.8,875.65,557.21Z"/><path class="cls-2" d="M1040.12,631.72c0,2.42-.09,4.84,0,7.26.21,4.89.25,4.77-4.45,4.54-1,0-2,1.17-3,1.67-3.29,1.56-6.53,2.61-10.36,1.47-4.72-1.41-6.68-4.76-6.76-9.12s2.44-7.31,6.56-8.52a32,32,0,0,1,7.82-1.32c3.35-.1,6.31.12,5.6-4.83-.63-4.42-3.53-5.41-7.13-5.48-1.39,0-2.82,1-4.19.91-2-.12-5.15,3-5.9-1-.52-2.71,2.6-2.78,4.66-3.25C1037.64,610.68,1041.72,614.79,1040.12,631.72Z"/><path class="cls-2" d="M915,485.23c0,12.08-5.36,17.57-16.31,16.83-6.15-.42-9.77-3.86-11.21-9.52a26.46,26.46,0,0,1-.51-12.22c1.95-9.25,6-12.67,15.59-12.12,7.27.42,11.76,5.24,12.43,13.38C915.07,482.79,915,484,915,485.23Z"/><path class="cls-2" d="M803.3,487.1c0,3.71-.08,6.38,0,9,.15,4.18.19,4.2-3.9,2.62-1.78-.68-2.55,1-3.74,1.57-4.63,2.41-9.37,2.86-13.64-.29A8.42,8.42,0,0,1,779,490.3c1.78-5.48,6.59-6.58,11.49-7.3.95-.14,1.94,0,2.9-.11,2.32-.28,5.63,1.27,5.47-3.4-.12-3.65-1.34-6.23-5.15-6.62a14.91,14.91,0,0,0-7.84.87c-1.4.62-3.52,1.45-4.25-.87s1.17-2.57,2.85-3.24c12.69-5.07,19.91-.05,19.12,13.41C803.45,484.74,803.34,486.43,803.3,487.1Z"/><path class="cls-2" d="M906.38,629.79c0,14-8.72,20.92-20.06,16.4-6.47-2.58-9.19-10-7.75-21.32.86-6.77,5.62-11.56,12.09-12.17,7-.65,12.3,2.66,14.81,8.88C906.61,624.41,906.14,627.28,906.38,629.79Z"/><path class="cls-2" d="M977.49,560.6c0,2.9.09,5.81,0,8.71-.08,1.6,1.32,3.69-.4,4.71-2.41,1.42-2.3-1.49-3.3-2.54-1.66-1.72-2.41.35-3.46,1-3.67,2.17-7.4,3.28-11.62,1.52a8.84,8.84,0,0,1-5.87-8.33c-.14-4.26,2-7.2,6.07-8.89,3-1.27,6.15-.92,9.24-1,2.48-.09,5,.17,4.86-3.54-.11-3.06-.43-5.94-4.14-6.58a21.16,21.16,0,0,0-9.29.6c-1.58.44-3.22,1.73-3.89-1-.64-2.58,1.68-2.64,3-3.18,12.09-5,19.26-.12,19,12.8-.05,1.94,0,3.87,0,5.81Z"/><path class="cls-2" d="M916.22,557.63v-8.71c0-5.14,0-4.9,5-5.1,1.72-.07,3.3-1.92,5.08-2.57,8.77-3.18,14.86.3,15.82,9.66.68,6.47.22,13.06.29,19.6,0,1.8-.11,3.56-2.47,3.59-2.59,0-3.05-1.72-3-3.9,0-5.33,0-10.66,0-16,0-4.68-.93-8.92-6.65-9.38-5-.4-9.14,4-9.33,9.85-.17,5.33,0,10.66-.06,16,0,1.65.2,3.64-2.31,3.67s-2.32-2-2.34-3.62C916.19,566.35,916.23,562,916.22,557.63Z"/><path class="cls-2" d="M817.55,485c0-3.63-.17-7.28.05-10.91.16-2.56-1.48-8.61,4.38-2.88,1.59,1.56,2.31-.61,3.38-1.19,9.75-5.26,17.6-1.26,18.32,9.62.42,6.28.13,12.6.14,18.91,0,1.68.21,3.41-2.42,3.43s-3.16-1.43-3.14-3.68q.07-8.37,0-16.74c-.07-4.67-.8-9-6.93-8.82-5.85.14-8.8,3.5-9,9.13-.23,5.33,0,10.67-.09,16,0,1.77.66,4.21-2.54,4-2.64-.16-2-2.26-2-3.79C817.5,493.69,817.55,489.32,817.55,485Z"/><path class="cls-2" d="M809.1,559.85c0,2.41-.06,4.84,0,7.25.12,4.77.17,4.68-4.08,3.67-1.59-.38-2.33,1.45-3.55,2.09-4.54,2.41-9.2,3.19-13.45-.45-2.9-2.49-4.34-5.79-3-9.72,1.9-5.42,6.34-6.41,11.4-7.11,2.8-.39,7.8,3.1,8.18-3.54.26-4.57-1.65-6.92-6.25-6.68a37.73,37.73,0,0,0-7.11.93c-1.73.43-3.31,1.29-4-1.19s1.77-2.61,3-3.13c12.62-5.14,19.61-.1,19,13.53-.07,1.44,0,2.9,0,4.35Z"/><path class="cls-2" d="M972.05,647.59l-12.37-29.68c-.57-1.37-2.58-3.09.37-3.88,1.81-.48,3.62-.32,4.57,2.2,2.63,6.92,5.57,13.72,8.79,21.54,2.61-7.11,4.92-13.38,7.24-19.64.94-2.54,2.09-5.6,5.41-4,3.13,1.49,0,3.81-.57,5.35-3.65,9.39-7.66,18.63-11.56,27.93Z"/><path class="cls-2" d="M826.48,557.54c0,9.73,4.82,14,13.93,12.12,1.76-.37,3.5-1.25,4.27.84,1.13,3.06-1.85,2.76-3.39,3.33C831,577.69,823,572.7,821.81,561.78c-1.4-12.63,2-19.3,10.91-21.22,1.16-.25,2.52-.69,3.53-.32,2.64,1,7.74-.75,7.44,3.4-.37,5-4.48,1.09-6.81,1.08C830.23,544.7,826.44,549.16,826.48,557.54Z"/><path class="cls-2" d="M870.94,468.23a21.74,21.74,0,0,1,3.94.26c1.62.32,3.22.79,2.64,3.3-.66,2.87-2.17,1.33-3.69,1.19-4.24-.38-8.91-1.55-11.6,3.3a17,17,0,0,0,.22,17.88c2.77,4.64,7.36,3.73,11.64,3.15,1.55-.21,3.25-1.73,4.15.7,1.12,3-1.93,3.26-3.27,3.51-9.86,1.86-19.64,1-19.77-14.32C855.09,473.42,859,468.15,870.94,468.23Z"/><path class="cls-2" d="M991.91,549.87c0-5.82-.07-11.65,0-17.48,0-1.69-.94-4.13,2.24-4.35s3.27,2,3.27,4.27q0,15.66,0,31.32c0,3.39-.55,7.24,4.89,6.75,1.27-.11,2.46.43,2.4,2,0,1.4-1.14,1.92-2.36,2.32-5.71,1.89-10.17-1.08-10.43-7.34C991.72,561.53,991.91,555.7,991.91,549.87Z"/><path class="cls-2" d="M919.21,622.21c0-6.06,0-12.13,0-18.19,0-1.56-.52-3.69,2-3.87,3.06-.22,2.68,2.18,2.69,4,0,9.94-.07,19.89.07,29.83.06,4-1.4,9.43,5.93,8.72.53-.05,1.48,1.22,1.71,2,.35,1.22-.91,1.36-1.73,1.79-5,2.65-10.44-.33-10.67-6.14C919,634.35,919.22,628.28,919.21,622.21Z"/><path class="cls-2" d="M862.71,557.62c0,4.36,0,8.72,0,13.07,0,1.71.12,3.58-2.45,3.47-2-.09-3.12-1-3.12-3.13,0-9,0-17.92,0-26.88,0-2.16,1-2.94,3.1-3,2.57,0,2.49,1.64,2.49,3.37Q862.73,551.08,862.71,557.62Z"/><path class="cls-2" d="M1003.57,630.62c0,4.13,0,8.26,0,12.39,0,1.72.08,3.43-2.49,3.39-2.31,0-2.87-1.31-2.86-3.25q0-12.75,0-25.51c0-2.17.43-3.87,3.12-3.79s2.21,2,2.22,3.66C1003.6,621.88,1003.57,626.25,1003.57,630.62Z"/><path class="cls-2" d="M942.23,629.84c0-4.12-.05-8.23,0-12.34,0-1.61-.32-3.59,2.21-3.74,3-.17,2.75,2,2.76,3.94,0,8.47,0,16.94,0,25.41,0,1.79-.12,3.46-2.59,3.38s-2.37-1.9-2.38-3.58C942.21,638.55,942.23,634.19,942.23,629.84Z"/><path class="cls-2" d="M945,606.87c-2.22-.07-3.71-1.08-3.9-3.3a3.34,3.34,0,0,1,3.28-3.84,3.39,3.39,0,0,1,3.86,3.26C948.55,605.33,947,606.32,945,606.87Z"/><path class="cls-2" d="M863.66,531c-.74,2.87-2.43,3.34-4.52,3.14-2.8-.28-2.63-2.33-2.39-4.25.26-2.09,1.82-2.67,3.64-2.41A3.8,3.8,0,0,1,863.66,531Z"/><path class="cls-2" d="M1001.28,606.93c-2.47-.28-3.72-1.5-3.72-3.75a3.2,3.2,0,0,1,2.93-3.45c2.3-.27,3.66,1.35,3.94,3.33C1004.75,605.3,1003,606.35,1001.28,606.93Z"/><path class="cls-1" d="M512.68,610.1c-8.68,0-17.37-.18-26,.07-3.77.11-5.05-1.1-5-4.91.2-10.9.13-21.81.05-32.71,0-3,.38-5.12,4.23-5,18.77.75,37.62-1.51,56.32,1.42,14.31,2.25,21,11.34,18.58,24.84-1.61,9-9.75,15.13-21.38,15.9-4.57.3-9.16.29-13.74.35C521.37,610.15,517,610.1,512.68,610.1Z"/><path class="cls-1" d="M507,532.71c-7,0-14-.14-21,.06-3.47.1-4.65-1.15-4.6-4.62.17-10.44.1-20.88,0-31.32,0-3,.43-5.19,4.28-5,15,.63,30-1.19,44.86,1.08,14.35,2.18,20.42,8.52,20,20.77-.35,10.52-8.72,18-21.82,18.73-7.22.44-14.49.08-21.74.08Z"/><path class="cls-1" d="M126.67,610.1c-8.69,0-17.38-.18-26.06.08-4.23.14-6-.87-5.84-5.58.35-10.65.17-21.32.08-32,0-3.1.5-5.17,4.29-5,18.77.73,37.61-1.48,56.32,1.37C169,571,175.21,578,174.77,590.53c-.38,10.76-8.55,18.42-21.33,19.13-8.9.5-17.85.1-26.77.1Z"/><path class="cls-1" d="M121.09,532.71c-7.24,0-14.49-.13-21.72.06-3.45.09-4.62-1.1-4.56-4.59.19-10.42.12-20.85,0-31.28,0-3.07.5-5.23,4.28-5.07,15.17.61,30.4-1.22,45.53,1.13,13.7,2.12,20,8.66,19.7,20.37-.3,10.56-8.58,18.14-21.56,19-7.2.5-14.47.09-21.71.09Z"/><path class="cls-1" d="M843.84,633c.7-3-2.44-8.34,5.14-7.86,8.85.55,12.73,2.74,12.71,8.46s-4,8.68-11.75,8.64C843.83,642.23,843.83,642.23,843.84,633Z"/><path class="cls-1" d="M843.71,613.28c.71-4.11-2.15-9.93,5.61-9.19,5.18.49,10.51.84,10.91,7.75.3,5.25-5.32,8.9-12.59,8.93C840.56,620.8,845.49,615.31,843.71,613.28Z"/><path class="cls-1" d="M745.26,488.36c1.24-2.4-3.43-8.58,4.81-8.31,8.09.25,13.49,3.51,13.38,8.91-.1,5.21-4.86,8-12,8.71C743.68,498.43,745.08,493.54,745.26,488.36Z"/><path class="cls-1" d="M745.37,468.41c-.64-5.6-1-9.65,6-8.94,5.28.54,9.81,1.41,10.67,7.4.67,4.65-5.44,8.49-12,8.93C742.26,476.33,746.19,470.56,745.37,468.41Z"/><path class="cls-1" d="M761.16,627.92c0,2.54-.06,4.47,0,6.4.2,5.35-2.87,8.35-7.63,8.63-4.53.27-7.71-2.82-8.22-7.39-.47-4.24-1.18-8.68.83-12.79,2.2-4.48,6.1-6.21,10.74-5.38C764,618.66,760,624.69,761.16,627.92Z"/><path class="cls-1" d="M792.18,626.84c-2.52-1.62-7.29,2.12-7.66-2.82-.34-4.48,3.58-6.5,7.8-6.81s7.49,2.25,7.53,6.11C799.91,629.12,794.63,625,792.18,626.84Z"/><path class="cls-1" d="M898.92,557.55c0,8.34-3.32,12.85-9,12.82-5.36,0-8.72-4.21-9.09-11.77a31.81,31.81,0,0,1,.76-7.18c.75-4.13,3.63-6.31,7.51-6.64s6.83,1.72,8.44,5.45A14.79,14.79,0,0,1,898.92,557.55Z"/><path class="cls-1" d="M1026.65,642.54c-2.71-.13-5.82-1.1-5.55-5.17.34-5.16,4.61-5.51,8.46-5.55,2.42,0,6.17-1.75,5.91,3.47C1035.26,639.48,1032.27,642.34,1026.65,642.54Z"/><path class="cls-1" d="M891.77,485.14q-.07-12.3,8.54-12.56c6.12-.19,9.53,4.22,9.63,12.47.09,8.1-2.84,12.38-8.62,12.58C895.13,497.85,891.82,493.52,891.77,485.14Z"/><path class="cls-1" d="M791.71,497.55c-4.6.14-7.61-1-7.32-5.07.37-5.35,4.79-5.34,8.65-5.31,2.21,0,5.85-1.75,5.68,3C798.53,495.28,795.21,497.13,791.71,497.55Z"/><path class="cls-1" d="M892,617.16c5.48-.11,9.34,4.78,9.68,12.24s-3.58,13.46-9,13.66-9.54-5.5-9.57-13.19S886.58,617.27,892,617.16Z"/><path class="cls-1" d="M972.93,563.34c-.79,4.7-4.15,6.73-8.57,6.92-3.63.16-6.34-1.89-5.78-5.75.88-6,6.34-4.79,10.3-5.55C971.89,558.39,973.55,559.86,972.93,563.34Z"/><path class="cls-1" d="M799.25,559.06c3.83-.51,5.59.23,5.37,3.7-.34,5.26-3.92,7-8.19,7.49-3.58.43-6.45-1.5-6.2-5.33C790.63,558.58,796.48,560.3,799.25,559.06Z"/></svg>