<svg id="Capa_1" data-name="Capa 1" xmlns="http://www.w3.org/2000/svg" viewBox="0 0 180.09 180"><defs><style>.cls-1{fill:#fff;}.cls-2{fill:#be0811;}.cls-3{fill:gray;}.cls-4{fill:#6e6e6e;}.cls-5{fill:#848483;}.cls-6{fill:#999;}</style></defs><rect class="cls-1" x="0.05" y="-0.46" width="180" height="180" rx="12.21"/><rect class="cls-2" x="23.15" y="36.94" width="20.58" height="102.41"/><polygon class="cls-3" points="103.95 101.01 102.53 99.11 102.22 99.97 103.95 101.01"/><path class="cls-4" d="M67.86,62.9l-11.23,3v6.4L81,87.07C75.79,77.3,70.6,67.7,67.86,62.9"/><polygon class="cls-4" points="56.63 140.13 77.22 140.13 77.22 110.29 56.63 78.97 56.63 140.13"/><polygon class="cls-5" points="136.36 140.13 156.94 140.13 156.94 135.84 136.36 121.56 136.36 140.13"/><path class="cls-5" d="M96.37,116.06h0s-7.7-14.64-15.36-29L56.63,72.26V79l20.59,31.32V98.59L99.77,129l-2.13-16.43Z"/><polygon class="cls-4" points="149.14 58.89 143.28 65.24 129.46 80.22 127.37 77.26 113.04 96.51 107.9 103.41 106.82 104.87 103.95 101.01 102.53 99.11 97.64 112.57 99.77 129 106.82 138.51 125.07 113.84 125.45 113.34 128.11 109.74 136.36 98.59 136.36 113.28 149.27 111.48 156.94 88.36 156.94 73.64 149.14 58.89"/><polygon class="cls-6" points="149.27 111.48 136.36 113.28 136.36 121.56 156.94 135.84 156.94 110.41 156.94 103.13 156.94 88.36 149.27 111.48"/><path class="cls-5" d="M71.09,56.92l-5.38-7.23L56.63,37.51V65.86l11.23-3c2.07-1.7,3.23-6,3.23-6"/><polygon class="cls-6" points="149.23 47.88 127.37 77.26 129.46 80.22 143.28 65.24 149.14 58.89 156.94 73.64 156.94 50.44 156.94 47.37 156.94 37.51 149.23 47.88"/><path class="cls-6" d="M81,87.07c7.66,14.36,15.36,29,15.36,29l2.13,3.17,1.27-5.9L102.23,100l.3-.85L71.09,56.92l-3.23,6C68,62.9,75.79,77.3,81,87.07"/></svg>

