<svg id="Capa_1" data-name="Capa 1" xmlns="http://www.w3.org/2000/svg" viewBox="0 0 580.82 132.56"><defs><style>.cls-1,.cls-2{fill:#be1818;}.cls-1{fill-rule:evenodd;}.cls-3{fill:gray;}.cls-4{fill:#6f6f6e;}.cls-5{fill:#848483;}.cls-6{fill:#9a9999;}</style></defs><path class="cls-1" d="M588.91,159.88c-1.34,0-2.59,0-3.84,0a.87.87,0,0,1-1-.78l-1.14-4.32c-.63-2.35-1.5-3-3.88-3-.67,0-.91.17-.89.88,0,2,0,4.05,0,6.07,0,.81-.14,1.18-1,1.1-1.08-.1-2.51.33-3.16-.22s-.2-2.05-.21-3.13c0-5.22,0-10.45,0-15.67,0-.58,0-1,.74-1.11a32.32,32.32,0,0,1,9,0c2.75.53,4.3,2.06,4.68,4.4.44,2.73-.48,4.43-3.36,6.13a5.81,5.81,0,0,1,2.66,4c.45,1.83,1,3.64,1.48,5.54m-10.75-14c0,3.16.24,3.35,3.27,2.63a3.47,3.47,0,0,0,.45-.17,2.78,2.78,0,0,0,1.78-3.4c-.41-1.61-2.26-2.44-4.78-2-1.43.26-.44,1.53-.71,2.29a2.06,2.06,0,0,0,0,.61" transform="translate(-38.37 -29.18)"/><path class="cls-1" d="M557,139.48a15.8,15.8,0,0,1,4.3.63c.7.2.94.49.71,1.19s-.24,1.95-.79,2.49-1.47-.36-2.28-.46a7.15,7.15,0,0,0-3.47.07,1.89,1.89,0,0,0-1.42,1.5,1.78,1.78,0,0,0,1,1.8,24.69,24.69,0,0,0,3.53,1.55c1.86.8,3.55,1.82,4.19,3.91,1.09,3.52-.93,6.68-4.88,7.63a13.88,13.88,0,0,1-7.76-.49c-.61-.2-1.08-.41-.72-1.27s.21-2,.76-2.47,1.55.38,2.39.55a8.74,8.74,0,0,0,4.19.13,2,2,0,0,0,1.66-1.72,2,2,0,0,0-1-2,12.26,12.26,0,0,0-2.54-1.12c-2.11-.8-4.12-1.78-5-4-1.32-3.27.92-6.79,4.82-7.58a7.33,7.33,0,0,1,2.39-.28" transform="translate(-38.37 -29.18)"/><path class="cls-1" d="M599.12,149.79c0-3,0-6.07,0-9.11,0-.73.17-1,.94-1a17,17,0,0,0,2.67,0c.78-.06.93.22.93.95,0,4.74,0,9.48,0,14.22,0,1.05.3,1.28,1.29,1.24,2-.08,4,0,6,0,.64,0,.81.19.83.82.1,3,.12,3-2.78,3s-5.75,0-8.63,0c-.88,0-1.18-.17-1.16-1.11.07-3,0-6,0-9" transform="translate(-38.37 -29.18)"/><path class="cls-1" d="M570.82,157.44a2.66,2.66,0,1,1-5.32-.12,2.66,2.66,0,1,1,5.32.12" transform="translate(-38.37 -29.18)"/><path class="cls-1" d="M596.1,157.4a2.66,2.66,0,1,1-5.32,0,2.66,2.66,0,1,1,5.32,0" transform="translate(-38.37 -29.18)"/><path class="cls-1" d="M619.19,157.43a2.66,2.66,0,1,1-5.32-.1,2.66,2.66,0,1,1,5.32.1" transform="translate(-38.37 -29.18)"/><rect class="cls-2" y="27.4" width="20.58" height="102.41"/><polygon class="cls-3" points="80.8 91.47 79.39 89.57 79.08 90.42 80.8 91.47"/><path class="cls-4" d="M83.08,82.53l-11.22,3v6.4l24.37,14.82C91,96.94,85.83,87.33,83.08,82.53" transform="translate(-38.37 -29.18)"/><polygon class="cls-4" points="33.49 130.59 54.07 130.59 54.07 100.75 33.49 69.43 33.49 130.59"/><polygon class="cls-5" points="113.21 130.59 133.8 130.59 133.8 126.3 113.21 112.02 113.21 130.59"/><path class="cls-5" d="M111.6,135.69h0s-7.7-14.64-15.37-29L71.86,91.89v6.72l20.58,31.31v-11.7L115,148.64l-2.12-16.43Z" transform="translate(-38.37 -29.18)"/><polygon class="cls-4" points="125.99 49.35 120.14 55.69 106.31 70.68 104.22 67.71 89.89 86.97 84.75 93.87 83.67 95.33 80.8 91.47 79.39 89.57 74.49 103.03 76.62 119.46 83.67 128.97 101.93 104.3 102.3 103.8 104.96 100.19 113.21 89.05 113.21 103.74 126.12 101.94 133.8 78.82 133.8 64.1 125.99 49.35"/><polygon class="cls-6" points="126.12 101.94 113.21 103.74 113.21 112.02 133.8 126.3 133.8 100.86 133.8 93.59 133.8 78.82 126.12 101.94"/><path class="cls-5" d="M86.32,76.55l-5.39-7.23L71.86,57.15V85.49l11.22-3c2.08-1.69,3.24-6,3.24-6" transform="translate(-38.37 -29.18)"/><polygon class="cls-6" points="126.08 38.34 104.22 67.71 106.31 70.68 120.14 55.69 125.99 49.35 133.8 64.1 133.8 40.89 133.8 37.83 133.8 27.97 126.08 38.34"/><path class="cls-6" d="M96.23,106.71c7.67,14.35,15.37,29,15.37,29l2.13,3.17L115,133l2.46-13.37.31-.85L86.32,76.55l-3.24,6c.13,0,7.94,14.41,13.15,24.18" transform="translate(-38.37 -29.18)"/><path class="cls-2" d="M227.55,54.48,274.31,159H252l-6.92-15.56H210L203.1,159H180.86Zm9.4,70.77-9.33-21.67-9.47,21.67Z" transform="translate(-38.37 -29.18)"/><path class="cls-2" d="M321.83,55.94a52.33,52.33,0,0,1,36.78,15.18L343.93,85.8a30.27,30.27,0,0,0-22-9.21,31.34,31.34,0,0,0-31.13,31.25,30,30,0,0,0,9.15,22A29.71,29.71,0,0,0,322,139,31.07,31.07,0,0,0,350,121.12H320.81V101.49h52.6c1.46,19.14-4.82,33-14.93,43.07a50.31,50.31,0,0,1-36.72,15.18,49.66,49.66,0,0,1-36.65-15.18,49.77,49.77,0,0,1-15.25-36.72,50.38,50.38,0,0,1,15.25-36.78,49.59,49.59,0,0,1,36.65-15.31Z" transform="translate(-38.37 -29.18)"/><polygon class="cls-2" points="405.87 27.14 405.87 47.66 364.7 47.66 364.7 68.31 395.58 68.31 395.58 88.83 364.7 88.83 364.7 109.47 405.87 109.47 405.87 129.93 344.12 129.93 344.12 27.14 405.87 27.14"/><polygon class="cls-2" points="482.39 84.66 482.39 27.8 503.04 27.8 503.04 132.56 441.29 73.73 441.29 130.59 420.71 130.59 420.71 25.9 482.39 84.66"/><path class="cls-4" d="M323.61,49.6h-2.5v-20h7.09a6.17,6.17,0,0,1,4.91,1.81,6.06,6.06,0,0,1,1.59,4.12A5.74,5.74,0,0,1,333,39.79a6.16,6.16,0,0,1-4.5,1.68h-4.86Zm0-10.21h4.61a3.92,3.92,0,0,0,2.86-1.06,3.76,3.76,0,0,0,1.08-2.81,4.09,4.09,0,0,0-1-2.67,3.42,3.42,0,0,0-2.8-1.17h-4.78Z" transform="translate(-38.37 -29.18)"/><path class="cls-4" d="M349.3,29.59h2.08V42.66c0,2.62-.65,4.5-1.93,5.64A7.32,7.32,0,0,1,344.4,50a6.82,6.82,0,0,1-5.15-1.76q-1.67-1.77-1.67-5.59V29.59h2.51V42.66a7.13,7.13,0,0,0,.54,3.28,3.22,3.22,0,0,0,1.64,1.41,5.88,5.88,0,0,0,2.31.46,4.72,4.72,0,0,0,3.51-1.22,5.39,5.39,0,0,0,1.21-3.93Z" transform="translate(-38.37 -29.18)"/><path class="cls-4" d="M356.08,49.6v-20H364a6,6,0,0,1,4.43,1.46,4.68,4.68,0,0,1,1.45,3.4c0,2.26-1.18,3.77-3.55,4.51a5.4,5.4,0,0,1,3.14,1.94,5.2,5.2,0,0,1,1,3.15,5.35,5.35,0,0,1-1.59,4,6.67,6.67,0,0,1-4.9,1.6Zm2.42-11.44h4.36c1.8,0,3-.34,3.62-1a3.59,3.59,0,0,0,.91-2.43,2.82,2.82,0,0,0-1-2.23,4.36,4.36,0,0,0-2.91-.85h-5Zm0,9.24h5.37a4.37,4.37,0,0,0,3-1A3.13,3.13,0,0,0,368,44a4.21,4.21,0,0,0-.48-2,3.42,3.42,0,0,0-1.36-1.41,5.4,5.4,0,0,0-2.63-.5h-5Z" transform="translate(-38.37 -29.18)"/><polygon class="cls-4" points="347.68 18.22 347.68 20.42 335.86 20.42 335.86 0.41 338.43 0.41 338.43 18.22 347.68 18.22"/><rect class="cls-4" x="350.56" y="0.41" width="2.51" height="20.01"/><path class="cls-4" d="M408.43,42.87l2.29.51Q409.07,50,403.3,50a6.91,6.91,0,0,1-6-3.07,12.76,12.76,0,0,1-2.16-7.54A11.45,11.45,0,0,1,397.44,32a7.35,7.35,0,0,1,6.05-2.8q5.63,0,7.23,6.43l-2.36.47q-1.29-4.78-4.88-4.78a4.67,4.67,0,0,0-4.12,2.22,11.34,11.34,0,0,0-1.45,6.24,10.38,10.38,0,0,0,1.49,5.9,4.58,4.58,0,0,0,4,2.22q3.83,0,5.07-5" transform="translate(-38.37 -29.18)"/><rect class="cls-4" x="375.45" y="0.41" width="2.51" height="20.01"/><path class="cls-4" d="M421.33,49.59v-20h6.72a8,8,0,0,1,6.59,2.88A10.78,10.78,0,0,1,437,39.54a11.2,11.2,0,0,1-2.3,7.15,7.12,7.12,0,0,1-5.83,2.9Zm2.51-2.12h4.06a5.71,5.71,0,0,0,4.89-2.23,9.5,9.5,0,0,0,1.68-5.88A9.33,9.33,0,0,0,432.88,34a5.59,5.59,0,0,0-5-2.36h-4.06Z" transform="translate(-38.37 -29.18)"/><path class="cls-4" d="M453.63,49.6h-2.56l-2-5.85h-7.43l-1.79,5.85h-2.09l6.5-20h2.84Zm-5.11-7.73-3.1-9.62-3.09,9.62Z" transform="translate(-38.37 -29.18)"/><path class="cls-4" d="M456.23,49.59v-20H463a8,8,0,0,1,6.59,2.88,10.78,10.78,0,0,1,2.36,7.07,11.15,11.15,0,0,1-2.3,7.15,7.1,7.1,0,0,1-5.83,2.9Zm2.51-2.12h4.06a5.74,5.74,0,0,0,4.9-2.23,9.56,9.56,0,0,0,1.67-5.88A9.33,9.33,0,0,0,467.78,34a5.59,5.59,0,0,0-5-2.36h-4.06Z" transform="translate(-38.37 -29.18)"/><polygon class="cls-4" points="464.45 0.41 457.71 20.42 455.28 20.42 448.54 0.41 451.17 0.41 456.75 16.92 462.27 0.41 464.45 0.41"/><rect class="cls-4" x="467.06" y="0.41" width="2.51" height="20.01"/><path class="cls-4" d="M526.41,49.6h-2.56l-2-5.85h-7.43l-1.79,5.85h-2.09l6.5-20h2.83Zm-5.11-7.73-3.1-9.62-3.09,9.62Z" transform="translate(-38.37 -29.18)"/><polygon class="cls-4" points="502.46 18.22 502.46 20.42 490.64 20.42 490.64 0.41 493.21 0.41 493.21 18.22 502.46 18.22"/></svg>

